<?xml version="1.0" encoding="UTF-8"?>
<svg id="Warstwa_1" data-name="Warstwa 1" xmlns="http://www.w3.org/2000/svg" viewBox="0 0 99.32 107.75">
  <defs>
    <style>
      .cls-1 {
        fill: none
      }

      .cls-1, .cls-2 {
        stroke-width: 0px;
      }

      .cls-2 {
        fill: #868686;
        fill-rule: evenodd;
        opacity: .51;
      }
    </style>
  </defs>
  <rect class="cls-1" x="-9.22" y="-9.04" width="117.4" height="124.13"/>
  <path class="cls-2" d="M10.65,62.81c-.29-1.27-.59-2.52-.84-3.77-.03-.14.21-.42.39-.5,1.34-.58,2.68-1.19,4.07-1.66,1.08-.37,1.66-.91,1.55-2.12-.06-.73.02-1.49.13-2.22.11-.73-.19-1.08-.84-1.29-1.61-.53-3.2-1.09-4.8-1.63-.23-.08-.46-.16-.68-.23.24-1.36.45-2.67.71-3.97.03-.15.35-.32.55-.33,1.66-.12,3.32-.23,4.99-.29.51-.02.75-.15.9-.67.34-1.21.74-2.41,1.18-3.59.21-.56.03-.87-.41-1.19-1.23-.88-2.43-1.8-3.66-2.67-.37-.26-.43-.48-.23-.89.55-1.16,1.05-2.34,1.6-3.58,1.46.45,2.9.86,4.32,1.34,1.62.54,1.61.57,2.73-.76.52-.62,1.04-1.25,1.6-1.83.43-.45.47-.84.13-1.37-.99-1.53-1.95-3.08-2.94-4.67.73-.78,1.47-1.54,2.17-2.32.88-.98.85-.95,1.93-.13,1.29.98,2.62,1.91,3.96,2.83.19.13.57.12.79.02,1.02-.47,2.02-1.01,3.02-1.51.84-.42.88-.48.64-1.42-.47-1.85-.96-3.7-1.46-5.63,1.17-.59,2.32-1.19,3.5-1.74.12-.06.44.14.56.3,1.01,1.33,2.01,2.67,2.97,4.03.39.55.8.75,1.47.58.92-.23,1.85-.4,2.79-.52.65-.08.94-.37.99-1.02.14-1.86.32-3.73.48-5.59,0-.09.02-.17.03-.3,1.14-.06,2.26-.1,3.37-.19.98-.08.95-.1,1.24.87.48,1.59.98,3.18,1.51,4.76.07.21.37.46.59.48,1.32.16,2.64.28,3.97.35.23.01.58-.24.69-.47.76-1.51,1.52-3.02,2.19-4.57.27-.64.53-.96,1.28-.76.84.23,1.72.36,2.59.48.49.06.62.27.62.75,0,2.03,0,4.06.04,6.08,0,.2.13.51.28.58,1.15.47,2.32.86,3.47,1.33.41.17.67.08.93-.24.98-1.18,1.99-2.33,2.95-3.52.33-.4.58-.51,1.06-.23,1.1.64,2.25,1.21,3.44,1.85-.68,1.7-1.3,3.37-2.02,4.99-.29.66-.18,1.04.35,1.49.77.65,1.48,1.39,2.19,2.11.68.7.73.71,1.61.24,1.57-.84,3.14-1.67,4.69-2.49.96,1,1.89,1.94,2.77,2.94.11.13.01.6-.14.79-1.11,1.36-2.24,2.71-3.4,4.03-.37.42-.4.76-.16,1.27.46.95.86,1.94,1.22,2.93.24.65.6.85,1.28.72,1.9-.38,3.81-.71,5.8-1.08.5,1.19,1.02,2.38,1.48,3.59.05.13-.16.44-.32.55-1.26.82-2.52,1.67-3.84,2.41-.87.49-1.29,1.05-1.05,2.1.19.83.25,1.7.3,2.55.03.59.31.84.86.92,1.83.28,3.65.58,5.47.87.13.02.26.05.46.08-.03.95-.09,1.89-.09,2.83,0,1.45.03,1.45-1.35,1.79-1.42.35-2.84.71-4.27,1.02-.53.11-.72.35-.77.89-.12,1.14-.29,2.28-.53,3.4-.11.52,0,.8.44,1.05,1.49.84,2.96,1.71,4.48,2.51.53.28.75.53.57,1.14-.27.88-.5,1.78-.68,2.68-.1.49-.32.6-.79.56-2-.15-4-.25-6-.41-.41-.03-.58.05-.75.45-.44,1.04-.92,2.05-1.44,3.05-.24.46-.2.76.17,1.12,1.08,1.05,2.13,2.14,3.21,3.19.34.33.45.58.14,1.03-.73,1.05-1.4,2.14-2.12,3.27-1.12-.53-2.22-1.04-3.31-1.57-.63-.31-1.22-.69-1.86-.96-.23-.1-.64-.07-.82.07-1.01.82-1.97,1.71-2.97,2.55-.4.34-.34.67-.16,1.08.67,1.55,1.32,3.11,2,4.66.18.42.09.61-.27.87-.83.59-1.63,1.2-2.39,1.88-.46.41-.75.4-1.17-.04-1.22-1.26-2.49-2.48-3.71-3.74-.33-.33-.61-.43-1.07-.26-1.01.37-2.05.68-3.09,1-.89.28-.95.35-.86,1.29.16,1.77.33,3.54.52,5.31.04.36-.04.53-.39.63-1.01.3-2.02.62-3.02.98-.41.15-.61.02-.79-.33-.76-1.49-1.55-2.95-2.29-4.45-.3-.61-.67-.86-1.36-.8-.99.08-1.98.1-2.97.08-.6-.02-.86.27-.99.79-.44,1.79-.89,3.58-1.34,5.38-.03.13-.06.26-.11.42-1.16-.12-2.29-.31-3.43-.32-.78,0-.96-.31-1.04-1-.19-1.68-.48-3.34-.72-5.01-.05-.36-.19-.53-.58-.61-1.25-.27-2.5-.57-3.73-.93-.48-.14-.68.1-.88.39-.99,1.42-1.99,2.84-2.92,4.3-.31.49-.59.65-1.14.43-.86-.34-1.73-.66-2.61-.91-.54-.15-.58-.41-.5-.88.32-1.98.6-3.96.91-5.94.06-.37-.02-.55-.36-.74-1.08-.61-2.14-1.25-3.18-1.92-.45-.29-.77-.31-1.19.06-1.14.99-2.32,1.94-3.46,2.92-.37.32-.63.37-1.03.03-.98-.82-2.01-1.58-3.08-2.41.84-1.39,1.65-2.74,2.48-4.08.94-1.51.98-1.04-.03-2.39-.54-.72-1.07-1.45-1.56-2.21-.35-.54-.72-.68-1.35-.46-1.72.6-3.46,1.15-5.18,1.71-.77-1.14-1.51-2.24-2.24-3.34-.28-.42.08-.61.32-.82,1.34-1.13,2.68-2.27,4.04-3.38.38-.31.5-.6.36-1.1-.29-1.06-.53-2.14-.73-3.23-.12-.66-.44-.9-1.1-.88-1.96.04-3.91.05-5.93.07ZM72.03,65.33c6.06-11.04,2.25-26.63-10.24-32.99-11.58-5.89-26.14-.91-32.16,10.25-5.99,11.11-2.24,26.66,10.22,33.02,11.58,5.91,26.25.98,32.18-10.28Z"/>
</svg>