<?xml version="1.0" encoding="UTF-8"?>
<svg id="Warstwa_1" data-name="Warstwa 1" xmlns="http://www.w3.org/2000/svg" viewBox="0 0 99.32 107.75">
  <defs>
    <style>
      .cls-1 {
        fill: #f08a10;
        fill-rule: evenodd;
        opacity: .31;
      }

      .cls-1, .cls-2 {
        stroke-width: 0px;
      }

      .cls-2 {
        fill: none;
      }
    </style>
  </defs>
  <rect class="cls-2" x="-9.22" y="-9.04" width="117.4" height="124.13"/>
  <path class="cls-1" d="M45.15,13.09c1.35-.26,2.68-.5,4.11-.77.42,1.11.83,2.19,1.23,3.28.26.72.52,1.44.76,2.17.15.45.4.69.92.72,1.08.07,2.16.19,3.23.34.56.08.84-.13,1.03-.62.61-1.57,1.24-3.14,1.86-4.72.11-.29.22-.58.33-.86,1.34.29,2.63.56,3.92.87.15.04.31.36.31.55.05,1.71.1,3.42.09,5.13,0,.62.11.97.79,1.17,1.08.32,2.12.75,3.14,1.22.46.21.75.17,1.06-.18,1.15-1.3,2.33-2.57,3.45-3.89.39-.46.7-.59,1.25-.28.8.46,1.63.87,2.47,1.24.48.21.48.48.35.9-.57,1.92-1.1,3.86-1.68,5.78-.12.4-.04.59.29.82.92.65,1.82,1.33,2.69,2.04.4.33.72.33,1.13.05,1.25-.85,2.52-1.66,3.77-2.51.39-.27.66-.33,1.03.07.88.93,1.82,1.8,2.79,2.76-.98,1.27-1.92,2.52-2.9,3.75-1.12,1.41-1.11.95-.24,2.43.46.78.9,1.56,1.3,2.37.27.55.62.73,1.24.59,1.62-.37,3.27-.67,4.89-1.03.4-.09.59-.02.77.38.43.97.9,1.92,1.42,2.84.28.49.19.75-.25,1.04-1.49.97-2.97,1.96-4.46,2.93-.39.25-.52.53-.45,1.01.17,1.11.27,2.24.36,3.36.05.59.3.88.91.94,1.97.19,3.94.4,5.98.62.14,1.3.3,2.59.41,3.89.01.12-.26.34-.43.39-1.38.42-2.75.88-4.16,1.18-1.16.25-1.84.73-1.88,2.01-.02.78-.22,1.56-.39,2.33-.13.54.05.85.53,1.08,1.53.72,3.05,1.46,4.57,2.19.28.13.56.27.84.4-.39,1.34-.76,2.63-1.17,3.91-.04.12-.37.22-.55.21-1.73-.08-3.46-.16-5.19-.29-.56-.04-.89.05-1.12.65-.41,1.07-.92,2.11-1.47,3.11-.24.44-.22.74.11,1.07,1.21,1.24,2.39,2.51,3.63,3.72.44.43.52.75.19,1.26-.49.75-.96,1.53-1.37,2.32-.24.46-.49.52-.96.34-1.87-.71-3.77-1.37-5.64-2.09-.4-.15-.58-.06-.83.25-.72.87-1.47,1.71-2.25,2.52-.37.38-.36.69-.12,1.12.74,1.32,1.43,2.66,2.18,3.97.25.44.2.69-.19,1.02-.99.8-1.94,1.66-2.97,2.55-1.28-1.19-2.54-2.35-3.78-3.52-.82-.78-.8-.78-1.81-.29-.87.42-1.76.82-2.65,1.2-.85.37-.89.43-.78,1.37.2,1.61.37,3.22.58,4.83.06.43-.08.58-.47.72-1,.36-1.99.74-2.95,1.18-.53.25-.76.08-1-.37-.84-1.57-1.71-3.12-2.54-4.69-.23-.43-.49-.55-.96-.52-1.1.07-2.21.09-3.31.07-.66,0-.97.25-1.09.9-.32,1.8-.67,3.59-1.04,5.37-.03.17-.23.44-.35.44-1.28.03-2.56.02-3.95.02-.29-1.51-.65-3.07-.86-4.65-.15-1.17-.57-1.9-1.84-2.04-.75-.08-1.5-.33-2.22-.58-.6-.21-.94,0-1.22.49-.84,1.44-1.69,2.87-2.53,4.31-.16.27-.31.54-.46.8-1.3-.5-2.56-.98-3.8-1.5-.12-.05-.19-.38-.17-.57.22-1.7.45-3.39.73-5.08.1-.61.05-.97-.59-1.27-1.03-.5-2.02-1.1-2.97-1.73-.41-.27-.69-.23-1.02.04-1.34,1.09-2.71,2.16-4.02,3.3-.45.39-.77.5-1.27.1-.7-.56-1.43-1.1-2.2-1.57-.54-.33-.44-.64-.23-1.1.85-1.77,1.65-3.55,2.5-5.32.17-.35.15-.57-.14-.87-.87-.88-1.7-1.8-2.5-2.74-.36-.42-.67-.47-1.16-.25-1.37.63-2.77,1.2-4.14,1.83-.42.19-.67.18-.95-.24-.72-1.06-1.49-2.08-2.21-3.09.84-.85,1.62-1.68,2.44-2.47.53-.52,1.11-1,1.69-1.45.34-.27.42-.53.27-.93-.44-1.18-.87-2.37-1.27-3.56-.17-.5-.48-.63-.97-.6-1.73.07-3.47.11-5.2.16-.13,0-.26,0-.37-.02-.4-1.28-.79-2.52-1.19-3.76-.16-.48.19-.59.5-.72,1.61-.71,3.21-1.43,4.83-2.1.53-.22.69-.51.7-1.06.02-1.08.11-2.16.21-3.24.06-.62-.14-.96-.77-1.12-1.76-.47-3.51-1-5.27-1.47-.4-.11-.49-.28-.45-.66.09-1.03.16-2.07.19-3.1.01-.43.17-.59.58-.63,1.64-.16,3.27-.37,4.91-.5.76-.06,1.16-.36,1.37-1.1.26-.91.6-1.8.96-2.67.22-.54.08-.9-.36-1.21-1.46-1.02-2.91-2.06-4.36-3.08-.16-.12-.32-.23-.55-.4.35-.62.69-1.22,1.01-1.83.23-.44.5-.87.63-1.34.19-.66.56-.66,1.12-.52,1.59.4,3.19.77,4.8,1.1.21.04.57-.11.7-.29.77-1.05,1.47-2.16,2.24-3.21.36-.49.32-.85-.05-1.31-.94-1.18-1.83-2.4-2.75-3.59-.22-.28-.32-.49-.03-.81.88-.99,1.72-2.01,2.64-3.08,1.54,1.04,3.06,2.03,4.53,3.1.5.36.84.34,1.31,0,.88-.63,1.77-1.24,2.7-1.79.6-.36.79-.74.58-1.43-.49-1.59-.9-3.21-1.37-4.81-.1-.36,0-.51.3-.68.96-.54,1.92-1.09,2.84-1.7.49-.32.71-.11.99.25,1.06,1.4,2.15,2.78,3.2,4.19.29.39.58.52,1.08.41,1.05-.24,2.12-.44,3.19-.58.73-.09.99-.42,1-1.14.03-1.93.11-3.87.18-5.85ZM46.21,60.64c4.02,4.33,10.6,2.97,13.6-.12,3.28-3.38,3.23-10.37-.06-13.52-3.74-3.58-9.85-3.76-13.81.36-3.1,3.22-4.37,9.13.27,13.28Z"/>
</svg>