<?xml version="1.0" encoding="UTF-8"?>
<svg id="Warstwa_1" data-name="Warstwa 1" xmlns="http://www.w3.org/2000/svg" viewBox="0 0 99.32 107.75">
  <defs>
    <style>
      .cls-1 {
        fill: none;
      }

      .cls-1, .cls-2 {
        stroke-width: 0px;
      }

      .cls-2 {
        fill: #868686;
        fill-rule: evenodd;
        opacity: .51;
      }
    </style>
  </defs>
  <rect class="cls-1" x="-9.22" y="-9.04" width="117.4" height="124.13"/>
  <path class="cls-2" d="M39.16,12.89c1.36-.35,2.68-.68,4.13-1.05.49,1.1.98,2.17,1.46,3.25.31.71.62,1.43.91,2.15.18.45.45.68.98.68,1.1,0,2.2.05,3.3.14.57.05.85-.19,1.01-.69.52-1.64,1.05-3.27,1.58-4.91.1-.3.19-.6.28-.89,1.38.21,2.71.39,4.04.63.15.03.34.34.35.54.16,1.73.32,3.47.42,5.2.04.63.18.98.88,1.14,1.11.25,2.21.63,3.27,1.04.48.18.77.12,1.06-.25,1.09-1.39,2.2-2.76,3.25-4.17.37-.5.67-.64,1.25-.36.84.41,1.71.78,2.59,1.1.5.18.52.46.42.89-.45,1.99-.87,3.99-1.33,5.97-.1.42,0,.6.35.82.98.6,1.93,1.24,2.86,1.9.43.3.75.29,1.15-.02,1.21-.94,2.45-1.84,3.66-2.79.38-.3.65-.38,1.05,0,.95.88,1.96,1.71,3.02,2.62-.91,1.35-1.79,2.68-2.7,3.99-1.05,1.5-1.07,1.03-.09,2.49.51.76,1.01,1.53,1.47,2.32.31.54.68.7,1.3.51,1.63-.48,3.27-.89,4.9-1.36.4-.11.6-.05.8.34.5.95,1.04,1.89,1.63,2.79.32.48.24.75-.19,1.07-1.45,1.08-2.89,2.19-4.34,3.26-.38.28-.49.57-.39,1.05.24,1.12.42,2.25.59,3.39.09.59.36.87.98.89,2.01.06,4.03.16,6.11.24.23,1.31.47,2.61.67,3.92.02.12-.24.36-.41.43-1.37.51-2.74,1.07-4.15,1.46-1.16.33-1.82.86-1.78,2.16.03.79-.12,1.6-.25,2.39-.09.56.11.86.6,1.06,1.6.64,3.19,1.28,4.79,1.92.29.12.59.23.88.35-.31,1.38-.6,2.72-.93,4.05-.03.13-.36.25-.55.25-1.76.03-3.53.06-5.29.05-.57,0-.9.11-1.09.73-.35,1.11-.8,2.2-1.29,3.26-.22.47-.17.76.18,1.08,1.31,1.18,2.59,2.4,3.93,3.54.48.41.58.73.27,1.27-.45.8-.87,1.61-1.24,2.45-.22.49-.47.56-.95.41-1.95-.6-3.91-1.15-5.86-1.75-.42-.13-.59-.02-.83.31-.67.93-1.38,1.83-2.12,2.7-.35.41-.33.73-.05,1.15.84,1.29,1.62,2.6,2.47,3.89.29.43.25.69-.13,1.05-.95.88-1.86,1.81-2.85,2.78-1.38-1.13-2.73-2.22-4.07-3.33-.89-.74-.87-.74-1.86-.18-.86.48-1.73.94-2.61,1.39-.84.43-.88.49-.7,1.44.3,1.62.58,3.25.9,4.87.09.43-.04.59-.43.76-.99.43-1.97.88-2.91,1.39-.52.29-.77.13-1.04-.31-.95-1.54-1.94-3.05-2.88-4.6-.26-.42-.53-.52-1.01-.46-1.11.14-2.24.23-3.36.29-.67.03-.97.32-1.05.98-.21,1.84-.45,3.69-.71,5.52-.02.18-.2.46-.33.47-1.3.12-2.6.18-4.01.27-.39-1.52-.86-3.07-1.17-4.67-.23-1.18-.7-1.89-2-1.95-.77-.03-1.54-.24-2.29-.44-.62-.17-.95.06-1.21.58-.76,1.52-1.53,3.03-2.29,4.54-.14.28-.28.57-.42.84-1.35-.43-2.66-.83-3.96-1.28-.12-.04-.22-.37-.21-.56.12-1.74.23-3.47.41-5.2.06-.63-.02-.99-.68-1.26-1.08-.44-2.12-.98-3.13-1.56-.43-.25-.72-.18-1.03.1-1.29,1.2-2.61,2.37-3.87,3.61-.44.43-.75.55-1.28.18-.75-.52-1.52-1.03-2.33-1.45-.57-.3-.49-.62-.3-1.1.75-1.85,1.45-3.71,2.19-5.56.15-.37.12-.58-.2-.87-.94-.84-1.84-1.72-2.72-2.62-.39-.4-.71-.43-1.2-.18-1.35.73-2.73,1.4-4.09,2.12-.41.22-.67.22-.98-.18-.8-1.03-1.64-2.02-2.44-2.99.79-.92,1.53-1.81,2.31-2.67.51-.56,1.06-1.08,1.62-1.59.33-.29.39-.57.21-.96-.52-1.17-1.04-2.35-1.52-3.54-.2-.5-.53-.6-1.03-.55-1.76.18-3.51.34-5.27.5-.13.01-.27,0-.37,0-.49-1.27-.96-2.51-1.45-3.74-.19-.48.16-.61.46-.77,1.59-.82,3.17-1.66,4.77-2.44.52-.25.66-.57.64-1.12-.05-1.1-.03-2.2,0-3.3.02-.63-.21-.96-.85-1.09-1.82-.36-3.63-.79-5.45-1.15-.41-.08-.51-.25-.5-.64.02-1.05.03-2.11,0-3.16-.02-.44.14-.61.55-.68,1.65-.27,3.3-.59,4.95-.82.77-.11,1.16-.45,1.32-1.21.2-.94.49-1.86.8-2.77.19-.57.03-.91-.45-1.21-1.54-.94-3.08-1.9-4.62-2.85-.17-.11-.34-.22-.58-.37.31-.65.62-1.28.91-1.92.21-.46.45-.92.55-1.4.15-.68.52-.7,1.1-.6,1.64.31,3.29.57,4.95.81.22.03.57-.15.69-.34.71-1.12,1.35-2.29,2.07-3.41.34-.52.26-.89-.13-1.33-1.03-1.14-2.01-2.32-3.03-3.47-.24-.27-.35-.48-.09-.82.82-1.06,1.62-2.15,2.48-3.3,1.63.96,3.24,1.87,4.8,2.85.53.33.88.29,1.33-.08.85-.69,1.72-1.38,2.63-1.99.59-.4.75-.8.49-1.49-.6-1.58-1.12-3.2-1.7-4.79-.13-.36-.04-.51.26-.71.94-.61,1.88-1.23,2.78-1.91.47-.36.72-.16,1.02.19,1.17,1.35,2.36,2.68,3.52,4.04.32.38.62.49,1.13.34,1.05-.32,2.12-.59,3.2-.8.73-.14.98-.5.94-1.22-.1-1.96-.14-3.93-.2-5.95ZM43.31,61.09c4.36,4.13,10.96,2.32,13.8-1,3.11-3.65,2.61-10.74-.94-13.73-4.03-3.4-10.24-3.18-14,1.26-2.94,3.47-3.85,9.55,1.14,13.47Z"/>
</svg>