<?xml version="1.0" encoding="UTF-8"?>
<svg id="Warstwa_1" data-name="Warstwa 1" xmlns="http://www.w3.org/2000/svg" viewBox="0 0 99.32 107.75">
  <defs>
    <style>
      .cls-1 {
        fill: #f08a10;
        fill-rule: evenodd;
        opacity: .31;
      }

      .cls-1, .cls-2 {
        stroke-width: 0px;
      }

      .cls-2 {
        fill: none;
      }
    </style>
  </defs>
  <rect class="cls-2" x="-9.22" y="-9.04" width="117.4" height="124.13"/>
  <path class="cls-1" d="M84.46,80.81c-.92,1.06-1.81,2.09-2.8,3.23-.93-.5-1.96-1.05-2.97-1.6-.74-.41-1.46-.87-2.23-1.22-.25-.12-.68-.08-.92.07-.93.59-1.79,1.28-2.72,1.87-.55.35-.66.75-.45,1.33.58,1.59,1.15,3.19,1.72,4.79.1.28.2.56.34.92-.58.28-1.15.55-1.71.84-.57.3-1.15.58-1.67.95-.41.29-.63.17-.91-.15-1.19-1.34-2.39-2.65-3.58-3.99-.31-.35-.57-.47-1.05-.26-1.12.47-2.26.89-3.42,1.24-.5.15-.67.4-.68.86-.02,1.76-.06,3.53-.04,5.29,0,.57-.1.89-.71,1.02-.94.2-1.88.42-2.79.73-.59.2-.71-.13-.89-.52-.85-1.83-1.73-3.64-2.56-5.48-.18-.39-.38-.46-.79-.43-1.28.1-2.56.15-3.84.17-.47,0-.7.19-.82.63-.41,1.48-.87,2.95-1.27,4.43-.14.52-.32.77-.93.69-1.11-.15-2.23-.22-3.35-.26-.46-.02-.58-.18-.59-.6-.05-1.72-.16-3.44-.19-5.15,0-.51-.2-.74-.64-.89-1.17-.41-2.33-.83-3.49-1.28-.48-.18-.8-.1-1.12.32-1.07,1.4-2.18,2.77-3.26,4.18-.23.3-.4.33-.74.17-1-.46-2-.91-3.03-1.29-.55-.2-.63-.48-.47-.98.52-1.73,1-3.48,1.53-5.21.14-.47.05-.75-.32-1.07-.81-.71-1.58-1.47-2.35-2.21-.75-.71-.8-.72-1.68-.12-1.59,1.08-3.17,2.17-4.82,3.3-.97-.92-1.94-1.82-2.88-2.75-.09-.09-.03-.43.07-.59.8-1.23,1.56-2.49,2.46-3.65.74-.95.95-1.78.14-2.79-.48-.6-.84-1.32-1.18-2.01-.28-.56-.66-.69-1.23-.54-1.68.46-3.37.89-5.05,1.34-.26.07-.53.14-.78.21-.58-1.3-1.14-2.54-1.67-3.8-.05-.12.13-.42.28-.53,1.34-1.04,2.68-2.07,4.05-3.07.4-.3.57-.54.4-1.07-.4-1.22-.73-2.46-1.04-3.7-.14-.58-.44-.77-1-.79-1.53-.05-3.07-.14-4.6-.19-.44-.01-.65-.13-.72-.6-.19-1.31-.44-2.61-.67-3.98,1.86-.53,3.65-1.07,5.47-1.55.52-.14.71-.39.76-.88.11-1.21.23-2.42.4-3.62.07-.55-.11-.85-.6-1.07-1.6-.7-3.17-1.43-4.77-2.13-.37-.16-.45-.33-.37-.72.21-1.08.4-2.17.52-3.26.06-.55.3-.68.8-.66,1.78.09,3.57.13,5.36.23.57.03.86-.16,1.11-.67.49-.98,1.05-1.93,1.63-2.87.33-.54.29-.94-.21-1.37-1.4-1.22-2.77-2.47-4.17-3.69-.27-.23-.36-.4-.16-.74.55-.92,1.09-1.86,1.59-2.81.2-.39.42-.47.81-.32,1.61.59,3.24,1.16,4.85,1.76.58.22,1.01.2,1.46-.3.69-.76,1.45-1.47,2.22-2.16.45-.4.49-.77.21-1.26-.98-1.76-1.94-3.53-2.94-5.37.52-.37,1.04-.72,1.55-1.1.51-.38,1.04-.76,1.5-1.2.32-.3.54-.31.87-.03,1.36,1.12,2.76,2.2,4.1,3.34.45.38.79.44,1.32.11.96-.61,1.97-1.17,3-1.66.48-.23.67-.48.59-.99-.26-1.72-.48-3.45-.78-5.16-.11-.63-.04-.98.6-1.21.88-.32,1.74-.7,2.58-1.12.5-.25.69-.01.93.34,1.15,1.71,2.3,3.42,3.48,5.12.11.16.41.31.58.28,1.21-.25,2.4-.58,3.62-.82.48-.1.64-.35.68-.79.16-1.55.36-3.09.5-4.65.05-.51.22-.7.74-.74,1.3-.09,2.59-.25,3.97-.39.38,1.76.76,3.48,1.11,5.2.22,1.07.2,1.05,1.27,1.22,1,.16,1.99.33,2.97.57.69.17,1.1.02,1.43-.64.75-1.5,1.58-2.95,2.35-4.43.2-.39.41-.43.81-.32,1.04.28,2.09.55,3.15.73.59.1.68.38.62.89-.21,1.77-.39,3.55-.61,5.33-.06.5.06.79.51,1.06.91.54,1.77,1.15,2.64,1.74.91.61.93.62,1.73-.16,1.3-1.26,2.59-2.53,3.89-3.79.08-.08.17-.15.29-.26,1.15.76,2.3,1.51,3.54,2.32-.48,1.11-.94,2.2-1.41,3.28-.32.73-.66,1.46-1,2.19-.18.39-.15.71.16,1.06.73.82,1.45,1.66,2.12,2.53.36.46.72.56,1.24.32,1.56-.73,3.12-1.44,4.69-2.15.27-.12.54-.25.9-.42.27.46.52.91.8,1.34.41.64.81,1.28,1.27,1.88.27.35.26.57-.03.88-1.21,1.28-2.39,2.59-3.62,3.85-.42.43-.48.75-.19,1.3.56,1.05,1.06,2.14,1.5,3.24.19.48.49.55.9.52,1.76-.13,3.52-.23,5.27-.41.58-.06.89.06,1.07.63.28.92.61,1.83.97,2.72.19.46.03.65-.35.86-1.79,1.02-3.58,2.05-5.35,3.11-.18.11-.38.41-.36.6.14,1.2.38,2.4.52,3.6.06.5.27.71.75.8,1.53.28,3.05.62,4.58.89.47.08.65.26.65.76-.01,1.3.04,2.61.06,3.99-1.21.18-2.4.38-3.6.54-.73.1-1.47.11-2.19.24-.25.05-.59.28-.66.51-.4,1.29-.71,2.61-1.09,3.91-.15.53.17.75.53.98,1.44.94,2.87,1.89,4.33,2.81.4.25.36.47.22.84-.36.99-.71,1.99-.97,3.01-.16.6-.42.7-.98.58-1.77-.38-3.55-.7-5.32-1.07-.45-.09-.71.01-.98.38-.68.92-1.4,1.81-2.14,2.69-.41.48-.44.88-.02,1.38,1.28,1.52,2.53,3.08,3.91,4.76ZM75.21,49.81c-.29-.83-.54-1.54-.79-2.24-1.36-3.74-3.22-7.19-6.04-10.05-1.05-1.06-2.18-2.03-3.55-2.66-.65-.3-.9-.21-1.18.43-1.26,2.85-2.51,5.7-3.78,8.54-.22.5-.21.9.12,1.34,1.35,1.76,2.67,3.55,4.04,5.3.18.23.62.4.92.37,2.08-.17,4.15-.41,6.23-.62,1.29-.13,2.59-.26,4.05-.41ZM58.61,31.71c-.66-.13-1.2-.23-1.73-.33-3.82-.68-7.64-.89-11.46,0-1.68.39-3.32.89-4.77,1.87-.76.51-.81.73-.27,1.47,1.83,2.47,3.67,4.92,5.49,7.4.33.45.69.61,1.23.54,2.2-.3,4.41-.57,6.6-.91.29-.04.64-.35.77-.63,1.25-2.73,2.47-5.47,3.69-8.22.16-.35.28-.72.46-1.2ZM34.97,37c-.58.64-1.1,1.2-1.61,1.77-2.64,2.95-4.79,6.19-5.97,10.01-.45,1.45-.78,2.92-.67,4.45.03.53.21.87.84.81,3.17-.26,6.35-.5,9.53-.74.46-.03.76-.22.96-.65.93-2.04,1.88-4.07,2.83-6.1.19-.4.12-.71-.12-1.08-1.67-2.46-3.31-4.95-4.97-7.42-.23-.34-.48-.65-.8-1.07ZM27.5,60.54c.34.94.62,1.68.89,2.43,1.37,3.69,3.21,7.1,6.07,9.85.98.94,2.11,1.75,3.26,2.49.91.58,1.19.41,1.56-.48,1.18-2.83,2.45-5.63,3.63-8.46.13-.31.1-.86-.1-1.12-1.33-1.83-2.71-3.63-4.12-5.4-.18-.23-.63-.39-.93-.36-2.87.27-5.74.58-8.61.88-.49.05-.99.1-1.64.17ZM44.33,78.23c.24.08.34.12.45.14,4.56.96,9.13,1.33,13.67.04,1.33-.37,2.59-1.01,3.83-1.63.8-.4.82-.72.32-1.4-.58-.79-1.19-1.57-1.77-2.36-1.27-1.71-2.51-3.45-3.8-5.14-.2-.26-.65-.5-.96-.47-2.26.24-4.5.55-6.76.83-.43.05-.67.28-.84.68-.72,1.69-1.47,3.36-2.21,5.03-.62,1.4-1.26,2.79-1.93,4.27ZM67.88,72.76c.28-.28.52-.49.71-.74.9-1.13,1.84-2.23,2.67-3.4,2.16-3.02,3.74-6.3,4.29-10,.12-.78.09-1.59.06-2.39-.02-.5-.29-.76-.87-.69-3.14.36-6.29.7-9.43,1.03-.46.05-.76.23-.94.66-.89,2.11-1.8,4.21-2.67,6.32-.09.23,0,.63.16.85,1.61,2.31,3.25,4.6,4.89,6.89.34.48.72.94,1.12,1.46ZM43.98,55.54c.66,3.93,3.78,6.86,7.66,6.49,4.26-.41,7.09-3.58,6.65-7.83-.44-4.2-3.78-6.81-7.91-6.27-4.19.55-6.42,3-6.4,7.61Z"/>
</svg>