<?xml version="1.0" encoding="UTF-8"?>
<svg id="Warstwa_1" data-name="Warstwa 1" xmlns="http://www.w3.org/2000/svg" viewBox="0 0 99.32 107.75">
  <defs>
    <style>
      .cls-1 {
        opacity: .51;
      }

      .cls-2 {
        fill: #868686;
        fill-rule: evenodd;
      }

      .cls-2, .cls-3 {
        stroke-width: 0px;
      }

      .cls-3 {
        fill: none;
      }
    </style>
  </defs>
  <rect class="cls-3" x="-9.22" y="-9.04" width="117.4" height="124.13"/>
  <g class="cls-1">
    <path class="cls-2" d="M36.31,93.97c-1.28-.41-2.52-.8-3.75-1.24-.13-.05-.24-.41-.21-.61.19-1.45.35-2.92.66-4.35.24-1.14.1-1.97-1.04-2.53-.69-.34-1.32-.83-1.93-1.31-.51-.4-.93-.37-1.4.04-1.32,1.14-2.66,2.25-3.99,3.38-.19.16-.38.32-.63.54-.2-.18-.37-.34-.55-.5-.77-.69-1.52-1.4-2.32-2.04-.34-.27-.4-.48-.2-.85.79-1.5,1.55-3.01,2.36-4.5.25-.46.23-.74-.14-1.13-.86-.92-1.68-1.88-2.48-2.85-.38-.48-.75-.54-1.3-.3-1.4.62-2.83,1.19-4.24,1.8-.33.14-.56.21-.81-.16-.76-1.12-1.54-2.21-2.37-3.39,1.43-1.26,2.81-2.52,4.25-3.72.44-.36.5-.68.32-1.18-.41-1.12-.81-2.24-1.17-3.38-.17-.55-.48-.76-1.05-.74-1.74.06-3.48.07-5.22.12-.37.01-.51-.1-.6-.46-.27-1.07-.56-2.13-.92-3.17-.2-.55-.03-.78.46-.98,1.65-.68,3.28-1.41,4.94-2.08.5-.21.67-.49.69-1.03.03-1.1.12-2.2.24-3.29.08-.67-.15-1.01-.8-1.19-1.92-.53-3.82-1.11-5.79-1.69.09-1.41.19-2.79.29-4.27,1.4-.14,2.74-.27,4.08-.4,3.1-.31,2.25.24,3.34-2.55.18-.47.33-.96.55-1.41.25-.51.1-.86-.33-1.18-1.56-1.12-3.12-2.26-4.68-3.39-.09-.07-.18-.13-.26-.19.63-1.26,1.23-2.48,1.88-3.69.06-.12.4-.16.59-.12,1.72.4,3.44.79,5.14,1.24.6.16.94.07,1.29-.49.59-.95,1.25-1.86,1.96-2.73.35-.43.42-.75.11-1.2-.98-1.44-1.91-2.91-2.92-4.33-.35-.5-.42-.83.03-1.3.65-.67,1.27-1.38,1.85-2.12.32-.41.58-.37.98-.13,1.77,1.06,3.55,2.11,5.33,3.14.17.1.51.14.65.04.99-.74,1.93-1.55,2.92-2.29.42-.31.45-.62.29-1.06-.52-1.47-1-2.95-1.53-4.41-.17-.45-.09-.69.34-.94,1.13-.64,2.24-1.34,3.44-2.06.98,1.26,1.97,2.48,2.91,3.74.96,1.29.94,1.3,2.51.89.84-.22,1.68-.47,2.53-.64.66-.13.89-.48.91-1.13.05-1.69.17-3.39.23-5.08.02-.41.17-.53.55-.6,1.08-.2,2.16-.41,3.22-.7.56-.15.74.06.9.52.58,1.71,1.18,3.42,1.75,5.14.15.45.37.66.87.71,1.07.11,2.13.29,3.2.45,1.04.16,1.07.15,1.45-.86.68-1.8,1.34-3.6,2.04-5.48,1.31.19,2.62.36,3.93.58.13.02.29.38.3.58.06,1.58.13,3.16.11,4.74-.01.91.23,1.5,1.16,1.81.82.27,1.61.66,2.38,1.07.59.32,1.01.24,1.43-.28,1.07-1.31,2.17-2.61,3.26-3.91.19-.23.38-.45.57-.68,1.21.72,2.39,1.41,3.55,2.14.11.07.14.42.08.6-.51,1.66-1.02,3.33-1.58,4.98-.2.59-.23.96.37,1.38.94.65,1.81,1.4,2.64,2.19.41.39.72.39,1.14.15,1.53-.88,3.08-1.73,4.59-2.64.48-.29.79-.31,1.18.11.65.7,1.33,1.39,2.04,2.04.39.35.32.61.06.98-1.19,1.69-2.36,3.39-3.51,5.1-.11.17-.13.53-.02.69.65,1.03,1.36,2.01,2.01,3.04.26.41.53.49.96.38,1.51-.39,3.02-.74,4.53-1.15.49-.13.74-.05.96.43.54,1.18,1.14,2.34,1.75,3.57-1.36.88-2.66,1.75-4,2.59-1.36.84-1.37.82-1.08,2.43.15.86.32,1.71.43,2.58.07.63.36.9.99.98,1.68.19,3.36.46,5.04.67.42.05.56.2.6.63.09,1.07.22,2.14.41,3.2.11.58-.09.78-.61.9-1.76.43-3.51.89-5.27,1.31-.47.11-.67.33-.77.81-.22,1.12-.5,2.24-.78,3.35-.15.58-.02.95.55,1.21,1.71.78,3.4,1.59,5.09,2.42.17.08.38.38.35.52-.28,1.25-.62,2.48-.97,3.84-1.54-.1-3.14-.12-4.72-.33-1.26-.17-2.09.09-2.58,1.34-.27.7-.68,1.35-1.1,1.98-.35.53-.26.92.16,1.33,1.22,1.21,2.44,2.42,3.65,3.64.21.21.42.42.63.62-.82,1.14-1.61,2.26-2.43,3.35-.08.11-.42.11-.6.04-1.64-.66-3.27-1.32-4.88-2.03-.57-.25-.91-.22-1.34.27-.77.88-1.6,1.7-2.46,2.49-.36.33-.42.61-.24,1.01.72,1.58,1.41,3.18,2.19,4.74.3.59.35.96-.23,1.39-.74.54-1.44,1.14-2.1,1.76-.37.34-.61.32-.97,0-1.25-1.08-2.52-2.13-3.79-3.19-.04-.03-.07-.06-.1-.09-1.17-.95-1.16-.94-2.47-.24-.87.46-1.74.92-2.64,1.33-.45.21-.59.48-.5.97.27,1.51.47,3.03.75,4.54.11.57-.04.81-.59,1-1.19.41-2.35.9-3.48,1.34-.62-1.03-1.24-2.01-1.81-3.02-.38-.68-.67-1.41-1.06-2.08-.13-.22-.48-.45-.71-.44-1.35.08-2.69.24-4.04.34-.51.04-.62.37-.71.78-.38,1.72-.78,3.44-1.17,5.16-.03.13-.07.26-.1.36-1.36.07-2.68.13-4.01.22-.56.03-.55-.38-.61-.73-.29-1.76-.59-3.53-.84-5.29-.07-.51-.29-.74-.78-.88-1.01-.28-2.01-.64-3.01-.97-1.03-.34-1.07-.33-1.63.62-.96,1.64-1.92,3.28-2.93,5.02ZM70.51,41.62c-6.52-11.05-22.12-15.8-34.18-8.18-11.17,7.06-14.38,22.39-7.74,33.45,6.6,11,22.13,15.82,34.19,8.22,11.19-7.06,14.5-22.46,7.73-33.48Z"/>
    <path class="cls-2" d="M31.73,64.99c-5.63-8.78-3.23-22.23,6.44-28.41,10.44-6.66,23.4-2.24,28.93,6.33,6.11,9.47,3.38,22.99-6.19,29.07-10.32,6.57-23.88,2.4-29.18-6.99ZM54.43,62.21c5.26-2.85,5.61-9.68,3.32-13.43-2.5-4.08-9.4-5.81-13.34-3.35-4.49,2.79-6.19,8.78-3.13,13.7,2.42,3.9,7.9,6.6,13.16,3.08Z"/>
  </g>
</svg>