<?xml version="1.0" encoding="UTF-8"?>
<svg id="Warstwa_1" data-name="Warstwa 1" xmlns="http://www.w3.org/2000/svg" viewBox="0 0 99.32 107.75">
  <defs>
    <style>
      .cls-1 {
        fill: #f08a10;
        fill-rule: evenodd;
        opacity: .71;
      }

      .cls-1, .cls-2 {
        stroke-width: 0px;
      }

      .cls-2 {
        fill: none;
      }
    </style>
  </defs>
  <rect class="cls-2" x="-9.22" y="-9.04" width="117.4" height="124.13"/>
  <path class="cls-1" d="M28.65,84.29c-.96-.73-1.91-1.44-2.83-2.19-.1-.08-.1-.42-.02-.58.61-1.21,1.2-2.44,1.9-3.59.55-.9.64-1.63-.16-2.43-.48-.49-.87-1.07-1.22-1.66-.36-.59-.77-.65-1.37-.42-1.45.58-2.92,1.13-4.38,1.69-.21.08-.42.16-.62.24-.64-1.11-1.26-2.16-1.85-3.24-.07-.12.06-.43.19-.56,1.11-1.07,2.22-2.14,3.37-3.17.35-.31.44-.55.24-1.01-.47-1.07-.9-2.15-1.29-3.25-.19-.52-.49-.64-.99-.6-1.39.1-2.79.16-4.18.27-.42.03-.59-.09-.69-.49-.3-1.15-.64-2.28-.99-3.5,1.3-.55,2.57-1.11,3.87-1.61,1.47-.58,1.48-.55,1.49-2.16,0-.75,0-1.5.05-2.25.04-.57-.16-.87-.72-1.05-1.61-.49-3.21-1.04-4.85-1.57.06-.99.13-1.96.17-2.94.05-1.22.03-1.18,1.29-1.23,1.5-.07,3-.19,4.49-.34.21-.02.47-.25.57-.45.45-.94.84-1.91,1.25-2.87.35-.8.34-.86-.39-1.39-1.44-1.04-2.88-2.06-4.37-3.13.48-1.11.95-2.22,1.46-3.31.05-.11.4-.16.58-.12,1.5.35,3.01.7,4.5,1.1.6.16,1.01.06,1.39-.46.52-.71,1.08-1.38,1.68-2.02.42-.45.45-.82.1-1.32-1.01-1.41-1.99-2.84-2.98-4.26-.05-.07-.09-.14-.15-.23.77-.72,1.55-1.41,2.29-2.13.65-.64.62-.63,1.4-.12,1.29.85,2.58,1.68,3.9,2.49.17.11.53.11.7,0,1.03-.67,2.04-1.37,3.03-2.1.17-.13.27-.52.21-.74-.35-1.52-.71-3.05-1.16-4.54-.18-.61-.19-1,.46-1.3.74-.34,1.44-.76,2.12-1.2.39-.25.61-.18.88.16,1.2,1.45,2.41,2.88,3.64,4.3.12.14.4.29.54.24,1.09-.35,2.16-.76,3.25-1.11.39-.13.52-.34.52-.72,0-1.42.03-2.83.01-4.25,0-.48.11-.7.62-.79,1.16-.2,2.32-.47,3.54-.73.53,1.61,1.07,3.17,1.52,4.74.19.65.49.85,1.14.85.94,0,1.87.11,2.81.2.9.09.95.07,1.29-.78.62-1.52,1.24-3.05,1.85-4.55,1.28.14,2.5.26,3.71.44.16.02.36.42.37.64.02,1.63.01,3.25-.02,4.88-.01.51.17.78.64.99.89.4,1.76.87,2.61,1.36.55.32.93.25,1.33-.25,1.12-1.4,2.28-2.76,3.48-4.21,1.06.55,2.14,1.09,3.18,1.67.11.06.15.41.1.58-.41,1.34-.8,2.68-1.3,3.99-.33.87-.3,1.51.5,2.11.63.47,1.18,1.06,1.72,1.64.37.4.72.41,1.16.15,1.47-.88,2.94-1.75,4.41-2.63.11-.06.21-.12.37-.21.54.7,1.06,1.4,1.62,2.06.87,1.02.88,1.01.1,2.07-.8,1.09-1.59,2.19-2.43,3.26-.31.4-.3.68-.02,1.09.59.88,1.15,1.79,1.64,2.73.23.44.48.57.93.49,1.56-.29,3.12-.54,4.67-.87.54-.11.85-.07,1.08.48.33.79.7,1.56,1.11,2.31.22.41.12.61-.23.87-1.51,1.08-2.99,2.19-4.51,3.27-.31.22-.38.38-.27.76.3,1,.56,2.01.78,3.03.1.47.31.66.78.7,1.39.1,2.78.26,4.17.36.44.03.66.15.71.65.1,1.18.28,2.35.43,3.59-1.11.29-2.19.58-3.28.85-.63.15-1.28.23-1.89.42-.22.07-.5.32-.54.54-.23,1.19-.39,2.39-.6,3.58-.08.48.16.68.53.86,1.4.7,2.78,1.43,4.18,2.12.38.19.43.38.32.78-.24.91-.45,1.83-.58,2.75-.08.57-.3.73-.85.67-1.62-.18-3.24-.29-4.85-.46-.43-.04-.68.06-.91.45-.5.87-1.06,1.7-1.6,2.54-.47.72-.47.81.15,1.43,1.17,1.16,2.33,2.32,3.52,3.47.24.23.29.4.1.68-.54.82-1.07,1.64-1.57,2.49-.21.35-.42.38-.76.24-1.42-.61-2.85-1.18-4.26-1.81-.57-.25-.99-.22-1.45.24-.65.65-1.35,1.25-2.07,1.82-.44.34-.45.7-.24,1.14.75,1.54,1.49,3.08,2.24,4.62.05.11.11.22.17.36-.89.6-1.81,1.14-2.63,1.8-.56.46-.86.35-1.33-.1-1.13-1.08-2.32-2.09-3.48-3.14-.25-.22-.45-.26-.77-.09-1.05.55-2.12,1.08-3.2,1.55-.43.19-.42.48-.4.8.14,1.6.28,3.2.47,4.79.07.53-.04.81-.56.98-.81.26-1.62.55-2.4.91-.47.21-.65.05-.88-.33-.95-1.6-1.93-3.17-2.88-4.77-.17-.29-.34-.37-.69-.31-1.13.21-2.26.38-3.4.52-.49.06-.73.24-.81.75-.22,1.38-.5,2.75-.72,4.13-.07.45-.23.63-.72.63-1.18,0-2.36.07-3.62.11-.23-1.49-.46-2.93-.66-4.37-.23-1.62.08-1.32-1.44-1.68-.81-.19-1.62-.39-2.42-.64-.57-.18-.92-.06-1.23.47-.86,1.45-1.78,2.87-2.67,4.28-1.22-.36-2.4-.7-3.57-1.04-.45-.13-.31-.48-.26-.78.28-1.6.56-3.21.87-4.8.09-.45,0-.72-.39-.99-.84-.58-1.65-1.21-2.43-1.86-.48-.39-.85-.38-1.31.02-1.36,1.19-2.75,2.36-4.17,3.57ZM73.77,49.67c-2.24-11.44-14.2-20.26-26.85-17.37-11.72,2.68-19.11,14.86-16.77,26.36,2.33,11.45,14.22,20.28,26.85,17.4,11.73-2.67,19.24-14.87,16.77-26.39Z"/>
</svg>