<?xml version="1.0" encoding="UTF-8"?>
<svg id="Warstwa_1" data-name="Warstwa 1" xmlns="http://www.w3.org/2000/svg" viewBox="0 0 99.32 107.75">
  <defs>
    <style>
      .cls-1 {
        fill: none;
      }

      .cls-1, .cls-2 {
        stroke-width: 0px;
      }

      .cls-2 {
        fill: #f08a10;
        fill-rule: evenodd;
        opacity: .6;
      }
    </style>
  </defs>
  <rect class="cls-1" x="-9.22" y="-9.04" width="117.4" height="124.13"/>
  <path class="cls-2" d="M60.89,94.01c-1.36.2-2.69.39-4.16.6-.37-.97-.78-2.04-1.18-3.11-.29-.78-.53-1.59-.87-2.34-.11-.25-.46-.5-.73-.54-1.07-.16-2.15-.21-3.22-.37-.63-.09-.97.13-1.19.7-.59,1.56-1.2,3.11-1.8,4.66-.1.27-.21.54-.34.9-.61-.16-1.21-.33-1.81-.48-.61-.14-1.23-.31-1.85-.37-.49-.05-.58-.28-.58-.7-.02-1.76-.07-3.51-.09-5.27,0-.46-.12-.71-.61-.87-1.13-.37-2.25-.79-3.34-1.28-.47-.21-.76-.14-1.06.2-1.15,1.3-2.32,2.58-3.43,3.9-.36.43-.65.6-1.18.3-.83-.46-1.67-.9-2.54-1.25-.57-.23-.44-.55-.33-.96.54-1.91,1.06-3.82,1.62-5.72.12-.4.01-.58-.31-.82-1.01-.75-2-1.54-2.96-2.35-.36-.3-.64-.31-1.02-.06-1.26.83-2.54,1.63-3.79,2.47-.44.3-.73.37-1.14-.09-.73-.82-1.52-1.6-2.32-2.35-.33-.31-.31-.5-.05-.83,1.07-1.31,2.1-2.65,3.18-3.95.32-.38.32-.68.1-1.08-.6-1.06-1.2-2.12-1.77-3.19-.24-.45-.53-.59-1.04-.49-1.7.35-3.41.66-5.11,1.01-.36.07-.51-.01-.66-.35-.44-.99-.9-1.97-1.42-2.91-.28-.5-.16-.76.28-1.03,1.5-.95,2.98-1.94,4.49-2.88.41-.25.52-.53.45-1-.15-1.05-.23-2.1-.33-3.16-.1-1.01-.13-1.05-1.17-1.17-1.88-.22-3.75-.43-5.7-.66-.13-1.31-.27-2.6-.37-3.9,0-.12.26-.34.43-.39,1.39-.4,2.76-.85,4.17-1.13,1.16-.23,1.85-.71,1.9-1.98.03-.76.23-1.52.41-2.26.15-.59-.04-.94-.57-1.19-1.54-.74-3.08-1.5-4.61-2.26-.24-.12-.48-.23-.72-.35.41-1.33.79-2.62,1.21-3.9.04-.12.37-.22.55-.21,1.66.09,3.33.19,4.99.32.49.04.77-.03.99-.54.49-1.16,1.04-2.3,1.62-3.42.27-.52.17-.86-.24-1.23-1.11-1.02-2.19-2.08-3.3-3.1-.32-.29-.4-.51-.15-.91.7-1.09,1.35-2.22,2.06-3.39,1.72.8,3.4,1.56,5.05,2.37.47.23.78.17,1.13-.17.86-.83,1.73-1.65,2.62-2.44.41-.36.47-.7.24-1.18-.74-1.54-1.44-3.11-2.17-4.65-.17-.35-.12-.53.19-.78.85-.66,1.69-1.35,2.48-2.09.4-.37.66-.32,1.02.02,1.27,1.21,2.57,2.4,3.83,3.62.4.39.74.43,1.26.22,1-.41,2.03-.76,3.06-1.08.6-.19.82-.51.73-1.15-.26-1.81-.47-3.62-.72-5.43-.05-.35,0-.53.36-.65,1-.33,2.01-.68,2.99-1.06.4-.16.61-.08.81.28.82,1.48,1.66,2.94,2.46,4.43.29.53.62.8,1.28.72,1-.12,2.02-.16,3.04-.18.59,0,.86-.26.97-.8.41-1.94.83-3.87,1.27-5.89.62.06,1.24.14,1.86.18.63.05,1.26.1,1.89.08.43-.02.6.12.67.54.29,1.71.63,3.41.9,5.12.09.58.3.84.91.92,1.11.16,2.22.4,3.3.7.5.14.8.07,1.07-.36.91-1.45,1.87-2.87,2.74-4.34.32-.54.6-.75,1.23-.51.86.33,1.75.6,2.64.83.53.13.52.43.47.85-.25,2.01-.49,4.03-.71,6.04-.02.19.1.5.25.58,1.06.59,2.16,1.12,3.22,1.72.42.24.7.15,1.01-.14,1.12-1.05,2.26-2.07,3.36-3.13.36-.35.61-.38,1.03-.07,1.02.77,2.08,1.48,3.2,2.27-.86,1.55-1.68,3.07-2.53,4.58-.53.93-.53.91.16,1.73.64.76,1.27,1.53,1.84,2.33.41.57.8.72,1.47.44,1.52-.63,3.07-1.17,4.6-1.78.4-.16.58-.06.81.28.59.88,1.2,1.75,1.87,2.57.37.46.26.72-.12,1.06-1.3,1.18-2.58,2.39-3.88,3.57-.36.33-.47.63-.3,1.12.33.98.57,1.99.84,2.99.28,1.04.29,1.06,1.39,1,1.78-.1,3.55-.21,5.33-.31.11,0,.22,0,.38,0,.37,1.3.74,2.6,1.14,4-1.07.52-2.11,1.03-3.16,1.52-.71.34-1.43.66-2.15.98-.39.17-.57.43-.56.89.02,1.08,0,2.16-.05,3.24-.03.58.17.88.72,1.04,1.63.46,3.24.94,4.87,1.42.28.08.56.16.94.26-.09.52-.2,1.01-.27,1.52-.11.74-.23,1.47-.27,2.21-.02.43-.17.59-.59.63-1.72.17-3.44.39-5.17.53-.59.05-.84.25-.98.84-.26,1.14-.59,2.27-.97,3.37-.17.48,0,.72.33.97,1.39,1.04,2.77,2.09,4.18,3.09.47.33.62.62.39,1.16-.38.87-.73,1.75-1.03,2.64-.16.46-.4.5-.81.42-1.99-.4-3.98-.78-5.98-1.14-.2-.04-.55.06-.65.22-.67.99-1.26,2.02-1.93,3.01-.28.41-.25.7.04,1.07.95,1.2,1.87,2.42,2.83,3.62.29.37.32.61,0,.98-.85.96-1.65,1.96-2.52,3-1.02-.64-2.03-1.27-3.02-1.91-.6-.39-1.16-.86-1.78-1.23-.21-.13-.62-.17-.82-.05-1.13.7-2.21,1.48-3.32,2.2-.46.3-.35.67-.24,1.07.47,1.62.91,3.25,1.41,4.87.13.44-.04.58-.38.77-.9.51-1.81,1.02-2.66,1.61-.5.34-.77.25-1.1-.2-1.07-1.42-2.19-2.8-3.26-4.22-.27-.36-.54-.45-.98-.35-1.1.24-2.21.44-3.32.62-.61.1-.89.37-.9,1.01-.03,1.96-.1,3.92-.16,6.05ZM73.98,65.03c.32-.81.59-1.49.85-2.17,1.4-3.65,2.24-7.41,1.98-11.35-.1-1.47-.31-2.91-.93-4.27-.29-.65-.53-.74-1.15-.44-2.77,1.3-5.54,2.62-8.31,3.91-.48.22-.74.53-.77,1.07-.13,2.18-.31,4.35-.41,6.53-.01.29.2.7.44.87,1.65,1.21,3.35,2.37,5.02,3.55,1.05.73,2.09,1.47,3.27,2.3ZM73.29,40.9c-.41-.52-.74-.94-1.08-1.36-2.4-2.96-5.11-5.58-8.52-7.38-1.5-.79-3.04-1.47-4.74-1.68-.9-.11-1.08.02-1.15.92-.23,3.01-.44,6.02-.69,9.03-.04.54.12.9.56,1.19,1.83,1.19,3.64,2.41,5.49,3.57.24.15.7.15.98.03,2.69-1.22,5.36-2.48,8.03-3.73.34-.16.67-.35,1.11-.59ZM52.33,29.61c-.84.1-1.59.18-2.34.28-3.86.49-7.54,1.51-10.88,3.59-1.27.79-2.46,1.67-3.37,2.87-.31.41-.4.78.1,1.14,2.52,1.85,5.04,3.72,7.55,5.59.37.27.71.33,1.13.14,2-.91,4.02-1.81,6.03-2.71.39-.18.55-.45.6-.88.35-2.91.73-5.81,1.09-8.71.05-.39.06-.79.1-1.31ZM31.63,42.28c-.35.92-.63,1.65-.9,2.38-1.35,3.62-2.18,7.34-1.83,11.22.12,1.33.44,2.66.82,3.94.3,1.02.62,1.06,1.47.64,2.7-1.34,5.44-2.6,8.14-3.94.3-.15.62-.57.65-.9.19-2.22.32-4.44.42-6.66.01-.29-.22-.69-.46-.86-2.31-1.65-4.64-3.26-6.97-4.89-.4-.28-.8-.56-1.33-.94ZM32.74,66.26c.13.21.18.31.24.4,2.77,3.64,5.92,6.86,10.13,8.84,1.23.58,2.58.92,3.9,1.26.85.22,1.07-.01,1.14-.84.08-.97.13-1.93.2-2.9.16-2.09.36-4.18.48-6.26.02-.32-.16-.79-.41-.96-1.83-1.28-3.7-2.49-5.55-3.74-.36-.24-.68-.23-1.07-.03-1.62.79-3.25,1.55-4.88,2.31-1.36.64-2.73,1.26-4.18,1.93ZM53.75,77.36c.39-.03.7-.03,1-.09,1.39-.26,2.8-.47,4.18-.81,3.54-.85,6.83-2.27,9.63-4.67.59-.51,1.09-1.13,1.58-1.73.31-.38.27-.75-.2-1.07-2.57-1.76-5.12-3.53-7.67-5.31-.37-.26-.71-.32-1.13-.11-2.02,1-4.05,1.96-6.05,2.98-.22.11-.41.47-.43.73-.29,2.75-.55,5.51-.81,8.27-.05.58-.07,1.16-.11,1.81ZM47.09,49.17c-2.04,3.34-1.61,7.53,1.51,9.76,3.42,2.44,7.57,1.9,9.98-1.53,2.38-3.4,1.58-7.5-1.84-9.75-3.46-2.29-6.7-1.91-9.65,1.53Z"/>
</svg>