<?xml version="1.0" encoding="UTF-8"?>
<svg id="Warstwa_1" data-name="Warstwa 1" xmlns="http://www.w3.org/2000/svg" viewBox="0 0 99.32 107.75">
  <defs>
    <style>
      .cls-1 {
        fill: #fff;
      }

      .cls-1, .cls-2 {
        stroke-width: 0px;
      }

      .cls-2 {
        fill: #868686;
        fill-rule: evenodd;
        opacity: .51;
      }
    </style>
  </defs>
  <rect class="cls-1" x="-9.22" y="-9.04" width="117.4" height="124.13"/>
  <path class="cls-2" d="M52.94,14.18c1.38.03,2.72.07,4.19.1.17,1.17.35,2.32.51,3.47.11.76.2,1.52.29,2.28.05.47.24.76.74.9,1.04.29,2.07.63,3.09,1.01.53.2.85.05,1.14-.39.93-1.41,1.87-2.82,2.81-4.23.17-.26.34-.52.5-.77,1.25.56,2.46,1.1,3.66,1.68.13.07.23.42.19.61-.31,1.69-.62,3.37-.99,5.04-.13.6-.09.97.53,1.31.99.54,1.92,1.18,2.82,1.85.41.3.7.32,1.08.04,1.4-1.03,2.82-2.02,4.19-3.09.48-.37.81-.43,1.28-.01.69.61,1.42,1.19,2.16,1.73.43.31.37.57.16.96-.96,1.77-1.88,3.55-2.86,5.3-.2.37-.17.56.11.87.76.83,1.5,1.69,2.2,2.57.32.4.63.48,1.1.29,1.4-.57,2.81-1.09,4.21-1.67.44-.18.71-.18,1,.28.67,1.09,1.4,2.14,2.16,3.28-1.22,1.03-2.41,2.06-3.62,3.06-1.4,1.14-1.29.69-.75,2.33.28.86.55,1.72.77,2.59.15.6.46.84,1.09.83,1.67-.02,3.34.03,5.01.02.41,0,.58.11.67.53.22,1.04.48,2.07.8,3.08.17.54.03.78-.46.96-1.67.63-3.32,1.3-4.98,1.93-.44.16-.62.41-.65.89-.07,1.12-.2,2.25-.35,3.36-.07.59.11.92.69,1.11,1.89.6,3.77,1.22,5.73,1.86-.13,1.31-.25,2.6-.41,3.9-.02.12-.32.28-.51.3-1.44.12-2.88.28-4.32.28-1.19,0-1.96.33-2.26,1.57-.19.76-.54,1.49-.87,2.2-.24.5-.13.85.29,1.17,1.34,1.03,2.68,2.07,4.02,3.1.25.19.5.38.74.57-.67,1.23-1.3,2.42-1.97,3.58-.06.11-.41.14-.59.09-1.68-.44-3.36-.88-5.02-1.37-.54-.16-.88-.14-1.23.4-.63.96-1.34,1.87-2.09,2.74-.33.39-.37.68-.12,1.07.92,1.47,1.81,2.96,2.78,4.4.34.51.35.84-.08,1.27-.64.63-1.26,1.29-1.83,1.99-.33.4-.59.41-1.01.14-1.69-1.09-3.4-2.13-5.09-3.22-.36-.24-.55-.18-.87.07-.88.7-1.8,1.37-2.73,1.99-.44.3-.5.6-.36,1.07.45,1.44.84,2.9,1.3,4.34.16.49.05.72-.4.96-1.14.58-2.25,1.22-3.44,1.87-1.01-1.44-2-2.83-2.96-4.24-.64-.94-.63-.93-1.71-.66-.94.23-1.89.43-2.84.62-.91.18-.96.23-1.05,1.18-.14,1.62-.32,3.23-.44,4.85-.03.43-.2.55-.61.61-1.05.14-2.1.3-3.13.54-.57.13-.76-.08-.9-.57-.49-1.71-1.02-3.41-1.5-5.13-.13-.47-.36-.64-.84-.71-1.09-.17-2.18-.38-3.25-.63-.65-.15-1.01.04-1.25.65-.69,1.69-1.41,3.37-2.14,5.04-.07.16-.31.39-.44.36-1.26-.24-2.51-.52-3.87-.81.04-1.54,0-3.14.14-4.73.1-1.18-.16-1.97-1.37-2.38-.72-.24-1.4-.64-2.05-1.03-.54-.33-.92-.2-1.3.22-1.12,1.23-2.25,2.46-3.38,3.69-.21.23-.42.46-.62.69-1.17-.77-2.3-1.5-3.41-2.26-.11-.07-.11-.42-.05-.59.57-1.61,1.15-3.23,1.77-4.82.23-.58.25-.94-.31-1.37-.91-.7-1.74-1.5-2.55-2.32-.34-.35-.63-.37-1-.18-1.55.79-3.1,1.55-4.62,2.39-.53.29-.86.32-1.26-.17-.57-.7-1.17-1.38-1.82-1.99-.46-.44-.3-.72,0-1.12,1.2-1.55,2.36-3.13,3.56-4.68.24-.31.27-.52.04-.88-.66-1.05-1.29-2.12-1.88-3.21-.26-.49-.56-.6-1.09-.49-1.47.33-2.96.6-4.44.92-.45.1-.69.03-.88-.43-.48-1.19-1.02-2.35-1.51-3.49,1-.66,1.94-1.31,2.9-1.91.63-.39,1.29-.74,1.96-1.07.39-.19.52-.43.46-.85-.18-1.25-.36-2.5-.5-3.76-.06-.53-.34-.71-.83-.8-1.71-.29-3.42-.62-5.13-.93-.13-.02-.26-.06-.35-.09-.13-1.34-.24-2.64-.38-3.93-.05-.5.31-.54.64-.6,1.72-.36,3.44-.73,5.17-1.04.56-.1.78-.36.91-.9.24-1.05.56-2.09.88-3.12.19-.59.06-.96-.51-1.26-1.63-.83-3.23-1.72-4.85-2.55-.37-.19-.42-.37-.3-.74.3-.99.59-1.99.83-2.99.1-.42.29-.54.7-.5,1.64.19,3.28.32,4.91.54.76.1,1.21-.11,1.57-.79.44-.84.96-1.63,1.5-2.41.34-.49.27-.86-.1-1.26-1.21-1.31-2.41-2.62-3.62-3.93-.14-.15-.27-.3-.46-.51.47-.54.93-1.05,1.37-1.58.32-.38.67-.75.9-1.18.33-.61.68-.53,1.2-.27,1.48.73,2.96,1.42,4.47,2.09.2.09.58.01.75-.13.98-.87,1.89-1.81,2.87-2.67.46-.4.49-.77.23-1.29-.67-1.35-1.28-2.73-1.94-4.09-.16-.33-.21-.55.14-.8,1.06-.79,2.11-1.61,3.23-2.47,1.29,1.34,2.57,2.63,3.79,3.98.41.46.75.51,1.28.28.99-.43,2-.85,3.02-1.19.67-.22.93-.56.86-1.28-.15-1.66-.21-3.33-.33-4.99-.03-.37.1-.5.44-.6,1.05-.32,2.11-.66,3.14-1.06.54-.21.72.04.91.45.75,1.59,1.52,3.17,2.26,4.77.2.45.46.63.98.63,1.08-.02,2.17.01,3.25.1.73.06,1.06-.21,1.22-.91.43-1.89.92-3.76,1.4-5.69ZM44,60.95c3.03,5.08,9.76,5.13,13.34,2.74,3.92-2.62,5.33-9.48,2.77-13.25-2.91-4.29-8.85-5.75-13.59-2.55-3.71,2.5-6.2,8.02-2.52,13.06Z"/>
</svg>