<?xml version="1.0" encoding="UTF-8"?>
<svg id="Warstwa_1" data-name="Warstwa 1" xmlns="http://www.w3.org/2000/svg" viewBox="0 0 99.32 107.75">
  <defs>
    <style>
      .cls-1 {
        fill: #fff;
      }

      .cls-1, .cls-2 {
        stroke-width: 0px;
      }

      .cls-2 {
        fill: #f08a10;
        fill-rule: evenodd;
        opacity: .6;
      }
    </style>
  </defs>
  <rect class="cls-1" x="-9.22" y="-9.04" width="117.4" height="124.13"/>
  <path class="cls-2" d="M65.38,16.88c-.23,1.79-.45,3.54-.69,5.28-.15,1.07-.16,1.05.8,1.57.91.49,1.8,1.01,2.67,1.56.55.35.96.34,1.45-.13,1.23-1.17,2.51-2.28,3.74-3.44.33-.31.53-.26.87-.02.87.6,1.74,1.19,2.66,1.7.52.29.6.57.34,1.09-.8,1.6-1.55,3.22-2.35,4.82-.22.45-.2.77.13,1.17.71.87,1.38,1.78,2.02,2.69.36.52.74.65,1.33.37,1.72-.82,3.45-1.6,5.18-2.39.1-.05.21-.08.36-.14.84,1.1,1.67,2.19,2.56,3.37-.82.89-1.62,1.76-2.43,2.62-.55.58-1.11,1.16-1.67,1.73-.3.31-.38.62-.2,1.05.42,1.02.81,2.05,1.15,3.09.19.56.5.76,1.07.71,1.71-.17,3.42-.31,5.14-.47.29-.03.59-.06.97-.1.13.62.24,1.22.38,1.81.15.65.29,1.3.51,1.93.15.42.04.62-.33.81-1.57.8-3.12,1.65-4.7,2.42-.55.27-.7.56-.61,1.16.18,1.15.29,2.32.33,3.49.02.53.24.74.68.86,1.7.46,3.4.95,5.11,1.37.57.14.81.36.79.96-.04.96-.04,1.92,0,2.88.02.5-.2.62-.62.69-2.03.36-4.06.74-6.08,1.15-.21.04-.49.26-.53.45-.27,1.18-.44,2.39-.71,3.57-.11.5.03.76.44,1,1.33.77,2.63,1.58,3.97,2.33.47.27.58.52.39,1.04-.45,1.2-.82,2.42-1.25,3.71-1.21-.23-2.4-.45-3.58-.69-.72-.15-1.42-.38-2.14-.5-.25-.04-.65.08-.79.26-.81,1.08-1.54,2.22-2.33,3.32-.32.45-.08.76.18,1.1,1.05,1.36,2.08,2.74,3.14,4.09.25.31.23.51-.02.82-.69.83-1.36,1.67-1.97,2.56-.35.51-.64.51-1.12.22-1.54-.94-3.11-1.84-4.66-2.79-.39-.24-.67-.22-1.05.04-.95.64-1.93,1.24-2.92,1.82-.55.32-.7.69-.47,1.3.7,1.86,1.36,3.75,2.08,5.76-1.21.65-2.43,1.31-3.79,2.04-.63-.69-1.41-1.55-2.18-2.41-.57-.63-1.09-1.31-1.7-1.9-.2-.19-.62-.3-.89-.24-1.07.24-2.12.61-3.19.85-.64.15-.87.49-.86,1.1.02,1.7.02,3.39.03,5.09,0,.3,0,.59.01.97-.78.09-1.55.17-2.31.27-.48.07-.97.11-1.42.27-.55.2-.72-.05-.9-.5-.67-1.66-1.37-3.3-2.04-4.95-.16-.38-.34-.55-.81-.53-1.28.06-2.56.01-3.84.06-.25.01-.61.22-.71.44-.48,1.11-.9,2.25-1.32,3.39-.24.64-.39,1.32-.67,1.95-.1.22-.46.47-.69.46-1.1-.04-2.19-.14-3.28-.28-.17-.02-.4-.38-.42-.6-.17-1.57-.3-3.15-.45-4.72-.03-.36-.13-.73-.12-1.09.01-.69-.33-.95-.99-1.1-1.13-.27-2.24-.65-3.35-1.02-.45-.15-.72-.05-.99.33-.9,1.27-1.83,2.52-2.72,3.8-.28.4-.51.55-1.01.3-1.02-.51-2.07-.97-3.14-1.39-.44-.17-.47-.37-.35-.77.52-1.64,1-3.29,1.54-4.92.16-.49.04-.76-.32-1.05-.94-.76-1.89-1.53-2.8-2.33-.44-.38-.8-.39-1.28-.07-1.57,1.03-3.16,2.02-4.74,3.02-1.05-.94-2.09-1.84-3.07-2.79-.12-.11-.01-.6.13-.81,1.02-1.47,2.06-2.92,3.13-4.36.33-.44.33-.76.06-1.23-.54-.95-1.04-1.94-1.5-2.94-.28-.6-.65-.79-1.3-.61-1.92.54-3.85,1.03-5.84,1.56-.6-1.17-1.21-2.32-1.77-3.5-.06-.13.09-.47.24-.59,1.16-.9,2.3-1.83,3.53-2.62,1.01-.65,1.5-1.35,1.06-2.59-.26-.72-.35-1.52-.45-2.29-.08-.62-.4-.87-.98-.91-1.74-.13-3.47-.28-5.21-.42-.27-.02-.54-.04-.8-.06-.11-1.42-.23-2.78-.3-4.15,0-.13.27-.35.45-.41,1.61-.53,3.22-1.06,4.84-1.54.48-.14.71-.32.73-.88.03-1.28.13-2.56.26-3.84.06-.59-.17-.88-.69-1.08-1.43-.56-2.84-1.16-4.28-1.71-.42-.16-.56-.34-.47-.81.25-1.28.45-2.57.68-3.93,1.27.05,2.52.08,3.77.14.66.03,1.33.08,1.99.18.43.06.69-.08.87-.46.56-1.18,1.11-2.36,1.7-3.53.26-.52,0-.81-.33-1.13-1.26-1.2-2.52-2.4-3.78-3.61-.1-.09-.18-.2-.26-.28.65-1.22,1.26-2.43,1.94-3.59.09-.15.57-.19.81-.1,1.67.63,3.33,1.3,4.98,1.98.48.2.82.17,1.22-.21.81-.78,1.67-1.5,2.54-2.21.5-.4.57-.79.25-1.36-.92-1.61-1.79-3.25-2.7-4.87-.18-.32-.19-.5.1-.75.83-.69,1.65-1.39,2.43-2.12.33-.3.56-.29.87-.02,1.32,1.1,2.67,2.17,3.98,3.28.48.4.89.51,1.48.2.93-.5,1.9-.93,2.87-1.32.55-.23.63-.59.55-1.09-.31-1.9-.62-3.8-.93-5.7-.01-.09-.03-.18-.05-.34.73-.2,1.45-.4,2.17-.61.46-.14.94-.26,1.36-.48.56-.3.79-.07,1.07.39.9,1.52,1.85,3,2.76,4.51.25.41.52.46.96.38,1.24-.24,2.48-.45,3.73-.6.5-.06.59-.37.67-.73.35-1.71.71-3.41.99-5.13.1-.64.31-.92.98-.93.94-.01,1.88-.08,2.81-.2.5-.06.63.16.74.57.51,2,1.03,4,1.57,5.99.06.21.29.49.48.51,1.22.17,2.46.26,3.68.43.49.07.71-.12.9-.52.66-1.39,1.36-2.75,1.99-4.15.24-.53.5-.65,1.05-.49,1.23.35,2.48.62,3.8.94ZM19.22,49.36c-.1,1.09-.27,2.23-.28,3.37,0,2.09,1.4,4.71,4.16,4.8,1.04.03,2.11.03,3.13-.14,1.81-.3,3.6-.76,5.18-1.74,3.04-1.89,3.73-4.77,1.82-7.78-1.65-2.6-4.1-4.3-6.97-5.33-1.33-.48-2.7-.26-3.78.78-1.71,1.65-2.43,3.84-3.27,6.04ZM80.17,63.92c.03-1.3.23-2.94.05-4.53-.25-2.11-1.82-4.22-4.53-4.13-1.04.04-2.1.15-3.11.41-1.98.51-3.92,1.17-5.5,2.55-1.16,1.01-1.99,2.25-1.98,3.85.01,1.36.47,2.61,1.33,3.69,1.67,2.12,3.87,3.51,6.36,4.41,2.69.98,4.43.26,5.74-2.3.59-1.16,1.01-2.4,1.65-3.95ZM49.92,35.71c.42-1.77.58-3.64.39-5.52-.27-2.69-1.6-4.18-3.93-4.34-3.19-.21-6.21.43-8.92,2.19-1.75,1.14-3.18,3.65-1.81,6.04.53.92,1.11,1.85,1.82,2.63,1.38,1.53,2.88,2.99,4.87,3.73,1.63.6,3.25.72,4.79-.36,1.51-1.06,2.3-2.57,2.79-4.37ZM60.08,36.99c.06.03.13.06.19.09-.41,1.68-.77,3.36-.48,5.1.26,1.52.86,2.88,2.23,3.71,1.16.7,2.47.98,3.83.81,2.84-.34,5.29-1.59,7.48-3.36,1.55-1.26,2.02-3.15,1.14-4.94-1.43-2.92-3.54-5.24-6.49-6.68-1.96-.95-4.75-.85-6.11,1.53-.69,1.2-1.2,2.49-1.8,3.74ZM31.74,81.53c2.42.57,4.2.17,5.42-1.69.55-.85,1.06-1.77,1.4-2.73.7-1.94,1.29-3.94,1.03-6.05-.2-1.57-.76-2.99-2.19-3.87-1.14-.71-2.4-1-3.75-.9-2.68.21-5.08,1.22-7.22,2.78-2.24,1.63-2.65,3.45-1.32,5.87.74,1.33,1.6,2.64,2.63,3.76,1.18,1.3,2.61,2.36,4,2.82ZM49.16,78.76c-.05.87-.21,2.31-.2,3.74.03,2.67,1.32,4.35,3.58,4.63,3.28.41,6.41-.13,9.25-1.88,1.86-1.15,3.19-3.6,1.96-5.93-.5-.94-1.05-1.88-1.73-2.7-1.31-1.57-2.73-3.06-4.67-3.87-1.65-.69-3.3-.87-4.92.21-1.87,1.26-2.65,3.14-3.28,5.79ZM56.95,58.59c.93-3.38-1.34-8.49-5.87-9.52-3.36-.76-7.99,2.09-8.74,5.82-.78,3.89,1.08,7.95,5.61,8.96,4.13.91,7.81-1.22,9-5.26Z"/>
</svg>