<?xml version="1.0" encoding="UTF-8"?>
<svg id="Warstwa_1" data-name="Warstwa 1" xmlns="http://www.w3.org/2000/svg" viewBox="0 0 99.32 107.75">
  <defs>
    <style>
      .cls-1 {
        fill: #f08a10;
        fill-rule: evenodd;
      }

      .cls-1, .cls-2 {
        stroke-width: 0px;
      }

      .cls-2 {
        fill: #fff;
      }

      .cls-3 {
        opacity: .71;
      }
    </style>
  </defs>
  <rect class="cls-2" x="-9.22" y="-9.04" width="117.4" height="124.13"/>
  <g class="cls-3">
    <path class="cls-1" d="M22.29,83.5c-.98-.92-1.94-1.8-2.85-2.73-.1-.1-.04-.47.07-.64.8-1.23,1.57-2.49,2.46-3.65.71-.93.93-1.74.14-2.73-.48-.6-.84-1.32-1.18-2.01-.29-.58-.68-.73-1.28-.56-1.68.46-3.37.9-5.05,1.34-.24.06-.48.13-.8.22-.1-.24-.19-.47-.29-.69-.4-.95-.77-1.91-1.22-2.84-.19-.39-.15-.61.18-.86,1.36-1.01,2.69-2.06,4.06-3.06.42-.31.53-.57.36-1.08-.39-1.2-.72-2.42-1.02-3.64-.14-.59-.45-.81-1.05-.83-1.53-.04-3.07-.13-4.6-.19-.36-.01-.6-.05-.67-.49-.2-1.33-.45-2.66-.69-4.08,1.83-.52,3.62-1.07,5.43-1.54.55-.14.75-.4.79-.93.11-1.19.22-2.37.39-3.55.08-.58-.11-.89-.63-1.12-1.6-.69-3.18-1.43-4.77-2.13-.34-.15-.42-.31-.35-.68.21-1.08.4-2.17.52-3.26.06-.58.31-.72.84-.69,1.78.09,3.57.13,5.36.23.54.03.82-.16,1.06-.64.5-.98,1.05-1.94,1.63-2.87.36-.57.3-.98-.21-1.42-1.51-1.3-2.98-2.64-4.51-4,.69-1.23,1.37-2.44,2.09-3.73,1.32.48,2.59.93,3.86,1.39,2.93,1.05,1.93,1.18,4.11-.87.37-.35.71-.72,1.1-1.04.44-.36.46-.74.2-1.2-.93-1.68-1.85-3.37-2.78-5.06-.05-.1-.11-.19-.15-.29,1.11-.87,2.18-1.72,3.28-2.53.11-.08.43.03.58.14,1.38,1.09,2.77,2.19,4.12,3.32.47.4.82.46,1.37.11.94-.61,1.93-1.15,2.94-1.63.5-.24.7-.5.62-1.04-.27-1.72-.48-3.45-.79-5.16-.11-.6-.03-.93.58-1.16.88-.33,1.74-.71,2.58-1.12.47-.23.69-.09.94.3,1.14,1.72,2.3,3.42,3.48,5.12.11.16.4.35.57.31,1.21-.25,2.4-.58,3.62-.82.51-.1.67-.37.72-.83.16-1.55.36-3.1.5-4.65.04-.48.21-.67.71-.7,1.3-.09,2.59-.25,3.99-.39.35,1.56.72,3.08,1.02,4.63.32,1.58.29,1.58,1.88,1.87.86.16,1.72.3,2.56.51.66.17,1.01-.05,1.31-.64.77-1.51,1.6-2.99,2.38-4.49.19-.36.38-.4.76-.3,1.06.29,2.13.56,3.21.75.57.1.65.37.59.85-.21,1.8-.4,3.6-.62,5.39-.06.47.06.75.48,1.01.92.55,1.81,1.17,2.7,1.78.87.59.91.59,1.68-.15,1.38-1.34,2.76-2.68,4.2-4.08,1.11.73,2.22,1.45,3.3,2.21.11.08.1.46.02.65-.62,1.45-1.24,2.91-1.93,4.33-.4.82-.44,1.45.28,2.13.63.6,1.17,1.29,1.69,1.99.4.54.81.65,1.41.36,1.53-.73,3.08-1.42,4.62-2.13.27-.12.53-.25.81-.37.78,1.17,1.56,2.3,2.29,3.45.07.11-.06.43-.18.57-1.17,1.29-2.35,2.57-3.56,3.82-.43.44-.62.77-.25,1.4.57.99,1.04,2.04,1.45,3.11.2.52.48.66.97.62,1.76-.14,3.52-.24,5.27-.42.55-.06.85.06,1.02.61.29.92.6,1.83.97,2.72.2.48.03.69-.37.91-1.79,1.02-3.58,2.05-5.35,3.11-.17.1-.34.42-.32.61.15,1.2.37,2.4.52,3.6.06.48.27.67.71.75,1.53.29,3.05.62,4.58.9.5.09.69.27.68.8-.02,1.3.03,2.6.06,3.98-1.6.21-3.16.44-4.72.62-1.59.18-1.59.16-2.02,1.73-.23.84-.44,1.69-.72,2.51-.2.6-.07.97.48,1.31,1.44.89,2.84,1.85,4.27,2.76.36.23.42.42.27.83-.38,1.01-.72,2.03-1,3.07-.15.57-.42.66-.93.56-1.77-.37-3.55-.69-5.32-1.07-.47-.1-.75,0-1.04.4-.68.92-1.41,1.81-2.14,2.69-.38.46-.42.85-.02,1.33,1.21,1.44,2.39,2.9,3.56,4.37.12.15.18.5.09.62-.79,1.01-1.62,1.98-2.52,3.05-1.35-.75-2.79-1.45-4.13-2.32-1.06-.69-1.93-.81-2.91.11-.54.51-1.2.93-1.84,1.32-.55.33-.63.72-.43,1.27.59,1.62,1.16,3.23,1.75,4.85.1.28.2.55.3.83-1.23.68-2.42,1.35-3.63,1.99-.12.06-.43-.08-.56-.22-1.2-1.29-2.39-2.59-3.54-3.93-.4-.47-.73-.59-1.33-.33-1.07.47-2.17.86-3.29,1.19-.47.14-.64.38-.64.81-.02,1.74-.08,3.48-.04,5.22.01.66-.1,1.02-.8,1.15-.9.17-1.79.41-2.66.69-.48.15-.69.03-.88-.41-.66-1.51-1.37-3-2.05-4.5-.02-.04-.03-.08-.05-.13-.64-1.36-.64-1.35-2.13-1.28-.98.05-1.97.08-2.95.08-.5,0-.74.19-.87.66-.41,1.48-.87,2.94-1.26,4.43-.15.56-.38.72-.96.65-1.25-.14-2.51-.19-3.72-.28-.12-1.2-.26-2.35-.35-3.5-.06-.78,0-1.56-.07-2.34-.02-.25-.24-.61-.45-.7-1.25-.51-2.54-.94-3.8-1.42-.48-.18-.72.07-.97.4-1.09,1.39-2.18,2.78-3.27,4.17-.08.11-.18.2-.25.29-1.26-.52-2.48-1.03-3.71-1.52-.52-.21-.33-.58-.24-.92.49-1.72.98-3.44,1.5-5.15.15-.49.06-.79-.33-1.13-.8-.69-1.54-1.44-2.3-2.16-.78-.75-.82-.76-1.74-.13-1.57,1.07-3.14,2.15-4.79,3.28ZM75.61,50.83c-1.16-12.78-13.23-23.76-27.38-22.03-13.12,1.6-22.58,14.08-21.32,26.91,1.25,12.77,13.22,23.77,27.38,22.06,13.14-1.59,22.72-14.09,21.32-26.95Z"/>
    <path class="cls-1" d="M30.56,55.35c-1.33-10.34,6.6-21.47,17.99-22.91,12.29-1.55,22.11,8,23.43,18.11,1.46,11.18-6.79,22.22-18.04,23.62-12.14,1.51-22.6-8.05-23.38-18.82ZM52.26,62.56c5.98-.33,9.22-6.35,8.75-10.72-.51-4.76-6.01-9.27-10.62-8.74-5.26.6-9.35,5.28-8.7,11.04.52,4.56,4.31,9.35,10.57,8.42Z"/>
  </g>
</svg>