<?xml version="1.0" encoding="UTF-8"?>
<svg id="Warstwa_1" data-name="Warstwa 1" xmlns="http://www.w3.org/2000/svg" viewBox="0 0 99.32 107.75">
  <defs>
    <style>
      .cls-1 {
        fill: #f08a10;
        fill-rule: evenodd;
        opacity: .71;
      }

      .cls-1, .cls-2 {
        stroke-width: 0px;
      }

      .cls-2 {
        fill: #fff;
      }
    </style>
  </defs>
  <rect class="cls-2" x="-9.22" y="-9.04" width="117.4" height="124.13"/>
  <path class="cls-1" d="M82.64,78.02c-.84.97-1.67,1.92-2.58,2.96-.86-.46-1.8-.97-2.73-1.48-.68-.38-1.34-.8-2.05-1.13-.23-.11-.63-.07-.85.06-.86.54-1.65,1.17-2.5,1.71-.51.32-.61.68-.41,1.22.53,1.46,1.05,2.93,1.58,4.4.09.26.19.51.31.84-.53.26-1.06.5-1.57.77-.52.27-1.06.53-1.54.87-.38.26-.58.15-.84-.14-1.09-1.23-2.2-2.44-3.28-3.67-.28-.32-.52-.43-.97-.24-1.03.43-2.08.81-3.14,1.14-.46.14-.62.36-.63.79-.02,1.62-.06,3.24-.04,4.86,0,.53-.1.82-.65.94-.86.18-1.73.39-2.57.67-.54.18-.65-.12-.82-.48-.78-1.68-1.58-3.35-2.35-5.04-.16-.36-.35-.42-.72-.39-1.18.09-2.36.13-3.53.15-.43,0-.64.17-.76.58-.38,1.36-.8,2.7-1.17,4.07-.13.48-.29.71-.86.63-1.02-.14-2.05-.21-3.08-.25-.43-.02-.53-.16-.54-.56-.04-1.58-.14-3.16-.16-4.74,0-.47-.19-.68-.59-.82-1.07-.38-2.14-.77-3.2-1.18-.44-.17-.74-.09-1.03.29-.99,1.29-2.01,2.55-3,3.83-.21.27-.37.3-.68.16-.92-.43-1.84-.84-2.79-1.19-.5-.19-.57-.44-.43-.9.48-1.59.93-3.2,1.42-4.79.13-.43.04-.69-.29-.99-.74-.65-1.45-1.35-2.16-2.03-.69-.66-.74-.67-1.55-.12-1.46.99-2.92,1.99-4.44,3.02-.89-.85-1.78-1.68-2.64-2.53-.08-.08-.02-.4.07-.54.73-1.13,1.44-2.29,2.26-3.35.68-.87.88-1.63.13-2.57-.44-.55-.77-1.21-1.09-1.85-.26-.51-.6-.64-1.13-.5-1.55.42-3.1.82-4.65,1.22-.24.06-.48.13-.72.19-.53-1.19-1.05-2.34-1.53-3.5-.05-.11.12-.38.26-.49,1.23-.95,2.47-1.9,3.73-2.82.37-.27.53-.49.37-.98-.36-1.12-.67-2.26-.95-3.41-.13-.53-.41-.71-.92-.73-1.41-.05-2.82-.14-4.23-.18-.41-.01-.6-.12-.66-.55-.17-1.2-.4-2.4-.61-3.66,1.71-.48,3.36-.98,5.03-1.41.48-.12.65-.35.7-.81.1-1.11.22-2.22.37-3.33.07-.51-.1-.78-.55-.98-1.47-.64-2.92-1.32-4.38-1.96-.34-.15-.41-.3-.34-.67.2-.99.37-1.99.48-2.99.06-.51.28-.63.74-.61,1.64.08,3.28.12,4.92.22.52.03.79-.15,1.02-.61.45-.9.97-1.77,1.5-2.64.31-.5.27-.86-.19-1.26-1.29-1.12-2.55-2.28-3.83-3.4-.25-.22-.33-.37-.15-.68.51-.85,1-1.71,1.47-2.58.19-.36.39-.43.75-.29,1.48.55,2.98,1.07,4.45,1.63.53.2.93.18,1.34-.27.64-.7,1.33-1.35,2.04-1.98.41-.37.45-.71.2-1.16-.89-1.62-1.77-3.25-2.7-4.94.48-.33.96-.66,1.43-1.01.47-.35.96-.7,1.38-1.1.3-.28.5-.28.8-.03,1.25,1.03,2.53,2.03,3.77,3.08.42.35.72.41,1.21.1.89-.56,1.82-1.07,2.76-1.52.44-.21.61-.44.54-.91-.24-1.58-.43-3.17-.71-4.75-.1-.58-.03-.9.56-1.11.81-.29,1.6-.64,2.38-1.03.46-.23.63,0,.85.32,1.05,1.58,2.11,3.15,3.19,4.71.1.15.38.29.54.26,1.11-.23,2.21-.53,3.32-.75.44-.09.58-.32.63-.72.15-1.42.34-2.84.47-4.27.04-.47.2-.65.69-.68,1.19-.08,2.38-.22,3.65-.35.34,1.62.69,3.2,1.01,4.79.2.98.18.97,1.17,1.12.91.14,1.83.3,2.73.53.64.16,1.01.02,1.31-.59.69-1.37,1.46-2.71,2.17-4.07.19-.36.38-.4.74-.29.95.26,1.92.51,2.89.68.54.1.62.35.57.82-.2,1.63-.36,3.27-.57,4.9-.06.46.05.73.47.98.83.49,1.62,1.06,2.43,1.6.83.56.85.57,1.59-.14,1.2-1.16,2.39-2.32,3.58-3.47.07-.07.16-.14.27-.24,1.06.7,2.11,1.39,3.25,2.14-.44,1.02-.87,2.02-1.31,3.01-.3.67-.61,1.34-.92,2.01-.17.36-.14.66.14.98.67.75,1.33,1.53,1.94,2.33.33.43.66.52,1.14.29,1.43-.67,2.87-1.32,4.31-1.97.25-.11.49-.23.82-.39.25.42.48.84.74,1.24.37.59.74,1.18,1.16,1.73.25.32.24.52-.03.81-1.12,1.17-2.2,2.38-3.34,3.54-.38.39-.45.69-.18,1.19.52.96.97,1.97,1.37,2.98.18.44.45.51.83.48,1.62-.11,3.24-.21,4.85-.37.53-.05.82.06.98.58.26.84.55,1.68.88,2.5.17.42.02.59-.32.79-1.65.93-3.29,1.88-4.92,2.85-.17.1-.35.38-.33.55.13,1.11.34,2.2.47,3.31.05.46.25.65.69.74,1.41.26,2.81.57,4.21.83.43.08.6.24.59.7-.01,1.2.03,2.4.05,3.66-1.12.17-2.21.34-3.31.49-.67.09-1.35.1-2.01.22-.23.04-.55.26-.61.47-.37,1.19-.66,2.39-1.01,3.59-.14.49.16.69.49.9,1.32.86,2.63,1.75,3.97,2.59.36.23.33.44.21.78-.33.91-.65,1.83-.9,2.76-.14.55-.39.64-.9.53-1.63-.35-3.26-.65-4.89-.99-.41-.09-.65.01-.91.35-.63.84-1.29,1.66-1.97,2.47-.37.44-.41.81-.02,1.27,1.18,1.4,2.32,2.83,3.58,4.38ZM74.18,49.5c-.27-.76-.49-1.41-.72-2.06-1.24-3.44-2.94-6.61-5.54-9.24-.97-.98-2-1.87-3.26-2.46-.6-.28-.83-.2-1.09.39-1.16,2.62-2.32,5.24-3.49,7.85-.21.45-.2.82.11,1.23,1.24,1.62,2.45,3.27,3.7,4.88.17.21.57.37.85.35,1.91-.16,3.82-.37,5.72-.56,1.19-.12,2.38-.24,3.72-.37ZM58.95,32.84c-.61-.12-1.1-.22-1.59-.3-3.51-.63-7.02-.83-10.54-.02-1.55.36-3.05.82-4.39,1.71-.7.47-.75.67-.25,1.35,1.68,2.27,3.37,4.53,5.03,6.81.3.41.64.57,1.13.5,2.02-.27,4.05-.52,6.07-.83.26-.04.59-.32.71-.58,1.16-2.51,2.28-5.03,3.4-7.55.14-.32.26-.66.43-1.1ZM37.21,37.67c-.53.58-1.01,1.1-1.49,1.63-2.44,2.7-4.41,5.68-5.51,9.19-.42,1.33-.72,2.68-.63,4.09.03.49.19.8.77.75,2.92-.23,5.84-.45,8.76-.66.43-.03.7-.2.88-.59.86-1.87,1.73-3.74,2.61-5.6.17-.36.12-.65-.11-.99-1.53-2.27-3.04-4.55-4.55-6.83-.21-.31-.44-.6-.73-.99ZM30.3,59.29c.32.86.56,1.55.82,2.23,1.26,3.39,2.94,6.53,5.56,9.07.9.87,1.94,1.61,2.99,2.29.83.54,1.09.38,1.43-.44,1.09-2.6,2.26-5.17,3.35-7.77.12-.29.09-.79-.09-1.03-1.22-1.69-2.49-3.34-3.78-4.97-.17-.21-.58-.36-.85-.33-2.64.24-5.28.53-7.92.8-.46.05-.91.09-1.51.15ZM45.75,75.58c.22.07.32.11.41.13,4.19.89,8.39,1.24,12.57.06,1.22-.34,2.39-.92,3.53-1.49.73-.36.75-.66.29-1.29-.54-.73-1.09-1.45-1.63-2.18-1.16-1.58-2.3-3.17-3.49-4.73-.18-.24-.6-.46-.88-.43-2.08.21-4.14.5-6.21.75-.4.05-.62.25-.78.63-.66,1.55-1.35,3.09-2.04,4.63-.57,1.28-1.16,2.56-1.78,3.92ZM67.41,70.59c.25-.26.47-.45.66-.68.83-1.03,1.69-2.05,2.46-3.12,1.99-2.77,3.45-5.78,3.96-9.19.11-.72.08-1.46.06-2.19-.01-.46-.27-.7-.8-.64-2.89.33-5.78.63-8.67.93-.42.04-.7.21-.86.61-.82,1.94-1.67,3.86-2.46,5.81-.09.21,0,.58.14.78,1.48,2.13,2.98,4.24,4.48,6.35.32.44.66.86,1.03,1.34ZM45.46,54.72c.6,3.62,3.46,6.32,7.03,5.98,3.91-.37,6.52-3.28,6.13-7.19-.4-3.86-3.47-6.27-7.26-5.78-3.85.5-5.91,2.75-5.89,6.98Z"/>
</svg>