<?xml version="1.0" encoding="UTF-8"?>
<svg id="Warstwa_1" data-name="Warstwa 1" xmlns="http://www.w3.org/2000/svg" viewBox="0 0 99.32 107.75">
  <defs>
    <style>
      .cls-1 {
        fill: #fff;
      }

      .cls-1, .cls-2 {
        stroke-width: 0px;
      }

      .cls-2 {
        fill: #f08a10;
        fill-rule: evenodd;
        opacity: .6;
      }
    </style>
  </defs>
  <rect class="cls-1" x="-9.22" y="-9.04" width="117.4" height="124.13"/>
  <path class="cls-2" d="M46.26,11.87c.57,1.72,1.13,3.38,1.67,5.06.33,1.03.31,1.01,1.4,1.07,1.03.05,2.06.12,3.08.25.65.08,1.01-.11,1.25-.75.6-1.59,1.27-3.14,1.88-4.73.16-.42.37-.46.77-.4,1.04.17,2.09.31,3.14.38.6.04.79.26.78.83-.03,1.79,0,3.57-.03,5.36,0,.5.16.78.63,1,1.02.47,2.01,1,2.99,1.55.55.31.95.27,1.36-.24,1.19-1.48,2.41-2.94,3.62-4.41.07-.09.15-.16.26-.28,1.23.63,2.45,1.25,3.77,1.92-.36,1.16-.7,2.29-1.05,3.42-.24.77-.5,1.53-.76,2.29-.14.41-.07.72.28,1.03.82.74,1.62,1.49,2.38,2.28.41.42.78.47,1.27.17,1.47-.89,2.95-1.77,4.42-2.65.25-.15.5-.31.83-.51.38.5.74.99,1.13,1.46.42.52.83,1.04,1.3,1.51.32.32.31.54.06.88-1.07,1.4-2.09,2.84-3.18,4.23-.37.48-.39.81-.04,1.31.66.96,1.27,1.97,1.81,3,.25.47.53.56.98.48,1.73-.33,3.47-.62,5.2-.99.58-.12.89-.03,1.13.52.38.88.8,1.75,1.26,2.59.24.44.09.64-.26.89-1.67,1.21-3.33,2.43-4.98,3.67-.17.13-.33.45-.28.64.28,1.18.64,2.34.91,3.52.11.5.36.67.83.71,1.53.11,3.06.28,4.59.38.54.03.75.22.8.77.12,1.27.31,2.54.49,3.88-1.19.32-2.35.64-3.52.93-.71.18-1.45.27-2.15.48-.24.07-.55.35-.6.58-.25,1.33-.43,2.67-.65,4-.09.55.26.72.64.91,1.53.77,3.06,1.56,4.6,2.32.36.18.43.36.33.75-.26,1.05-.5,2.1-.66,3.16-.09.61-.36.74-.91.68-1.8-.18-3.61-.31-5.41-.48-.46-.04-.7.1-.93.49-.58.99-1.2,1.95-1.84,2.9-.35.53-.33.92.14,1.38,1.44,1.37,2.85,2.78,4.38,4.28-.81,1.11-1.62,2.24-2.53,3.49-.86-.35-1.94-.78-3.01-1.22-.78-.32-1.55-.7-2.35-.97-.26-.09-.69,0-.91.17-.86.69-1.64,1.47-2.5,2.15-.51.41-.57.82-.29,1.37.75,1.52,1.49,3.05,2.24,4.57.13.27.26.53.43.87-.66.42-1.32.82-1.96,1.25-.4.27-.82.52-1.16.86-.41.41-.68.27-1.03-.06-1.32-1.2-2.67-2.38-3.99-3.57-.31-.28-.55-.35-.96-.13-1.13.61-2.3,1.12-3.43,1.73-.22.12-.46.47-.45.7.05,1.21.16,2.42.28,3.63.07.68.22,1.36.25,2.04,0,.24-.21.62-.42.71-1,.44-2.04.83-3.08,1.17-.16.05-.52-.17-.64-.36-.84-1.34-1.64-2.71-2.45-4.06-.19-.31-.43-.6-.59-.93-.29-.63-.71-.71-1.37-.57-1.14.25-2.3.39-3.46.54-.47.06-.67.27-.74.72-.25,1.54-.55,3.07-.79,4.61-.08.48-.23.71-.78.71-1.14-.01-2.29.03-3.43.11-.47.03-.59-.13-.65-.54-.24-1.7-.53-3.4-.75-5.1-.06-.51-.29-.71-.74-.81-1.18-.28-2.37-.55-3.54-.88-.56-.16-.89,0-1.18.49-.97,1.61-1.97,3.2-2.96,4.79-1.35-.39-2.68-.75-3.98-1.18-.15-.05-.27-.53-.23-.79.28-1.77.58-3.53.92-5.28.1-.54-.04-.83-.48-1.14-.9-.62-1.78-1.3-2.63-1.99-.51-.42-.93-.43-1.44.02-1.49,1.32-3.01,2.6-4.58,3.94-1.05-.8-2.1-1.57-3.11-2.38-.11-.09-.12-.46-.04-.64.65-1.31,1.28-2.65,2.04-3.9.62-1.03.77-1.87-.17-2.79-.55-.54-.98-1.22-1.4-1.87-.34-.53-.74-.61-1.28-.39-1.62.64-3.25,1.26-4.87,1.88-.25.1-.51.2-.75.29-.71-1.23-1.42-2.4-2.07-3.6-.06-.12.09-.43.23-.56,1.22-1.18,2.44-2.35,3.69-3.49.37-.34.5-.6.27-1.11-.53-1.17-1-2.36-1.43-3.57-.2-.56-.53-.72-1.09-.67-1.53.12-3.07.19-4.6.32-.44.04-.65-.07-.77-.52-.33-1.26-.71-2.51-1.09-3.83,1.16-.51,2.3-1.02,3.45-1.51.61-.26,1.23-.5,1.87-.7.42-.13.59-.37.58-.8-.01-1.31-.02-2.61,0-3.92.01-.58-.35-.73-.79-.87-1.66-.53-3.31-1.07-4.97-1.61-.13-.04-.25-.1-.36-.14.05-1.38.08-2.73.19-4.08.01-.17.43-.42.68-.44,1.78-.16,3.56-.28,5.35-.38.52-.03.81-.2,1.01-.72.39-1.05.85-2.08,1.33-3.09.27-.58.17-.97-.36-1.33-1.53-1.06-3.02-2.15-4.55-3.21-.3-.21-.39-.37-.23-.72.45-.98.88-1.96,1.27-2.97.16-.42.38-.5.78-.4,1.67.41,3.35.8,5.01,1.23.6.16,1.02.07,1.42-.46.62-.85,1.31-1.66,2.01-2.44.4-.44.31-.81.02-1.22-1.11-1.57-2.21-3.15-3.32-4.73-.05-.07-.1-.15-.19-.28.57-.5,1.14-.99,1.69-1.49.35-.33.73-.64,1.01-1.03.37-.51.69-.41,1.13-.11,1.47.97,2.97,1.9,4.44,2.87.4.26.67.19,1.03-.08,1.01-.75,2.04-1.48,3.1-2.17.42-.27.37-.59.28-.94-.43-1.69-.84-3.38-1.33-5.05-.18-.62-.13-.96.48-1.26.84-.42,1.65-.89,2.44-1.4.43-.27.64-.13.91.19,1.33,1.58,2.66,3.15,4.02,4.71.14.16.47.31.65.26,1.18-.38,2.33-.83,3.51-1.21.47-.15.59-.42.59-.86,0-1.53.03-3.07,0-4.6-.02-.58.17-.8.74-.9,1.26-.22,2.5-.52,3.83-.8ZM18.81,61.18c.39,1.02.72,2.13,1.22,3.15.9,1.88,3.31,3.63,5.83,2.51.95-.42,1.91-.89,2.76-1.49,1.5-1.06,2.91-2.24,3.91-3.82,1.92-3.02,1.28-5.92-1.74-7.79-2.62-1.63-5.56-2.09-8.59-1.78-1.4.15-2.54.94-3.06,2.35-.82,2.23-.52,4.52-.32,6.87ZM80.03,47.8c-.54-1.19-1.07-2.75-1.93-4.1-1.14-1.8-3.48-3.01-5.87-1.75-.92.48-1.83,1.05-2.62,1.72-1.56,1.32-3.03,2.76-3.85,4.69-.6,1.42-.82,2.9-.11,4.33.6,1.22,1.56,2.14,2.8,2.74,2.42,1.18,5.01,1.48,7.64,1.21,2.85-.29,4.1-1.69,4.17-4.57.03-1.3-.13-2.6-.23-4.27ZM40.53,35.55c-.39-1.77-1.06-3.53-2.05-5.14-1.41-2.31-3.26-3.07-5.42-2.2-2.97,1.2-5.41,3.08-7.08,5.85-1.08,1.78-1.27,4.67.99,6.23.88.6,1.8,1.18,2.79,1.58,1.91.78,3.89,1.44,6,1.24,1.73-.17,3.24-.77,4.15-2.41.9-1.61.96-3.31.62-5.15ZM50.23,32.28c.07,0,.14,0,.21,0,.35,1.69.77,3.37,1.79,4.8.89,1.25,2.03,2.22,3.62,2.37,1.35.12,2.65-.19,3.8-.93,2.41-1.54,4.07-3.73,5.28-6.28.85-1.81.45-3.71-1.12-4.94-2.56-2.01-5.47-3.18-8.75-3.2-2.18,0-4.65,1.3-4.84,4.03-.1,1.38,0,2.77,0,4.15ZM44.07,84.71c2.42-.54,3.86-1.67,4.14-3.88.13-1.01.18-2.06.07-3.06-.22-2.05-.55-4.11-1.7-5.89-.86-1.33-1.99-2.36-3.65-2.54-1.33-.14-2.6.14-3.77.82-2.33,1.35-4.04,3.31-5.29,5.64-1.31,2.44-.89,4.26,1.36,5.86,1.24.88,2.59,1.68,4,2.24,1.63.65,3.38.99,4.83.81ZM58.55,74.65c.33.8.81,2.17,1.45,3.45,1.19,2.39,3.08,3.34,5.24,2.62,3.13-1.05,5.72-2.91,7.51-5.71,1.18-1.84,1.31-4.63-.81-6.19-.86-.63-1.76-1.24-2.73-1.68-1.86-.84-3.79-1.57-5.89-1.45-1.78.1-3.35.65-4.33,2.33-1.14,1.95-1.02,3.98-.44,6.63ZM56.81,53.1c-.63-3.45-4.9-7.07-9.43-6.02-3.36.78-6.29,5.36-5.34,9.04.99,3.84,4.43,6.69,8.95,5.63,4.12-.97,6.51-4.49,5.82-8.65Z"/>
</svg>