<?xml version="1.0" encoding="UTF-8"?>
<svg id="Warstwa_1" data-name="Warstwa 1" xmlns="http://www.w3.org/2000/svg" viewBox="0 0 375.13 155.92">
  <defs>
    <style>
      .cls-1 {
        fill: #f19001;
      }

      .cls-1, .cls-2, .cls-3, .cls-4, .cls-5, .cls-6 {
        stroke: #000;
        stroke-miterlimit: 10;
        stroke-width: .5px;
      }

      .cls-7 {
        fill: #1d1e1c;
      }

      .cls-7, .cls-8 {
        stroke-width: 0px;
      }

      .cls-2 {
        fill: #b3b3b3;
      }

      .cls-8 {
        fill: #f7e0cb;
      }

      .cls-3 {
        fill: #926493;
      }

      .cls-4 {
        fill: #fbdeb3;
      }

      .cls-5 {
        fill: #f7bd67;
      }

      .cls-6 {
        fill: #b1e3f8;
      }
    </style>
  </defs>
  <rect class="cls-8" width="375.13" height="155.92"/>
  <g>
    <g>
      <path class="cls-7" d="M34.27,41.76v-17.73h1.86v16.38h4.95v1.35h-6.81Z"/>
      <path class="cls-7" d="M46.72,42.03c-1,0-1.81-.12-2.43-.34-.62-.23-1.07-.65-1.35-1.27-.28-.62-.42-1.52-.42-2.7v-7.41c0-1.4.31-2.36.94-2.88.63-.52,1.67-.78,3.14-.78s2.44.26,3.07.78c.63.52.95,1.48.95,2.88v3.84h-6.24v4.2c0,.96.15,1.62.45,2s.91.55,1.83.55c.84,0,1.4-.18,1.68-.54.28-.36.42-1.03.42-2.01v-1.92h1.86v1.26c0,1.16-.14,2.05-.42,2.69-.28.63-.71,1.06-1.28,1.3-.57.24-1.3.36-2.2.36ZM44.38,33.18h4.38v-2.94c0-.84-.14-1.45-.42-1.83s-.86-.57-1.74-.57-1.47.19-1.77.57-.45.99-.45,1.83v2.94Z"/>
      <path class="cls-7" d="M56.71,45.27c-.22,0-.48,0-.78-.03-.3-.02-.6-.04-.88-.06-.29-.02-.54-.04-.75-.08-.21-.03-.35-.05-.41-.08v-1.08c.24.02.58.06,1.04.12.45.06.85.09,1.21.09.28,0,.59-.02.93-.06.34-.04.67-.15,1-.33.33-.18.6-.48.81-.9s.31-1,.31-1.74v-2.04c-.12.38-.31.72-.56,1.02-.25.3-.58.54-.97.71-.4.17-.89.25-1.47.25-.38,0-.77-.04-1.15-.12-.39-.08-.75-.25-1.07-.5s-.57-.64-.76-1.17c-.19-.53-.29-1.25-.29-2.15v-6.81c0-1.32.26-2.27.78-2.85.52-.58,1.36-.87,2.52-.87.52,0,1,.07,1.43.21.43.14.79.35,1.09.63.3.28.53.63.69,1.05h-.33l.3-1.59h1.62v13.59c0,.78-.1,1.46-.29,2.05-.19.59-.46,1.09-.82,1.5-.36.41-.81.71-1.35.92s-1.16.3-1.86.3ZM56.86,39.87c.66,0,1.15-.17,1.48-.5s.55-.75.66-1.26c.11-.51.17-1.03.17-1.55v-7.26c-.06-.18-.18-.38-.35-.6s-.41-.41-.72-.57-.73-.24-1.24-.24c-.74,0-1.27.18-1.59.54-.32.36-.48,1.02-.48,1.98v7.17c0,.52.07.94.21,1.26.14.32.33.55.56.69.23.14.46.23.71.27.24.04.44.06.6.06Z"/>
      <path class="cls-7" d="M67.84,42.03c-1,0-1.81-.12-2.43-.34-.62-.23-1.07-.65-1.35-1.27-.28-.62-.42-1.52-.42-2.7v-7.41c0-1.4.31-2.36.94-2.88.63-.52,1.67-.78,3.14-.78s2.44.26,3.07.78c.63.52.95,1.48.95,2.88v3.84h-6.24v4.2c0,.96.15,1.62.45,2s.91.55,1.83.55c.84,0,1.4-.18,1.68-.54.28-.36.42-1.03.42-2.01v-1.92h1.86v1.26c0,1.16-.14,2.05-.42,2.69-.28.63-.71,1.06-1.28,1.3-.57.24-1.3.36-2.2.36ZM65.5,33.18h4.38v-2.94c0-.84-.14-1.45-.42-1.83s-.86-.57-1.74-.57-1.47.19-1.77.57-.45.99-.45,1.83v2.94Z"/>
      <path class="cls-7" d="M74.41,41.76v-14.85h1.53l.24,1.59c.16-.6.53-1.06,1.11-1.38.58-.32,1.18-.48,1.8-.48,1.06,0,1.83.19,2.33.55.49.37.8.85.94,1.44.14.59.21,1.24.21,1.93v11.19h-1.86v-10.92c0-.36-.01-.71-.03-1.05s-.1-.65-.23-.92c-.13-.27-.34-.49-.64-.65-.3-.16-.74-.24-1.32-.24-.5,0-.91.09-1.21.28-.31.19-.54.41-.69.66-.15.25-.26.49-.31.71v12.12h-1.86Z"/>
      <path class="cls-7" d="M88.81,42c-.74,0-1.35-.1-1.83-.29s-.85-.46-1.12-.81c-.27-.35-.46-.79-.56-1.32s-.15-1.13-.15-1.82v-7.41c0-.54.05-1.03.17-1.48.11-.45.29-.84.56-1.17.26-.33.61-.59,1.05-.78.44-.19,1-.29,1.68-.29.8,0,1.42.12,1.88.36.45.24.77.53.97.87v-5.01h1.86v18.9h-1.29l-.18-1.41c-.12.26-.3.52-.52.77-.23.25-.54.46-.93.63-.39.17-.92.25-1.57.25ZM89.14,40.86c.58,0,1.03-.1,1.35-.31s.54-.48.68-.83c.13-.34.21-.71.24-1.12.03-.41.04-.81.04-1.21v-8.13c-.06-.18-.16-.38-.31-.6-.15-.22-.38-.41-.67-.57s-.71-.24-1.23-.24c-.58,0-1.02.08-1.32.24-.3.16-.52.38-.65.64-.13.27-.21.58-.23.92-.02.34-.03.69-.03,1.05v7.32c0,.48.03.94.09,1.38.06.44.24.79.54,1.07.3.27.8.4,1.5.4Z"/>
      <path class="cls-7" d="M99.16,41.97c-.46,0-.93-.07-1.4-.2-.47-.13-.87-.43-1.2-.9-.33-.47-.49-1.21-.49-2.21v-1.44c0-1,.3-1.8.92-2.42s1.44-1.15,2.5-1.63c.68-.34,1.23-.64,1.67-.9.43-.26.75-.55.97-.87.22-.32.33-.75.33-1.29v-.63c0-.48-.1-.85-.3-1.11-.2-.26-.46-.44-.79-.54-.33-.1-.68-.15-1.04-.15-.9,0-1.49.25-1.77.74-.28.49-.42,1.21-.42,2.17v1.26h-1.71v-1.44c0-.74.1-1.4.3-1.96.2-.57.58-1.02,1.14-1.35.56-.33,1.38-.5,2.46-.5,1.14,0,2,.13,2.56.39.57.26.95.63,1.14,1.11.19.48.29,1.05.29,1.71v11.94h-1.83l-.03-1.86c-.24.68-.67,1.2-1.29,1.54-.62.35-1.29.53-2.01.53ZM99.85,40.71c.9,0,1.55-.32,1.96-.96.41-.64.62-1.49.62-2.55v-4.74c-.2.32-.53.61-.99.87s-.93.52-1.41.78c-.68.4-1.21.82-1.58,1.25-.37.43-.56,1.03-.56,1.79v1.17c0,.72.1,1.25.3,1.59.2.34.45.56.75.66.3.1.6.15.9.15Z"/>
      <path class="cls-7" d="M116.38,41.97c-1.08,0-1.92-.13-2.52-.41-.6-.27-1.02-.7-1.26-1.29-.24-.59-.36-1.37-.36-2.35v-1.29h1.89v1.71c0,.94.16,1.59.48,1.95.32.36.9.54,1.74.54.74,0,1.28-.18,1.63-.54.35-.36.52-.97.52-1.83v-.84c0-.46-.07-.86-.21-1.19-.14-.33-.4-.63-.79-.92-.39-.28-.94-.56-1.63-.84-.66-.26-1.24-.54-1.74-.84-.5-.3-.9-.68-1.19-1.14s-.44-1.05-.44-1.77v-.9c0-1.06.3-1.88.92-2.47.61-.59,1.65-.88,3.1-.88.96,0,1.73.13,2.29.39.57.26.99.68,1.26,1.26.27.58.4,1.33.4,2.25v1.26h-1.83v-1.44c0-1-.17-1.68-.51-2.05-.34-.37-.88-.56-1.62-.56-.84,0-1.41.2-1.69.6-.29.4-.44.9-.44,1.5v.81c0,.56.12,1.02.38,1.38.25.36.6.66,1.06.9.46.24,1.01.49,1.65.75.58.24,1.1.5,1.55.76.45.27.8.64,1.06,1.1.26.46.39,1.09.39,1.89v.69c0,.8-.12,1.48-.38,2.05s-.67,1-1.27,1.3-1.42.45-2.46.45Z"/>
      <path class="cls-7" d="M126.4,41.79c-.44,0-.84-.05-1.2-.15-.36-.1-.67-.26-.93-.5-.26-.23-.46-.53-.6-.9-.14-.37-.21-.83-.21-1.4v-10.77h-1.32v-.96l1.44-.21.33-2.79h1.41v2.79h3.21v1.17h-3.21v10.44c0,.56.1,1.03.3,1.41.2.38.64.57,1.32.57.28,0,.58-.02.9-.04.32-.03.55-.04.69-.04v1.2c-.16,0-.44.03-.84.09-.4.06-.83.09-1.29.09Z"/>
      <path class="cls-7" d="M134.17,41.97c-.92,0-1.69-.12-2.29-.38-.61-.25-1.06-.69-1.35-1.33-.29-.64-.44-1.52-.44-2.64v-6.93c0-1.44.31-2.47.94-3.09.63-.62,1.67-.93,3.14-.93s2.5.3,3.13.9c.63.6.95,1.64.95,3.12v6.93c0,1.12-.14,2-.42,2.62-.28.63-.72,1.08-1.32,1.33s-1.38.39-2.34.39ZM134.17,40.8c.8,0,1.37-.2,1.71-.6.34-.4.51-1.13.51-2.19v-7.41c0-.98-.16-1.68-.48-2.12-.32-.43-.9-.64-1.74-.64-.78,0-1.35.21-1.69.62-.35.41-.53,1.12-.53,2.14v7.41c0,1.04.17,1.77.53,2.17.35.41.91.62,1.69.62Z"/>
      <path class="cls-7" d="M141.97,25.08c-.3,0-.56-.11-.77-.32s-.31-.45-.31-.74c0-.3.1-.54.31-.73s.47-.29.77-.29.56.09.77.29.31.42.31.71c0,.3-.1.55-.31.76s-.47.32-.77.32ZM141.04,41.76v-14.85h1.83v14.85h-1.83Z"/>
      <path class="cls-7" d="M149.65,41.97c-1.08,0-1.92-.13-2.52-.41-.6-.27-1.02-.7-1.26-1.29-.24-.59-.36-1.37-.36-2.35v-1.29h1.89v1.71c0,.94.16,1.59.48,1.95.32.36.9.54,1.74.54.74,0,1.28-.18,1.63-.54.35-.36.52-.97.52-1.83v-.84c0-.46-.07-.86-.21-1.19-.14-.33-.4-.63-.79-.92-.39-.28-.94-.56-1.63-.84-.66-.26-1.24-.54-1.74-.84-.5-.3-.9-.68-1.19-1.14s-.44-1.05-.44-1.77v-.9c0-1.06.3-1.88.92-2.47.61-.59,1.65-.88,3.1-.88.96,0,1.73.13,2.29.39.57.26.99.68,1.26,1.26.27.58.4,1.33.4,2.25v1.26h-1.83v-1.44c0-1-.17-1.68-.51-2.05-.34-.37-.88-.56-1.62-.56-.84,0-1.41.2-1.69.6-.29.4-.44.9-.44,1.5v.81c0,.56.12,1.02.38,1.38.25.36.6.66,1.06.9.46.24,1.01.49,1.65.75.58.24,1.1.5,1.55.76.45.27.8.64,1.06,1.1.26.46.39,1.09.39,1.89v.69c0,.8-.12,1.48-.38,2.05s-.67,1-1.27,1.3-1.42.45-2.46.45Z"/>
      <path class="cls-7" d="M156.46,41.76v-19.02h1.83v19.02h-1.83ZM162.52,41.76l-3.72-8.61,3.81-6.24h1.86l-3.84,6.24,3.87,8.61h-1.98Z"/>
    </g>
    <g>
      <g>
        <rect class="cls-3" x="32.97" y="62.22" width="37.07" height="17.53"/>
        <rect class="cls-2" x="32.97" y="88.47" width="37.07" height="17.53"/>
        <rect class="cls-6" x="32.91" y="116.08" width="37.21" height="17.53"/>
        <g>
          <path class="cls-7" d="M81.3,74.89c-.45,0-.84-.08-1.16-.24-.33-.16-.58-.43-.76-.8-.18-.38-.27-.9-.27-1.57v-.5h.96v.55c0,.5.05.89.16,1.16.1.27.25.47.44.58.19.11.4.17.64.17.39,0,.71-.12.95-.37s.37-.68.37-1.31c0-.45-.06-.79-.19-1.01-.13-.22-.33-.41-.6-.54s-.6-.28-.99-.44c-.32-.13-.61-.29-.86-.47-.25-.18-.45-.43-.59-.73-.14-.3-.21-.68-.21-1.14,0-.52.07-.95.21-1.3.14-.34.37-.6.69-.77.32-.17.74-.25,1.27-.25.69,0,1.22.17,1.6.52s.56.83.56,1.46v.98h-.93v-.75c0-.48-.1-.84-.31-1.09s-.51-.37-.91-.37c-.44,0-.76.13-.95.38-.19.25-.29.64-.29,1.16,0,.39.07.7.23.92.15.22.34.4.58.52.24.12.5.24.76.34.45.17.81.35,1.1.53.28.19.48.42.62.71.13.29.19.7.19,1.21,0,.61-.1,1.09-.29,1.45-.19.36-.46.61-.81.76-.35.16-.74.23-1.19.23Z"/>
          <path class="cls-7" d="M84.96,76.53v-9.17h.87l.03.66c.09-.21.23-.39.44-.54.2-.15.53-.23.99-.23s.83.08,1.08.24c.25.16.42.38.52.66.1.28.15.61.15.97v3.66c0,.41-.04.78-.13,1.09-.09.32-.26.57-.51.74s-.62.26-1.11.26c-.38,0-.68-.06-.91-.18s-.39-.27-.5-.45v2.27h-.92ZM87,74.32c.28,0,.5-.04.65-.12s.26-.19.33-.32c.07-.14.11-.29.12-.45,0-.17.01-.34.01-.53v-3.62c0-.19,0-.37-.01-.53-.01-.17-.05-.32-.12-.46-.07-.14-.18-.25-.33-.33s-.37-.12-.65-.12-.5.05-.65.15-.26.23-.33.4-.11.34-.12.53c-.01.19-.02.37-.02.54v3.54c0,.24.02.46.07.67s.15.37.3.48c.16.12.4.17.74.17Z"/>
          <path class="cls-7" d="M92.29,74.89c-.46,0-.84-.06-1.15-.19-.31-.12-.53-.35-.67-.67s-.22-.76-.22-1.32v-3.46c0-.72.16-1.23.47-1.54.31-.31.84-.46,1.57-.46s1.25.15,1.57.45.47.82.47,1.56v3.46c0,.56-.07,1-.21,1.31-.14.32-.36.54-.66.67-.3.13-.69.2-1.17.2ZM92.29,74.31c.4,0,.69-.1.85-.3.17-.2.26-.56.26-1.09v-3.71c0-.49-.08-.84-.24-1.06-.16-.21-.45-.32-.87-.32-.39,0-.67.1-.85.31-.18.21-.26.56-.26,1.07v3.71c0,.52.09.88.26,1.09.17.21.46.31.85.31Z"/>
          <path class="cls-7" d="M95.73,74.79v-7.42h.77l.12.79c.08-.3.26-.53.55-.69.29-.16.59-.24.9-.24.53,0,.92.09,1.16.28.25.18.4.42.47.72.07.29.1.62.1.97v5.59h-.93v-5.46c0-.18,0-.35-.01-.53-.01-.17-.05-.32-.11-.46s-.17-.24-.32-.32-.37-.12-.66-.12c-.25,0-.45.05-.61.14-.16.09-.27.21-.35.33-.07.12-.13.24-.16.35v6.06h-.93Z"/>
          <path class="cls-7" d="M103.08,74.89c-.54,0-.96-.07-1.26-.2s-.51-.35-.63-.64-.18-.69-.18-1.18v-.65h.95v.86c0,.47.08.79.24.97.16.18.45.27.87.27.37,0,.64-.09.82-.27.17-.18.26-.48.26-.92v-.42c0-.23-.04-.43-.1-.59-.07-.17-.2-.32-.4-.46-.2-.14-.47-.28-.82-.42-.33-.13-.62-.27-.87-.42-.25-.15-.45-.34-.59-.57-.15-.23-.22-.52-.22-.88v-.45c0-.53.15-.94.46-1.24.3-.29.82-.44,1.55-.44.48,0,.86.07,1.15.2.29.13.5.34.63.63.14.29.2.67.2,1.12v.63h-.92v-.72c0-.5-.08-.84-.25-1.03-.17-.18-.44-.28-.81-.28-.42,0-.7.1-.85.3-.15.2-.22.45-.22.75v.41c0,.28.06.51.19.69.12.18.3.33.53.45.23.12.5.25.82.38.29.12.55.25.77.38s.4.32.53.55c.13.23.19.54.19.95v.34c0,.4-.06.74-.19,1.03s-.34.5-.64.65c-.3.15-.71.23-1.23.23Z"/>
          <path class="cls-7" d="M108.34,74.89c-.46,0-.84-.06-1.15-.19-.31-.12-.53-.35-.67-.67s-.22-.76-.22-1.32v-3.46c0-.72.16-1.23.47-1.54.31-.31.84-.46,1.57-.46s1.25.15,1.57.45.47.82.47,1.56v3.46c0,.56-.07,1-.21,1.31-.14.32-.36.54-.66.67-.3.13-.69.2-1.17.2ZM108.34,74.31c.4,0,.69-.1.85-.3.17-.2.26-.56.26-1.09v-3.71c0-.49-.08-.84-.24-1.06-.16-.21-.45-.32-.87-.32-.39,0-.67.1-.85.31-.18.21-.26.56-.26,1.07v3.71c0,.52.09.88.26,1.09.17.21.46.31.85.31Z"/>
          <path class="cls-7" d="M111.78,74.79v-7.42h.78l.1.79c.11-.28.29-.48.54-.6.25-.12.5-.19.75-.22.28-.06.55-.06.81-.01v.73s-.11-.02-.21-.03-.21-.02-.32-.02-.22.02-.32.06c-.34.04-.62.16-.85.37s-.34.48-.34.83v5.52h-.93Z"/>
          <path class="cls-7" d="M120.34,74.95c-.36,0-.69-.05-.99-.14-.3-.09-.54-.29-.73-.59-.19-.3-.28-.75-.28-1.35v-5.08c0-.56.1-.98.29-1.26.2-.28.46-.47.79-.57s.72-.15,1.16-.15.83.05,1.16.16c.33.1.6.3.79.58.19.28.28.7.28,1.25v1.12h-.91v-1.14c0-.4-.06-.7-.17-.89-.11-.19-.27-.32-.46-.38-.19-.07-.42-.1-.68-.1s-.48.03-.67.1c-.2.06-.35.19-.47.38-.11.19-.16.49-.16.89v5.25c0,.4.05.7.16.89.11.2.27.32.47.38.2.06.42.09.67.09.39,0,.71-.12.95-.35.24-.23.37-.57.37-1.01v-1.85h-1.16v-.58h2.07v4.2h-.7l-.05-.86c-.03.07-.07.14-.11.2s-.08.12-.11.17c-.14.2-.33.36-.58.47-.25.12-.56.17-.94.17Z"/>
          <path class="cls-7" d="M125.2,74.79v-2.64l-1.04.46v-.51l1.04-.47v-6.36h.92v5.96l1.06-.48v.5l-1.06.48v3.06h-.92Z"/>
          <path class="cls-7" d="M130.42,74.89c-.46,0-.84-.06-1.15-.19-.31-.12-.53-.35-.67-.67s-.22-.76-.22-1.32v-3.46c0-.72.16-1.23.47-1.54.31-.31.84-.46,1.57-.46s1.25.15,1.57.45.47.82.47,1.56v3.46c0,.56-.07,1-.21,1.31-.14.32-.36.54-.66.67-.3.13-.69.2-1.17.2ZM130.42,74.31c.4,0,.69-.1.85-.3.17-.2.26-.56.26-1.09v-3.71c0-.49-.08-.84-.24-1.06-.16-.21-.45-.32-.87-.32-.39,0-.67.1-.85.31-.18.21-.26.56-.26,1.07v3.71c0,.52.09.88.26,1.09.17.21.46.31.85.31ZM129.9,66.6l.85-1.38h.93l-1.25,1.38h-.54Z"/>
          <path class="cls-7" d="M134.89,74.79l-1.67-7.42h.9l1.31,6.24,1.27-6.24h.88l1.35,6.24,1.22-6.24h.88l-1.6,7.42h-1.06l-1.23-5.58-1.19,5.58h-1.06Z"/>
          <path class="cls-7" d="M142.02,74.79v-7.42h.77l.12.79c.08-.3.26-.53.55-.69.29-.16.59-.24.9-.24.53,0,.92.09,1.16.28.25.18.4.42.47.72.07.29.1.62.1.97v5.59h-.93v-5.46c0-.18,0-.35-.01-.53-.01-.17-.05-.32-.11-.46s-.17-.24-.32-.32-.37-.12-.66-.12c-.25,0-.45.05-.61.14-.16.09-.27.21-.35.33-.07.12-.13.24-.16.35v6.06h-.93Z"/>
          <path class="cls-7" d="M147.81,76.54c-.21,0-.4-.01-.56-.04s-.29-.05-.38-.08v-.55s.1.04.2.06c.1.02.23.03.37.03.15,0,.32-.03.5-.08s.34-.19.46-.42c.06-.1.13-.21.2-.34.08-.13.09-.28.05-.45l-1.71-7.3h.96l1.37,6.48h-.02l1.32-6.48h.89l-1.62,7.14c-.15.69-.39,1.2-.71,1.54-.32.33-.76.5-1.32.5Z"/>
          <path class="cls-7" d="M158.49,76.6c-.55-.04-1.04-.22-1.48-.53-.44-.31-.81-.73-1.11-1.25-.31-.51-.54-1.1-.71-1.75-.17-.65-.25-1.33-.25-2.03,0-.74.1-1.47.29-2.19.2-.72.46-1.37.8-1.96.34-.59.73-1.07,1.18-1.45s.92-.59,1.43-.64v.56c-.42.12-.8.36-1.14.71-.34.36-.63.79-.88,1.3-.25.52-.44,1.08-.58,1.7-.13.62-.2,1.26-.2,1.93,0,.62.06,1.22.17,1.8.11.58.28,1.11.51,1.58s.5.86.83,1.15.71.46,1.12.51v.56Z"/>
          <path class="cls-7" d="M161.16,74.79v-7.53h-1.43v-.54h.75c.25-.02.43-.08.55-.19.11-.11.21-.31.28-.6h.79v8.87h-.94Z"/>
          <path class="cls-7" d="M163.67,74.79v-1.7c0-.5.07-.9.22-1.19.14-.29.36-.54.64-.73.28-.19.62-.38,1.02-.58.35-.16.64-.34.88-.55s.42-.47.56-.77.2-.67.2-1.1c0-.51-.09-.9-.29-1.17-.21-.27-.54-.41-1-.41-.41,0-.73.13-.95.39-.23.26-.34.66-.34,1.2v.74h-.94v-.93c0-.71.19-1.24.58-1.58.39-.34.94-.52,1.67-.52.56,0,1,.08,1.33.25.33.17.57.43.71.77.14.35.22.78.22,1.31,0,.66-.14,1.22-.41,1.69s-.69.84-1.24,1.13c-.3.14-.58.29-.83.43-.25.15-.47.33-.65.55s-.28.49-.31.83c-.03.17-.05.35-.07.54-.02.19-.02.39-.02.6h3.6v.79h-4.58Z"/>
          <path class="cls-7" d="M169.48,74.79v-7.42h.78l.1.83c.11-.29.29-.52.55-.69s.57-.25.94-.25c.58,0,.99.12,1.22.36.23.24.36.59.37,1.05h-.17c.1-.42.29-.76.58-1.02.29-.26.65-.39,1.1-.39.62,0,1.04.14,1.27.43s.34.74.34,1.33v5.78h-.93v-5.61c0-.48-.07-.81-.22-.98-.15-.17-.39-.26-.74-.26-.33,0-.6.1-.82.29-.22.2-.34.44-.36.73v5.83h-.93v-5.73c0-.41-.07-.7-.22-.87s-.4-.26-.77-.26c-.34,0-.6.08-.77.24-.17.16-.3.35-.38.57v6.04h-.93Z"/>
          <path class="cls-7" d="M177.77,71.25v-.9c0-.43.07-.75.22-.97s.44-.43.89-.64c.4-.19.67-.39.79-.61.13-.21.2-.49.2-.82,0-.31-.06-.55-.18-.71s-.31-.25-.57-.25c-.23,0-.41.07-.55.2-.13.13-.2.35-.2.65v.58h-.63v-.46c0-.52.12-.89.35-1.11s.58-.33,1.04-.33c.36,0,.64.05.85.16.21.11.35.26.44.47s.13.46.13.74c0,.33-.05.61-.14.83-.1.23-.23.42-.4.57-.18.16-.38.3-.62.43-.39.2-.65.37-.77.52-.12.14-.2.32-.22.52,0,.1-.01.2-.01.3v.29h2.19v.55h-2.79Z"/>
          <path class="cls-7" d="M181.54,76.6v-.56c.42-.12.8-.36,1.14-.71.34-.36.64-.79.89-1.31.25-.51.44-1.08.58-1.71.13-.62.2-1.27.2-1.94,0-.62-.06-1.22-.17-1.79-.12-.58-.29-1.1-.51-1.57-.23-.47-.5-.85-.83-1.15-.33-.29-.71-.47-1.12-.52v-.56c.55.03,1.04.21,1.48.53.43.32.8.74,1.11,1.25.3.52.54,1.1.71,1.75s.25,1.33.25,2.02c0,.74-.1,1.47-.29,2.2-.19.72-.46,1.38-.79,1.97-.34.59-.74,1.07-1.19,1.45-.45.38-.93.59-1.44.64Z"/>
        </g>
        <g>
          <path class="cls-7" d="M81.3,101.15c-.45,0-.84-.08-1.16-.24-.33-.16-.58-.43-.76-.8-.18-.38-.27-.9-.27-1.57v-.5h.96v.55c0,.5.05.89.16,1.16.1.27.25.47.44.58.19.11.4.17.64.17.39,0,.71-.12.95-.37s.37-.68.37-1.31c0-.45-.06-.79-.19-1.01-.13-.22-.33-.41-.6-.54s-.6-.28-.99-.44c-.32-.13-.61-.29-.86-.47-.25-.18-.45-.43-.59-.73-.14-.3-.21-.68-.21-1.14,0-.52.07-.95.21-1.3.14-.34.37-.6.69-.77.32-.17.74-.25,1.27-.25.69,0,1.22.17,1.6.52s.56.83.56,1.46v.98h-.93v-.75c0-.48-.1-.84-.31-1.09s-.51-.37-.91-.37c-.44,0-.76.13-.95.38-.19.25-.29.64-.29,1.16,0,.39.07.7.23.92.15.22.34.4.58.52.24.12.5.24.76.34.45.17.81.35,1.1.53.28.19.48.42.62.71.13.29.19.7.19,1.21,0,.61-.1,1.09-.29,1.45-.19.36-.46.61-.81.76-.35.16-.74.23-1.19.23Z"/>
          <path class="cls-7" d="M84.96,102.79v-9.17h.87l.03.66c.09-.21.23-.39.44-.54.2-.15.53-.23.99-.23s.83.08,1.08.24c.25.16.42.38.52.66.1.28.15.61.15.97v3.66c0,.41-.04.78-.13,1.09-.09.32-.26.57-.51.74s-.62.26-1.11.26c-.38,0-.68-.06-.91-.18s-.39-.27-.5-.45v2.27h-.92ZM87,100.58c.28,0,.5-.04.65-.12s.26-.19.33-.32c.07-.14.11-.29.12-.45,0-.17.01-.34.01-.53v-3.62c0-.19,0-.37-.01-.53-.01-.17-.05-.32-.12-.46-.07-.14-.18-.25-.33-.33s-.37-.12-.65-.12-.5.05-.65.15-.26.23-.33.4-.11.34-.12.53c-.01.19-.02.37-.02.54v3.54c0,.24.02.46.07.67s.15.37.3.48c.16.12.4.17.74.17Z"/>
          <path class="cls-7" d="M92.29,101.15c-.46,0-.84-.06-1.15-.19-.31-.12-.53-.35-.67-.67s-.22-.76-.22-1.32v-3.46c0-.72.16-1.23.47-1.54.31-.31.84-.46,1.57-.46s1.25.15,1.57.45.47.82.47,1.56v3.46c0,.56-.07,1-.21,1.31-.14.32-.36.54-.66.67-.3.13-.69.2-1.17.2ZM92.29,100.57c.4,0,.69-.1.85-.3.17-.2.26-.56.26-1.09v-3.71c0-.49-.08-.84-.24-1.06-.16-.21-.45-.32-.87-.32-.39,0-.67.1-.85.31-.18.21-.26.56-.26,1.07v3.71c0,.52.09.88.26,1.09.17.21.46.31.85.31Z"/>
          <path class="cls-7" d="M95.73,101.05v-7.42h.77l.12.79c.08-.3.26-.53.55-.69.29-.16.59-.24.9-.24.53,0,.92.09,1.16.28.25.18.4.42.47.72.07.29.1.62.1.97v5.59h-.93v-5.46c0-.18,0-.35-.01-.53-.01-.17-.05-.32-.11-.46s-.17-.24-.32-.32-.37-.12-.66-.12c-.25,0-.45.05-.61.14-.16.09-.27.21-.35.33-.07.12-.13.24-.16.35v6.06h-.93Z"/>
          <path class="cls-7" d="M103.08,101.15c-.54,0-.96-.07-1.26-.2s-.51-.35-.63-.64-.18-.69-.18-1.18v-.65h.95v.86c0,.47.08.79.24.97.16.18.45.27.87.27.37,0,.64-.09.82-.27.17-.18.26-.48.26-.92v-.42c0-.23-.04-.43-.1-.59-.07-.17-.2-.32-.4-.46-.2-.14-.47-.28-.82-.42-.33-.13-.62-.27-.87-.42-.25-.15-.45-.34-.59-.57-.15-.23-.22-.52-.22-.88v-.45c0-.53.15-.94.46-1.24.3-.29.82-.44,1.55-.44.48,0,.86.07,1.15.2.29.13.5.34.63.63.14.29.2.67.2,1.12v.63h-.92v-.72c0-.5-.08-.84-.25-1.03-.17-.18-.44-.28-.81-.28-.42,0-.7.1-.85.3-.15.2-.22.45-.22.75v.41c0,.28.06.51.19.69.12.18.3.33.53.45.23.12.5.25.82.38.29.12.55.25.77.38s.4.32.53.55c.13.23.19.54.19.95v.34c0,.4-.06.74-.19,1.03s-.34.5-.64.65c-.3.15-.71.23-1.23.23Z"/>
          <path class="cls-7" d="M108.34,101.15c-.46,0-.84-.06-1.15-.19-.31-.12-.53-.35-.67-.67s-.22-.76-.22-1.32v-3.46c0-.72.16-1.23.47-1.54.31-.31.84-.46,1.57-.46s1.25.15,1.57.45.47.82.47,1.56v3.46c0,.56-.07,1-.21,1.31-.14.32-.36.54-.66.67-.3.13-.69.2-1.17.2ZM108.34,100.57c.4,0,.69-.1.85-.3.17-.2.26-.56.26-1.09v-3.71c0-.49-.08-.84-.24-1.06-.16-.21-.45-.32-.87-.32-.39,0-.67.1-.85.31-.18.21-.26.56-.26,1.07v3.71c0,.52.09.88.26,1.09.17.21.46.31.85.31Z"/>
          <path class="cls-7" d="M111.78,101.05v-7.42h.78l.1.79c.11-.28.29-.48.54-.6.25-.12.5-.19.75-.22.28-.06.55-.06.81-.01v.73s-.11-.02-.21-.03-.21-.02-.32-.02-.22.02-.32.06c-.34.04-.62.16-.85.37s-.34.48-.34.83v5.52h-.93Z"/>
          <path class="cls-7" d="M114.97,101.05v-.38l2.45-6.41h-2.29v-.64h3.36v.42l-2.43,6.33h2.43v.67h-3.51Z"/>
          <path class="cls-7" d="M119.74,102.8c-.21,0-.4-.01-.56-.04s-.29-.05-.38-.08v-.55s.1.04.2.06c.1.02.23.03.37.03.15,0,.32-.03.5-.08s.34-.19.46-.42c.06-.1.13-.21.2-.34.08-.13.09-.28.05-.45l-1.71-7.3h.96l1.37,6.48h-.02l1.32-6.48h.89l-1.62,7.14c-.15.69-.39,1.2-.71,1.54-.32.33-.76.5-1.32.5Z"/>
          <path class="cls-7" d="M130.42,102.86c-.55-.04-1.04-.22-1.48-.53-.44-.31-.81-.73-1.11-1.25-.31-.51-.54-1.1-.71-1.75-.17-.65-.25-1.33-.25-2.03,0-.74.1-1.47.29-2.19.2-.72.46-1.37.8-1.96.34-.59.73-1.07,1.18-1.45s.92-.59,1.43-.64v.56c-.42.12-.8.36-1.14.71-.34.36-.63.79-.88,1.3-.25.52-.44,1.08-.58,1.7-.13.62-.2,1.26-.2,1.93,0,.62.06,1.22.17,1.8.11.58.28,1.11.51,1.58s.5.86.83,1.15.71.46,1.12.51v.56Z"/>
          <path class="cls-7" d="M134.31,101.17c-.55,0-1-.1-1.33-.29s-.59-.45-.75-.79c-.16-.33-.24-.72-.24-1.15v-.54c0-.3.04-.58.11-.84.08-.26.2-.48.37-.66.11-.12.25-.23.43-.32.18-.09.4-.16.66-.19-.25-.04-.45-.1-.61-.19-.16-.08-.3-.19-.43-.32-.16-.17-.27-.38-.34-.64-.07-.25-.1-.53-.1-.83v-.3c0-.43.07-.79.22-1.09s.38-.52.71-.67c.33-.15.77-.23,1.31-.23s.99.08,1.31.23c.32.15.56.37.71.67.15.29.23.66.23,1.09v.3c0,.35-.06.66-.17.93-.11.27-.27.49-.48.66s-.46.3-.77.39c.29.05.53.14.72.26s.34.28.45.46c.11.18.19.38.23.6s.07.46.07.71v.54c0,.4-.08.76-.23,1.09s-.39.6-.73.8-.79.31-1.36.31ZM134.29,100.58c.42,0,.75-.12.99-.38.24-.25.36-.59.36-1.02v-1c0-.42-.12-.75-.35-.98-.23-.23-.57-.36-1-.38-.41,0-.74.13-.98.38s-.37.58-.37.98v1c0,.42.12.75.35,1,.23.25.57.38,1,.4ZM134.29,96.05c.36,0,.67-.13.92-.4.25-.26.38-.61.38-1.03v-.57c0-.38-.1-.7-.3-.97-.2-.27-.53-.4-.99-.4s-.77.14-.97.41c-.2.27-.3.58-.3.95v.57c0,.29.06.54.17.76.12.22.27.38.47.5.19.12.41.18.64.18Z"/>
          <path class="cls-7" d="M138.03,101.05v-7.42h.78l.1.83c.11-.29.29-.52.55-.69s.57-.25.94-.25c.58,0,.99.12,1.22.36.23.24.36.59.37,1.05h-.17c.1-.42.29-.76.58-1.02.29-.26.65-.39,1.1-.39.62,0,1.04.14,1.27.43s.34.74.34,1.33v5.78h-.93v-5.61c0-.48-.07-.81-.22-.98-.15-.17-.39-.26-.74-.26-.33,0-.6.1-.82.29-.22.2-.34.44-.36.73v5.83h-.93v-5.73c0-.41-.07-.7-.22-.87s-.4-.26-.77-.26c-.34,0-.6.08-.77.24-.17.16-.3.35-.38.57v6.04h-.93Z"/>
          <path class="cls-7" d="M146.32,97.51v-.9c0-.43.07-.75.22-.97s.44-.43.89-.64c.4-.19.67-.39.79-.61.13-.21.2-.49.2-.82,0-.31-.06-.55-.18-.71s-.31-.25-.57-.25c-.23,0-.41.07-.55.2-.13.13-.2.35-.2.65v.58h-.63v-.46c0-.52.12-.89.35-1.11s.58-.33,1.04-.33c.36,0,.64.05.85.16.21.11.35.26.44.47s.13.46.13.74c0,.33-.05.61-.14.83-.1.23-.23.42-.4.57-.18.16-.38.3-.62.43-.39.2-.65.37-.77.52-.12.14-.2.32-.22.52,0,.1-.01.2-.01.3v.29h2.19v.55h-2.79Z"/>
          <path class="cls-7" d="M150.09,102.86v-.56c.42-.12.8-.36,1.14-.71.34-.36.64-.79.89-1.31.25-.51.44-1.08.58-1.71.13-.62.2-1.27.2-1.94,0-.62-.06-1.22-.17-1.79-.12-.58-.29-1.1-.51-1.57-.23-.47-.5-.85-.83-1.15-.33-.29-.71-.47-1.12-.52v-.56c.55.03,1.04.21,1.48.53.43.32.8.74,1.11,1.25.3.52.54,1.1.71,1.75s.25,1.33.25,2.02c0,.74-.1,1.47-.29,2.2-.19.72-.46,1.38-.79,1.97-.34.59-.74,1.07-1.19,1.45-.45.38-.93.59-1.44.64Z"/>
        </g>
        <g>
          <path class="cls-7" d="M79.56,128.65v-8.87h2.75c.51,0,.92.12,1.23.35s.46.61.46,1.12v1.63c0,.34-.05.66-.15.95s-.28.53-.55.71c-.27.18-.66.27-1.17.27h-1.59v3.82h-.98ZM80.54,124.27h1.31c.4,0,.7-.12.91-.37.21-.25.31-.62.31-1.13v-1.16c0-.44-.1-.76-.29-.97s-.42-.31-.69-.31h-1.54v3.93Z"/>
          <path class="cls-7" d="M86.57,128.76c-.23,0-.46-.03-.7-.1s-.43-.21-.6-.45c-.17-.24-.25-.6-.25-1.1v-.72c0-.5.15-.9.46-1.21.3-.3.72-.58,1.25-.82.34-.17.62-.32.83-.45.21-.13.38-.27.49-.43s.17-.38.17-.65v-.31c0-.24-.05-.42-.15-.55-.1-.13-.23-.22-.4-.27-.17-.05-.34-.08-.52-.08-.45,0-.75.12-.88.37-.14.25-.21.61-.21,1.09v.63h-.85v-.72c0-.37.05-.7.15-.98.1-.29.29-.51.57-.67.28-.17.69-.25,1.23-.25.57,0,1,.06,1.28.2.28.13.47.31.57.55.09.24.14.53.14.86v5.97h-.92l-.02-.93c-.12.34-.33.6-.65.77-.31.17-.65.26-1,.26ZM86.91,128.13c.45,0,.78-.16.98-.48.2-.32.31-.75.31-1.28v-2.37c-.1.16-.26.31-.49.44-.23.13-.47.26-.71.39-.34.2-.6.41-.79.62s-.28.51-.28.89v.58c0,.36.05.62.15.79.1.17.23.28.38.33s.3.07.45.07Z"/>
          <path class="cls-7" d="M90.6,128.65v-7.42h.78l.1.79c.11-.28.29-.48.54-.6.25-.12.5-.19.75-.22.28-.06.55-.06.81-.01v.73s-.11-.02-.21-.03-.21-.02-.32-.02-.22.02-.32.06c-.34.04-.62.16-.85.37s-.34.48-.34.83v5.52h-.93Z"/>
          <path class="cls-7" d="M96,128.67c-.22,0-.42-.03-.6-.07-.18-.05-.33-.13-.46-.25s-.23-.27-.3-.45c-.07-.18-.1-.42-.1-.7v-5.38h-.66v-.48l.72-.1.16-1.4h.71v1.4h1.6v.58h-1.6v5.22c0,.28.05.52.15.71.1.19.32.29.66.29.14,0,.29,0,.45-.02.16-.02.27-.02.34-.02v.6c-.08,0-.22.02-.42.04s-.42.04-.65.04Z"/>
          <path class="cls-7" d="M98.03,128.65v-7.42h.77l.12.79c.08-.3.26-.53.55-.69.29-.16.59-.24.9-.24.53,0,.92.09,1.16.28.25.18.4.42.47.72.07.29.1.62.1.97v5.59h-.93v-5.46c0-.18,0-.36-.01-.53-.01-.17-.05-.32-.11-.46s-.17-.24-.32-.32-.37-.12-.66-.12c-.25,0-.45.05-.61.14-.16.1-.27.21-.35.33-.07.12-.13.24-.16.35v6.06h-.93Z"/>
          <path class="cls-7" d="M105.5,128.79c-.5,0-.9-.06-1.21-.17s-.54-.33-.67-.64c-.14-.31-.21-.76-.21-1.35v-3.71c0-.7.16-1.18.47-1.44s.84-.39,1.57-.39,1.22.13,1.54.39.47.74.47,1.44v1.92h-3.12v2.1c0,.48.08.81.23,1,.15.19.46.28.92.28.42,0,.7-.09.84-.27s.21-.51.21-1v-.96h.93v.63c0,.58-.07,1.03-.21,1.34-.14.31-.35.53-.64.65-.28.12-.65.18-1.1.18ZM104.33,124.36h2.19v-1.47c0-.42-.07-.72-.21-.91-.14-.19-.43-.29-.87-.29s-.73.09-.88.29c-.15.19-.23.49-.23.91v1.47Z"/>
          <path class="cls-7" d="M108.78,128.65v-7.42h.78l.1.79c.11-.28.29-.48.54-.6.25-.12.5-.19.75-.22.28-.06.55-.06.81-.01v.73s-.11-.02-.21-.03-.21-.02-.32-.02-.22.02-.32.06c-.34.04-.62.16-.85.37s-.34.48-.34.83v5.52h-.93Z"/>
          <path class="cls-7" d="M117.3,128.76c-.45,0-.84-.08-1.16-.24-.33-.16-.58-.43-.76-.8-.18-.38-.27-.9-.27-1.57v-.5h.96v.55c0,.5.05.89.16,1.16.1.27.25.47.44.58.19.11.4.17.64.17.39,0,.71-.12.95-.37.25-.25.37-.68.37-1.31,0-.45-.06-.79-.19-1.01-.13-.22-.33-.4-.6-.54s-.6-.28-.99-.44c-.32-.13-.61-.29-.86-.47-.25-.18-.45-.43-.59-.73-.14-.3-.21-.68-.21-1.14,0-.52.07-.95.21-1.3.14-.35.37-.6.69-.77.32-.17.74-.25,1.27-.25.69,0,1.22.17,1.6.52.38.34.56.83.56,1.46v.98h-.93v-.75c0-.48-.1-.84-.31-1.09-.21-.25-.51-.37-.91-.37-.44,0-.76.13-.95.38-.19.25-.29.64-.29,1.16,0,.39.07.7.23.92.15.22.34.4.58.53.24.12.5.24.76.34.45.17.81.35,1.1.53.28.19.48.42.62.71.13.29.19.7.19,1.21,0,.61-.1,1.09-.29,1.45-.19.36-.46.61-.81.77s-.74.23-1.19.23Z"/>
          <path class="cls-7" d="M122.57,128.67c-.22,0-.42-.03-.6-.07-.18-.05-.33-.13-.46-.25s-.23-.27-.3-.45c-.07-.18-.1-.42-.1-.7v-5.38h-.66v-.48l.72-.1.16-1.4h.71v1.4h1.6v.58h-1.6v5.22c0,.28.05.52.15.71.1.19.32.29.66.29.14,0,.29,0,.45-.02.16-.02.27-.02.34-.02v.6c-.08,0-.22.02-.42.04s-.42.04-.65.04Z"/>
          <path class="cls-7" d="M124.59,128.65v-7.42h.78l.1.79c.11-.28.29-.48.54-.6.25-.12.5-.19.75-.22.28-.06.55-.06.81-.01v.73s-.11-.02-.21-.03-.21-.02-.32-.02-.22.02-.32.06c-.34.04-.62.16-.85.37s-.34.48-.34.83v5.52h-.93Z"/>
          <path class="cls-7" d="M130.31,128.79c-.5,0-.9-.06-1.21-.17s-.54-.33-.67-.64c-.14-.31-.21-.76-.21-1.35v-3.71c0-.7.16-1.18.47-1.44s.84-.39,1.57-.39,1.22.13,1.54.39.47.74.47,1.44v1.92h-3.12v2.1c0,.48.08.81.23,1,.15.19.46.28.92.28.42,0,.7-.09.84-.27s.21-.51.21-1v-.96h.93v.63c0,.58-.07,1.03-.21,1.34-.14.31-.35.53-.64.65-.28.12-.65.18-1.1.18ZM129.14,124.36h2.19v-1.47c0-.42-.07-.72-.21-.91-.14-.19-.43-.29-.87-.29s-.73.09-.88.29c-.15.19-.23.49-.23.91v1.47Z"/>
          <path class="cls-7" d="M133.61,128.65v-6.55h-.46v-.58h.46v-.9c0-.27.03-.5.1-.69.06-.19.16-.34.28-.46s.26-.2.43-.25c.17-.05.35-.08.55-.08.16,0,.32,0,.49,0s.32.02.46.03c.14.02.24.02.3.02v.53c-.11-.02-.24-.04-.39-.05-.15-.02-.33-.02-.54-.02-.25,0-.44.07-.56.22-.13.14-.19.4-.19.77v.87h1.68v.58h-1.68v6.55h-.92Z"/>
          <path class="cls-7" d="M137.09,130.41c-.21,0-.4-.02-.56-.04-.17-.03-.29-.05-.38-.08v-.55s.1.04.2.06.23.03.37.03c.15,0,.32-.03.5-.07.19-.05.34-.19.46-.42.06-.1.13-.21.2-.35.08-.13.09-.28.05-.45l-1.71-7.3h.96l1.37,6.48h-.02l1.32-6.48h.89l-1.62,7.14c-.15.69-.39,1.2-.71,1.54-.32.33-.76.5-1.32.5Z"/>
          <path class="cls-7" d="M146.34,128.76c-.45,0-.84-.08-1.16-.24-.33-.16-.58-.43-.76-.8-.18-.38-.27-.9-.27-1.57v-.5h.96v.55c0,.5.05.89.16,1.16.1.27.25.47.44.58.19.11.4.17.64.17.39,0,.71-.12.95-.37.25-.25.37-.68.37-1.31,0-.45-.06-.79-.19-1.01-.13-.22-.33-.4-.6-.54s-.6-.28-.99-.44c-.32-.13-.61-.29-.86-.47-.25-.18-.45-.43-.59-.73-.14-.3-.21-.68-.21-1.14,0-.52.07-.95.21-1.3.14-.35.37-.6.69-.77.32-.17.74-.25,1.27-.25.69,0,1.22.17,1.6.52.38.34.56.83.56,1.46v.98h-.93v-.75c0-.48-.1-.84-.31-1.09-.21-.25-.51-.37-.91-.37-.44,0-.76.13-.95.38-.19.25-.29.64-.29,1.16,0,.39.07.7.23.92.15.22.34.4.58.53.24.12.5.24.76.34.45.17.81.35,1.1.53.28.19.48.42.62.71.13.29.19.7.19,1.21,0,.61-.1,1.09-.29,1.45-.19.36-.46.61-.81.77s-.74.23-1.19.23Z"/>
          <path class="cls-7" d="M151.61,128.67c-.22,0-.42-.03-.6-.07-.18-.05-.33-.13-.46-.25s-.23-.27-.3-.45c-.07-.18-.1-.42-.1-.7v-5.38h-.66v-.48l.72-.1.16-1.4h.71v1.4h1.6v.58h-1.6v5.22c0,.28.05.52.15.71.1.19.32.29.66.29.14,0,.29,0,.45-.02.16-.02.27-.02.34-.02v.6c-.08,0-.22.02-.42.04s-.42.04-.65.04Z"/>
          <path class="cls-7" d="M155.27,128.77c-.52,0-.91-.09-1.16-.28-.25-.19-.41-.43-.48-.73-.07-.3-.1-.62-.1-.96v-5.58h.93v5.46c0,.22.01.44.04.65.02.21.12.39.28.53.16.13.42.2.79.2.26,0,.46-.04.62-.13.15-.09.26-.2.34-.32.08-.12.13-.24.15-.34v-6.04h.93v7.42h-.79l-.08-.81c-.08.24-.24.46-.49.64-.25.19-.57.29-.98.29Z"/>
          <path class="cls-7" d="M160.84,128.77c-.37,0-.67-.05-.92-.14-.24-.1-.43-.23-.56-.41-.13-.17-.23-.39-.28-.66-.05-.26-.07-.57-.07-.91v-3.71c0-.27.03-.52.08-.74.06-.23.15-.42.28-.59.13-.16.3-.29.52-.39.22-.09.5-.14.84-.14.4,0,.71.06.94.18.23.12.39.26.49.43v-2.5h.93v9.45h-.65l-.09-.71c-.06.13-.15.26-.26.38-.11.12-.27.23-.46.31-.19.09-.46.13-.79.13ZM161.01,128.2c.29,0,.52-.05.68-.16.16-.11.27-.24.34-.41.06-.17.1-.36.12-.56.01-.21.02-.41.02-.61v-4.06c-.03-.09-.08-.19-.16-.3-.07-.11-.19-.21-.34-.29s-.35-.12-.62-.12c-.29,0-.51.04-.66.12s-.26.19-.32.32-.1.29-.11.46c-.01.17-.02.34-.02.52v3.66c0,.24.02.47.04.69.03.22.12.4.27.53s.4.2.75.2Z"/>
          <path class="cls-7" d="M166.59,128.79c-.5,0-.9-.06-1.21-.17s-.54-.33-.67-.64c-.14-.31-.21-.76-.21-1.35v-3.71c0-.7.16-1.18.47-1.44s.84-.39,1.57-.39,1.22.13,1.54.39.47.74.47,1.44v1.92h-3.12v2.1c0,.48.08.81.23,1,.15.19.46.28.92.28.42,0,.7-.09.84-.27s.21-.51.21-1v-.96h.93v.63c0,.58-.07,1.03-.21,1.34-.14.31-.35.53-.64.65-.28.12-.65.18-1.1.18ZM165.42,124.36h2.19v-1.47c0-.42-.07-.72-.21-.91-.14-.19-.43-.29-.87-.29s-.73.09-.88.29c-.15.19-.23.49-.23.91v1.47Z"/>
          <path class="cls-7" d="M169.87,128.65v-7.42h.77l.12.79c.08-.3.26-.53.55-.69.29-.16.59-.24.9-.24.53,0,.92.09,1.16.28.25.18.4.42.47.72.07.29.1.62.1.97v5.59h-.93v-5.46c0-.18,0-.36-.01-.53-.01-.17-.05-.32-.11-.46s-.17-.24-.32-.32-.37-.12-.66-.12c-.25,0-.45.05-.61.14-.16.1-.27.21-.35.33-.07.12-.13.24-.16.35v6.06h-.93Z"/>
          <path class="cls-7" d="M177.03,128.67c-.22,0-.42-.03-.6-.07-.18-.05-.33-.13-.46-.25s-.23-.27-.3-.45c-.07-.18-.1-.42-.1-.7v-5.38h-.66v-.48l.72-.1.16-1.4h.71v1.4h1.6v.58h-1.6v5.22c0,.28.05.52.15.71.1.19.32.29.66.29.14,0,.29,0,.45-.02.16-.02.27-.02.34-.02v.6c-.08,0-.22.02-.42.04s-.42.04-.65.04Z"/>
          <path class="cls-7" d="M180.4,128.76c-.23,0-.46-.03-.7-.1s-.43-.21-.6-.45c-.17-.24-.25-.6-.25-1.1v-.72c0-.5.15-.9.46-1.21.3-.3.72-.58,1.25-.82.34-.17.62-.32.83-.45.21-.13.38-.27.49-.43s.17-.38.17-.65v-.31c0-.24-.05-.42-.15-.55-.1-.13-.23-.22-.4-.27-.17-.05-.34-.08-.52-.08-.45,0-.75.12-.88.37-.14.25-.21.61-.21,1.09v.63h-.85v-.72c0-.37.05-.7.15-.98.1-.29.29-.51.57-.67.28-.17.69-.25,1.23-.25.57,0,1,.06,1.28.2.28.13.47.31.57.55.09.24.14.53.14.86v5.97h-.92l-.02-.93c-.12.34-.33.6-.65.77-.31.17-.65.26-1,.26ZM180.75,128.13c.45,0,.78-.16.98-.48.2-.32.31-.75.31-1.28v-2.37c-.1.16-.26.31-.49.44-.23.13-.47.26-.71.39-.34.2-.6.41-.79.62s-.28.51-.28.89v.58c0,.36.05.62.15.79.1.17.23.28.38.33s.3.07.45.07Z"/>
          <path class="cls-7" d="M190.59,130.47c-.55-.04-1.04-.22-1.48-.53s-.81-.73-1.11-1.25c-.31-.51-.54-1.1-.71-1.75s-.25-1.33-.25-2.03c0-.74.1-1.47.29-2.19.2-.72.46-1.38.8-1.96.34-.59.73-1.07,1.18-1.45s.92-.59,1.43-.64v.56c-.42.12-.8.36-1.14.71-.34.36-.63.79-.88,1.3-.25.52-.44,1.08-.58,1.7-.13.62-.2,1.27-.2,1.94,0,.62.06,1.22.17,1.8.11.58.28,1.11.51,1.58s.5.86.83,1.15c.33.29.71.46,1.12.51v.56Z"/>
          <path class="cls-7" d="M194.47,128.77c-.55,0-1-.1-1.33-.29s-.59-.45-.75-.79c-.16-.34-.24-.72-.24-1.15v-.54c0-.3.04-.58.11-.84.08-.26.2-.48.37-.66.11-.12.25-.23.43-.32.18-.09.4-.16.66-.19-.25-.04-.45-.1-.61-.19-.16-.08-.3-.19-.43-.32-.16-.17-.27-.38-.34-.64-.07-.26-.1-.53-.1-.83v-.3c0-.43.07-.79.22-1.09s.38-.52.71-.67c.33-.15.77-.23,1.31-.23s.99.08,1.31.23c.32.15.56.37.71.67.15.29.23.66.23,1.09v.3c0,.35-.06.66-.17.93s-.27.49-.48.66-.46.3-.77.39c.29.05.53.14.72.26s.34.28.45.46c.11.18.19.38.23.6.04.22.07.46.07.71v.54c0,.4-.08.76-.23,1.09s-.39.6-.73.8-.79.31-1.36.31ZM194.46,128.19c.42,0,.75-.12.99-.38.24-.25.36-.59.36-1.02v-1.01c0-.42-.12-.75-.35-.98-.23-.23-.57-.36-1-.38-.41,0-.74.13-.98.38-.25.26-.37.58-.37.98v1.01c0,.42.12.75.35,1,.23.24.57.38,1,.4ZM194.46,123.66c.36,0,.67-.13.92-.4.25-.26.38-.61.38-1.03v-.57c0-.38-.1-.7-.3-.97-.2-.27-.53-.4-.99-.4s-.77.14-.97.41c-.2.27-.3.58-.3.95v.57c0,.29.06.54.17.76.12.22.27.38.47.5.19.12.41.18.64.18Z"/>
          <path class="cls-7" d="M198.19,128.65v-7.42h.78l.1.82c.11-.29.29-.52.55-.69s.57-.26.94-.26c.58,0,.99.12,1.22.36.23.24.36.59.37,1.05l-.17.02c.1-.43.29-.78.58-1.04s.65-.39,1.1-.39c.62,0,1.04.14,1.27.44.23.29.34.73.34,1.33v5.78h-.93v-5.61c0-.48-.07-.81-.22-.98-.15-.18-.39-.26-.74-.26-.33,0-.6.1-.82.29-.22.2-.34.44-.36.73v5.83h-.93v-5.73c0-.41-.07-.7-.22-.87-.15-.17-.4-.26-.77-.26-.34,0-.6.08-.77.24-.17.16-.3.35-.38.57v6.04h-.93Z"/>
          <path class="cls-7" d="M206.49,125.11v-.9c0-.43.07-.76.22-.97.15-.22.44-.44.89-.64.4-.19.67-.39.79-.61.13-.21.2-.49.2-.82,0-.31-.06-.55-.18-.71-.12-.16-.31-.25-.57-.25-.23,0-.41.07-.55.2-.13.13-.2.35-.2.65v.59h-.63v-.46c0-.52.12-.89.35-1.11.23-.22.58-.33,1.04-.33.36,0,.64.05.85.16s.35.26.44.47c.08.21.13.46.13.73,0,.33-.05.61-.14.83-.09.23-.23.42-.4.57-.18.16-.38.3-.62.43-.39.2-.65.37-.77.52s-.2.32-.22.52c0,.1-.01.2-.01.3v.29h2.19v.55h-2.79Z"/>
          <path class="cls-7" d="M210.25,130.47v-.56c.42-.12.8-.36,1.14-.71.34-.36.64-.79.89-1.31.25-.51.44-1.08.58-1.71s.2-1.27.2-1.94c0-.62-.06-1.22-.17-1.79-.12-.58-.29-1.1-.51-1.57-.23-.47-.5-.85-.83-1.15-.33-.29-.71-.47-1.12-.52v-.56c.55.03,1.04.21,1.48.53s.8.74,1.11,1.25c.3.52.54,1.1.71,1.75s.25,1.33.25,2.03c0,.74-.09,1.47-.29,2.2-.19.72-.46,1.38-.79,1.97s-.74,1.07-1.18,1.45c-.45.38-.93.59-1.44.64Z"/>
        </g>
      </g>
      <g>
        <rect class="cls-1" x="256.12" y="62.22" width="37.07" height="17.53"/>
        <rect class="cls-5" x="256.12" y="88.47" width="37.07" height="17.53"/>
        <rect class="cls-4" x="256.05" y="116.08" width="37.21" height="17.53"/>
        <g>
          <path class="cls-7" d="M304.44,75.81c-.45,0-.84-.08-1.16-.24-.33-.16-.58-.43-.76-.8-.18-.38-.27-.9-.27-1.57v-.5h.96v.55c0,.5.05.89.16,1.16.11.27.25.47.44.58.18.11.4.17.64.17.39,0,.71-.12.95-.37s.37-.68.37-1.31c0-.45-.06-.79-.19-1.01-.13-.22-.33-.41-.6-.54-.27-.13-.6-.28-.99-.44-.32-.13-.61-.29-.86-.47-.25-.18-.45-.43-.59-.73-.14-.3-.21-.68-.21-1.14,0-.52.07-.95.21-1.3.14-.34.37-.6.69-.77s.75-.25,1.28-.25c.69,0,1.22.17,1.6.52s.56.83.56,1.46v.98h-.93v-.75c0-.48-.1-.84-.31-1.09s-.51-.37-.91-.37c-.44,0-.76.13-.95.38-.2.25-.29.64-.29,1.16,0,.39.08.7.23.92.15.22.34.4.58.52.24.12.5.24.76.34.45.17.81.35,1.09.53.28.19.49.42.62.71s.2.7.2,1.21c0,.61-.1,1.09-.29,1.45-.19.36-.46.61-.81.76-.35.16-.74.23-1.19.23Z"/>
          <path class="cls-7" d="M309.71,75.72c-.22,0-.42-.02-.6-.07-.18-.05-.33-.13-.46-.25-.13-.11-.23-.26-.3-.45-.07-.18-.1-.42-.1-.7v-5.38h-.66v-.48l.72-.1.17-1.4h.71v1.4h1.6v.58h-1.6v5.22c0,.28.05.52.15.71.1.19.32.29.66.29.14,0,.29,0,.45-.02.16-.02.28-.02.34-.02v.6c-.08,0-.22.02-.42.04-.2.03-.42.04-.64.04Z"/>
          <path class="cls-7" d="M313.59,75.81c-.46,0-.84-.06-1.15-.19-.31-.12-.53-.35-.67-.67-.15-.32-.22-.76-.22-1.32v-3.46c0-.72.16-1.23.47-1.54.31-.31.84-.46,1.57-.46s1.25.15,1.57.45c.32.3.47.82.47,1.56v3.46c0,.56-.07,1-.21,1.31-.14.32-.36.54-.66.67s-.69.2-1.17.2ZM313.59,75.23c.4,0,.68-.1.85-.3.17-.2.26-.56.26-1.09v-3.71c0-.49-.08-.84-.24-1.06-.16-.21-.45-.32-.87-.32-.39,0-.67.1-.85.31s-.26.56-.26,1.07v3.71c0,.52.09.88.26,1.09s.46.31.85.31Z"/>
          <path class="cls-7" d="M317.49,67.37c-.15,0-.28-.05-.38-.16s-.16-.23-.16-.37c0-.15.05-.27.16-.37.1-.09.23-.14.38-.14s.28.05.38.14c.11.09.16.21.16.35,0,.15-.05.28-.16.38s-.23.16-.38.16ZM317.03,75.71v-7.42h.92v7.42h-.92Z"/>
          <path class="cls-7" d="M321.33,75.81c-.54,0-.96-.07-1.26-.2s-.51-.35-.63-.64-.18-.69-.18-1.18v-.65h.95v.86c0,.47.08.79.24.97.16.18.45.27.87.27.37,0,.64-.09.82-.27.17-.18.26-.48.26-.92v-.42c0-.23-.04-.43-.1-.59-.07-.17-.2-.32-.4-.46-.2-.14-.47-.28-.82-.42-.33-.13-.62-.27-.87-.42-.25-.15-.45-.34-.59-.57-.15-.23-.22-.52-.22-.88v-.45c0-.53.15-.94.46-1.24.3-.29.82-.44,1.55-.44.48,0,.86.07,1.15.2.29.13.5.34.63.63.14.29.2.67.2,1.12v.63h-.92v-.72c0-.5-.08-.84-.25-1.03-.17-.18-.44-.28-.81-.28-.42,0-.7.1-.85.3-.14.2-.22.45-.22.75v.41c0,.28.06.51.19.69.12.18.3.33.53.45.23.12.5.25.83.38.29.12.55.25.77.38.22.13.4.32.53.55s.2.54.2.95v.34c0,.4-.06.74-.19,1.03s-.34.5-.64.65c-.3.15-.71.23-1.23.23Z"/>
          <path class="cls-7" d="M324.74,75.71v-9.51h.92v9.51h-.92ZM327.77,75.71l-1.86-4.3,1.91-3.12h.93l-1.92,3.12,1.93,4.3h-.99Z"/>
          <path class="cls-7" d="M331.13,75.81c-.23,0-.46-.03-.7-.1-.24-.07-.43-.21-.6-.45s-.25-.6-.25-1.1v-.72c0-.5.15-.9.46-1.21s.72-.58,1.25-.82c.34-.17.62-.32.83-.45.21-.13.38-.27.49-.43.11-.16.17-.38.17-.65v-.31c0-.24-.05-.42-.15-.56-.1-.13-.23-.22-.4-.27s-.34-.08-.52-.08c-.45,0-.75.12-.88.37-.14.25-.21.61-.21,1.09v.63h-.86v-.72c0-.37.05-.7.15-.98s.29-.51.57-.67c.28-.17.69-.25,1.23-.25.57,0,1,.07,1.28.2.28.13.47.31.57.55s.14.53.14.86v5.97h-.92v-.93c-.13.34-.35.6-.66.77-.31.17-.64.26-1,.26ZM331.47,75.18c.45,0,.78-.16.98-.48.2-.32.31-.75.31-1.28v-2.37c-.1.16-.26.31-.49.44-.23.13-.47.26-.71.39-.34.2-.6.41-.79.62-.18.21-.28.51-.28.89v.58c0,.36.05.62.15.79.1.17.22.28.38.33.15.05.3.07.45.07Z"/>
          <path class="cls-7" d="M340.08,75.83c-.55,0-1-.1-1.33-.29s-.59-.45-.75-.79c-.16-.33-.24-.72-.24-1.15v-.54c0-.3.04-.58.11-.84.08-.26.2-.48.37-.66.11-.12.25-.23.43-.32.18-.09.4-.16.66-.19-.25-.04-.45-.1-.61-.19-.16-.08-.3-.19-.43-.32-.16-.17-.28-.38-.34-.64-.07-.25-.11-.53-.11-.83v-.3c0-.43.07-.79.22-1.09.14-.29.38-.52.71-.67.33-.15.77-.23,1.31-.23s.99.08,1.31.23c.32.15.56.37.71.67.15.29.23.66.23,1.09v.3c0,.35-.06.66-.17.93-.11.27-.27.49-.48.66s-.46.3-.76.39c.29.05.53.14.72.26.19.12.34.28.45.46.11.18.19.38.23.6s.07.46.07.71v.54c0,.4-.08.76-.22,1.09-.15.33-.39.6-.73.8s-.79.31-1.36.31ZM340.07,75.24c.42,0,.75-.12.99-.38s.36-.59.36-1.02v-1c0-.42-.12-.75-.35-.98-.24-.23-.57-.36-1-.38-.41,0-.74.13-.98.38s-.37.58-.37.98v1c0,.42.12.75.35,1,.23.25.57.38,1,.4ZM340.07,70.71c.36,0,.67-.13.92-.4.25-.26.38-.61.38-1.03v-.57c0-.38-.1-.7-.3-.97-.2-.27-.53-.4-.99-.4s-.77.14-.97.41c-.2.27-.3.58-.3.95v.57c0,.29.06.54.17.76.12.22.27.38.47.5.19.12.41.18.64.18Z"/>
          <path class="cls-7" d="M343.8,75.71v-7.42h.78l.1.83c.11-.29.29-.52.55-.69s.57-.25.94-.25c.58,0,.99.12,1.22.36.23.24.36.59.37,1.05h-.17c.1-.42.29-.76.58-1.02.29-.26.65-.39,1.1-.39.62,0,1.04.14,1.27.43.23.29.34.74.34,1.33v5.78h-.93v-5.61c0-.48-.07-.81-.22-.98-.15-.17-.39-.26-.74-.26-.33,0-.6.1-.82.29-.22.2-.34.44-.36.73v5.83h-.93v-5.73c0-.41-.07-.7-.22-.87-.15-.17-.4-.26-.77-.26-.34,0-.6.08-.77.24-.17.16-.3.35-.38.57v6.04h-.93Z"/>
          <path class="cls-7" d="M352.1,72.17v-.9c0-.43.07-.75.22-.97.15-.22.44-.43.89-.64.4-.19.67-.39.79-.61.13-.21.2-.49.2-.82,0-.31-.06-.55-.18-.71s-.31-.25-.57-.25c-.23,0-.41.07-.55.2s-.2.35-.2.65v.58h-.63v-.46c0-.52.12-.89.35-1.11.23-.22.58-.33,1.04-.33.36,0,.64.05.85.16.21.11.35.26.44.47s.13.46.13.74c0,.33-.05.61-.14.83-.09.23-.23.42-.4.57-.18.16-.38.3-.62.43-.39.2-.65.37-.77.52-.12.14-.2.32-.22.52,0,.1-.01.2-.01.3v.29h2.19v.55h-2.79Z"/>
        </g>
        <g>
          <path class="cls-7" d="M304.44,102.07c-.45,0-.84-.08-1.16-.24-.33-.16-.58-.43-.76-.8-.18-.38-.27-.9-.27-1.57v-.49h.96v.55c0,.5.05.89.16,1.16.11.28.25.47.44.58.18.11.4.16.64.16.39,0,.71-.12.95-.37.25-.24.37-.68.37-1.31,0-.45-.06-.79-.19-1.01-.13-.22-.33-.41-.6-.54-.27-.13-.6-.28-.99-.44-.32-.13-.61-.29-.86-.47s-.45-.43-.59-.73c-.14-.3-.21-.68-.21-1.14,0-.52.07-.95.21-1.3.14-.34.37-.6.69-.77s.75-.26,1.28-.26c.69,0,1.22.17,1.6.52.38.35.56.83.56,1.46v.97h-.93v-.75c0-.48-.1-.84-.31-1.09-.21-.24-.51-.37-.91-.37-.44,0-.76.13-.95.38-.2.26-.29.64-.29,1.16,0,.39.08.7.23.92.15.22.34.4.58.52.24.12.5.24.76.34.45.17.81.35,1.09.53s.49.42.62.71c.13.29.2.7.2,1.21,0,.61-.1,1.09-.29,1.45-.19.36-.46.61-.81.76-.35.16-.74.23-1.19.23Z"/>
          <path class="cls-7" d="M309.71,101.98c-.22,0-.42-.02-.6-.07-.18-.05-.33-.13-.46-.25-.13-.11-.23-.26-.3-.45s-.1-.42-.1-.7v-5.38h-.66v-.48l.72-.11.17-1.39h.71v1.39h1.6v.59h-1.6v5.22c0,.28.05.52.15.71.1.19.32.29.66.29.14,0,.29,0,.45-.02.16-.02.28-.02.34-.02v.6c-.08,0-.22.02-.42.04-.2.03-.42.04-.64.04Z"/>
          <path class="cls-7" d="M313.59,102.07c-.46,0-.84-.06-1.15-.19-.31-.12-.53-.35-.67-.67-.15-.32-.22-.76-.22-1.32v-3.46c0-.72.16-1.23.47-1.54.31-.31.84-.46,1.57-.46s1.25.15,1.57.45c.32.3.47.82.47,1.56v3.46c0,.56-.07,1-.21,1.31-.14.31-.36.54-.66.67-.3.13-.69.2-1.17.2ZM313.59,101.49c.4,0,.68-.1.85-.3.17-.2.26-.56.26-1.09v-3.71c0-.49-.08-.84-.24-1.06-.16-.21-.45-.32-.87-.32-.39,0-.67.1-.85.31s-.26.56-.26,1.07v3.71c0,.52.09.88.26,1.09s.46.31.85.31Z"/>
          <path class="cls-7" d="M317.49,93.63c-.15,0-.28-.05-.38-.16-.11-.11-.16-.23-.16-.37,0-.15.05-.27.16-.37.1-.1.23-.14.38-.14s.28.05.38.14c.11.09.16.21.16.35,0,.15-.05.28-.16.38-.1.11-.23.16-.38.16ZM317.03,101.97v-7.43h.92v7.43h-.92Z"/>
          <path class="cls-7" d="M321.33,102.07c-.54,0-.96-.07-1.26-.2s-.51-.35-.63-.64-.18-.69-.18-1.18v-.65h.95v.86c0,.47.08.79.24.97.16.18.45.27.87.27.37,0,.64-.09.82-.27.17-.18.26-.48.26-.91v-.42c0-.23-.04-.43-.1-.59-.07-.17-.2-.32-.4-.46-.2-.14-.47-.28-.82-.42-.33-.13-.62-.27-.87-.42-.25-.15-.45-.34-.59-.57-.15-.23-.22-.52-.22-.88v-.45c0-.53.15-.94.46-1.24.3-.29.82-.44,1.55-.44.48,0,.86.06,1.15.2.29.13.5.34.63.63.14.29.2.67.2,1.12v.63h-.92v-.72c0-.5-.08-.84-.25-1.03s-.44-.28-.81-.28c-.42,0-.7.1-.85.3-.14.2-.22.45-.22.75v.41c0,.28.06.51.19.69s.3.33.53.45c.23.12.5.24.83.38.29.12.55.25.77.38.22.13.4.32.53.55s.2.54.2.95v.34c0,.4-.06.74-.19,1.03s-.34.5-.64.65c-.3.15-.71.23-1.23.23Z"/>
          <path class="cls-7" d="M324.74,101.97v-9.51h.92v9.51h-.92ZM327.77,101.97l-1.86-4.3,1.91-3.12h.93l-1.92,3.12,1.93,4.3h-.99Z"/>
          <path class="cls-7" d="M331.13,102.07c-.23,0-.46-.03-.7-.1-.24-.07-.43-.21-.6-.45-.17-.23-.25-.6-.25-1.1v-.72c0-.5.15-.9.46-1.21.3-.3.72-.58,1.25-.82.34-.17.62-.32.83-.45.21-.13.38-.28.49-.44.11-.16.17-.38.17-.64v-.31c0-.24-.05-.43-.15-.56-.1-.13-.23-.22-.4-.27-.17-.05-.34-.07-.52-.07-.45,0-.75.12-.88.37-.14.25-.21.61-.21,1.09v.63h-.86v-.72c0-.37.05-.7.15-.98s.29-.51.57-.68c.28-.16.69-.25,1.23-.25.57,0,1,.07,1.28.2.28.13.47.31.57.55s.14.53.14.86v5.97h-.92v-.93c-.13.34-.35.6-.66.77-.31.18-.64.26-1,.26ZM331.47,101.44c.45,0,.78-.16.98-.48.2-.32.31-.74.31-1.28v-2.37c-.1.16-.26.3-.49.44-.23.13-.47.26-.71.39-.34.2-.6.41-.79.62-.18.21-.28.51-.28.89v.59c0,.36.05.62.15.79.1.17.22.28.38.33.15.05.3.07.45.07Z"/>
          <path class="cls-7" d="M340.13,102.1c-.54,0-.98-.1-1.32-.29s-.59-.46-.74-.81c-.16-.35-.23-.75-.23-1.21v-4.57c0-.7.21-1.24.64-1.61.42-.37.99-.55,1.69-.55s1.24.17,1.63.51.58.87.58,1.59v.57h-.93v-.69c0-.47-.11-.81-.33-1.03-.22-.22-.54-.32-.94-.32s-.75.13-1,.4-.37.6-.37,1v2.21c.18-.26.42-.46.71-.61.29-.15.62-.22.98-.22.55,0,1.01.17,1.39.5.38.34.57.8.57,1.39v1.53c0,.42-.08.8-.25,1.14s-.42.61-.75.79-.78.29-1.33.29ZM340.14,101.5c.4,0,.73-.12.98-.37.25-.25.38-.62.38-1.13v-1.53c0-.46-.13-.8-.4-1.02-.26-.22-.59-.33-.98-.35-.37,0-.68.11-.94.33-.25.22-.39.53-.4.92v1.65c0,.49.12.86.36,1.11.24.25.57.38.99.39Z"/>
          <path class="cls-7" d="M343.91,101.97v-7.43h.78l.11.83c.11-.29.29-.52.55-.69s.57-.25.94-.25c.58,0,.99.12,1.22.36s.36.59.37,1.05h-.17c.1-.42.29-.76.58-1.02.29-.26.65-.39,1.1-.39.62,0,1.04.14,1.27.43.22.29.34.74.34,1.34v5.78h-.93v-5.61c0-.48-.07-.81-.22-.98-.14-.17-.39-.26-.74-.26-.33,0-.61.1-.83.29s-.34.44-.36.73v5.84h-.93v-5.73c0-.41-.07-.7-.22-.87-.14-.17-.4-.26-.77-.26-.34,0-.6.08-.77.24s-.3.35-.38.57v6.04h-.93Z"/>
          <path class="cls-7" d="M352.2,98.43v-.9c0-.43.07-.75.22-.97.14-.22.44-.43.89-.64.4-.19.67-.39.79-.61s.2-.49.2-.82c0-.31-.06-.55-.18-.71-.12-.17-.31-.25-.57-.25-.23,0-.41.07-.55.2-.13.13-.2.35-.2.65v.58h-.63v-.46c0-.52.12-.89.35-1.11.24-.22.58-.33,1.04-.33.36,0,.64.05.85.16.21.11.35.26.43.47.08.21.13.46.13.74,0,.33-.05.61-.14.83-.1.22-.23.41-.41.57-.17.15-.38.3-.62.43-.39.2-.65.37-.77.52-.12.14-.2.32-.22.52,0,.1-.01.2-.01.3v.29h2.19v.55h-2.79Z"/>
        </g>
        <g>
          <path class="cls-7" d="M304.51,129.68c-.45,0-.84-.08-1.16-.24-.33-.16-.58-.43-.76-.8-.18-.38-.27-.9-.27-1.57v-.5h.96v.55c0,.5.05.89.16,1.16.11.27.25.47.44.58.18.11.4.17.64.17.39,0,.71-.12.95-.37s.37-.68.37-1.31c0-.45-.06-.79-.19-1.01-.13-.22-.33-.41-.6-.54-.27-.13-.6-.28-.99-.44-.32-.13-.61-.29-.86-.47-.25-.18-.45-.43-.59-.73-.14-.3-.21-.68-.21-1.14,0-.52.07-.95.21-1.3.14-.34.37-.6.69-.77s.75-.25,1.28-.25c.69,0,1.22.17,1.6.52s.56.83.56,1.46v.98h-.93v-.75c0-.48-.1-.84-.31-1.09s-.51-.37-.91-.37c-.44,0-.76.13-.95.38-.2.25-.29.64-.29,1.16,0,.39.08.7.23.92.15.22.34.4.58.52.24.12.5.24.76.34.45.17.81.35,1.09.53.28.19.49.42.62.71s.2.7.2,1.21c0,.61-.1,1.09-.29,1.45-.19.36-.46.61-.81.76-.35.16-.74.23-1.19.23Z"/>
          <path class="cls-7" d="M309.77,129.59c-.22,0-.42-.02-.6-.07-.18-.05-.33-.13-.46-.25-.13-.11-.23-.26-.3-.45-.07-.18-.1-.42-.1-.7v-5.38h-.66v-.48l.72-.1.17-1.4h.71v1.4h1.6v.58h-1.6v5.22c0,.28.05.52.15.71.1.19.32.29.66.29.14,0,.29,0,.45-.02.16-.02.28-.02.34-.02v.6c-.08,0-.22.02-.42.04-.2.03-.42.04-.64.04Z"/>
          <path class="cls-7" d="M313.66,129.68c-.46,0-.84-.06-1.15-.19-.31-.12-.53-.35-.67-.67-.15-.32-.22-.76-.22-1.32v-3.46c0-.72.16-1.23.47-1.54.31-.31.84-.46,1.57-.46s1.25.15,1.57.45c.32.3.47.82.47,1.56v3.46c0,.56-.07,1-.21,1.31-.14.32-.36.54-.66.67s-.69.2-1.17.2ZM313.66,129.09c.4,0,.68-.1.85-.3.17-.2.26-.56.26-1.09v-3.71c0-.49-.08-.84-.24-1.06-.16-.21-.45-.32-.87-.32-.39,0-.67.1-.85.31s-.26.56-.26,1.07v3.71c0,.52.09.88.26,1.09s.46.31.85.31Z"/>
          <path class="cls-7" d="M317.56,121.23c-.15,0-.28-.05-.38-.16s-.16-.23-.16-.37c0-.15.05-.27.16-.37.1-.09.23-.14.38-.14s.28.05.38.14c.11.09.16.21.16.35,0,.15-.05.28-.16.38s-.23.16-.38.16ZM317.09,129.57v-7.42h.92v7.42h-.92Z"/>
          <path class="cls-7" d="M321.4,129.68c-.54,0-.96-.07-1.26-.2s-.51-.35-.63-.64-.18-.69-.18-1.18v-.65h.95v.86c0,.47.08.79.24.97.16.18.45.27.87.27.37,0,.64-.09.82-.27.17-.18.26-.48.26-.92v-.42c0-.23-.04-.43-.1-.59-.07-.17-.2-.32-.4-.46-.2-.14-.47-.28-.82-.42-.33-.13-.62-.27-.87-.42-.25-.15-.45-.34-.59-.57-.15-.23-.22-.52-.22-.88v-.45c0-.53.15-.94.46-1.24.3-.29.82-.44,1.55-.44.48,0,.86.07,1.15.2.29.13.5.34.63.63.14.29.2.67.2,1.12v.63h-.92v-.72c0-.5-.08-.84-.25-1.03-.17-.18-.44-.28-.81-.28-.42,0-.7.1-.85.3-.14.2-.22.45-.22.75v.41c0,.28.06.51.19.69.12.18.3.33.53.45.23.12.5.25.83.38.29.12.55.25.77.38.22.13.4.32.53.55s.2.54.2.95v.34c0,.4-.06.74-.19,1.03s-.34.5-.64.65c-.3.15-.71.23-1.23.23Z"/>
          <path class="cls-7" d="M324.8,129.57v-9.51h.92v9.51h-.92ZM327.83,129.57l-1.86-4.3,1.91-3.12h.93l-1.92,3.12,1.93,4.3h-.99Z"/>
          <path class="cls-7" d="M331.19,129.68c-.23,0-.46-.03-.7-.1-.24-.07-.43-.21-.6-.45s-.25-.6-.25-1.1v-.72c0-.5.15-.9.46-1.21s.72-.58,1.25-.82c.34-.17.62-.32.83-.45.21-.13.38-.27.49-.43.11-.16.17-.38.17-.65v-.31c0-.24-.05-.42-.15-.56-.1-.13-.23-.22-.4-.27s-.34-.08-.52-.08c-.45,0-.75.12-.88.37-.14.25-.21.61-.21,1.09v.63h-.86v-.72c0-.37.05-.7.15-.98s.29-.51.57-.67c.28-.17.69-.25,1.23-.25.57,0,1,.07,1.28.2.28.13.47.31.57.55s.14.53.14.86v5.97h-.92v-.93c-.13.34-.35.6-.66.77-.31.17-.64.26-1,.26ZM331.54,129.05c.45,0,.78-.16.98-.48.2-.32.31-.75.31-1.28v-2.37c-.1.16-.26.31-.49.44-.23.13-.47.26-.71.39-.34.2-.6.41-.79.62-.18.21-.28.51-.28.89v.58c0,.36.05.62.15.79.1.17.22.28.38.33.15.05.3.07.45.07Z"/>
          <path class="cls-7" d="M340.54,129.57v-1.79h-3.1v-.75l3.21-6.33h.84v6.42h.88v.66h-.88v1.79h-.95ZM338.24,127.13h2.29v-4.56l-2.29,4.56Z"/>
          <path class="cls-7" d="M343.42,129.57v-7.42h.78l.11.83c.11-.29.29-.52.55-.69s.57-.25.94-.25c.58,0,.99.12,1.22.36.24.24.36.59.37,1.05h-.17c.1-.42.29-.76.58-1.02.29-.26.65-.39,1.1-.39.62,0,1.04.14,1.27.43.22.29.34.74.34,1.33v5.78h-.93v-5.61c0-.48-.07-.81-.22-.98-.14-.17-.39-.26-.74-.26-.33,0-.61.1-.83.29s-.34.44-.36.73v5.83h-.93v-5.73c0-.41-.07-.7-.22-.87-.14-.17-.4-.26-.77-.26-.34,0-.6.08-.77.24-.17.16-.3.35-.38.57v6.04h-.93Z"/>
          <path class="cls-7" d="M351.71,126.03v-.9c0-.43.07-.75.22-.97.14-.22.44-.43.89-.64.4-.19.67-.39.79-.61.13-.21.2-.49.2-.82,0-.31-.06-.55-.18-.71s-.31-.25-.57-.25c-.23,0-.41.07-.55.2-.13.13-.2.35-.2.65v.58h-.63v-.46c0-.52.12-.89.35-1.11.24-.22.58-.33,1.04-.33.36,0,.64.05.85.16.21.11.35.26.43.47s.13.46.13.74c0,.33-.05.61-.14.83-.1.23-.23.42-.41.57s-.38.3-.62.43c-.39.2-.65.37-.77.52-.12.14-.2.32-.22.52,0,.1-.01.2-.01.3v.29h2.19v.55h-2.79Z"/>
        </g>
      </g>
    </g>
  </g>
</svg>