<?xml version="1.0" encoding="UTF-8"?>
<svg id="Warstwa_1" data-name="Warstwa 1" xmlns="http://www.w3.org/2000/svg" viewBox="0 0 627.36 319.87">
  <defs>
    <style>
      .cls-1 {
        opacity: .33;
      }

      .cls-2 {
        fill: #fff;
        stroke-width: 0px;
      }

      .cls-3 {
        fill: none;
        stroke: #263239;
        stroke-miterlimit: 10;
      }
    </style>
  </defs>
  <rect class="cls-2" x="-15.13" y="-9.63" width="665.2" height="347.39"/>
  <g class="cls-1">
    <polyline class="cls-3" points="496.94 199.24 496.94 92.08 511.37 92.08 511.37 81.78 554.64 81.78 554.64 90.02 565.98 90.02 565.98 261.06 596.89 261.06 596.89 290.94 616.46 290.94"/>
    <polyline class="cls-3" points="356.81 217.79 356.81 128.15 386.69 128.15 386.69 146.69 401.12 146.69 401.12 119.9 433.06 119.9 433.06 235.3 459.85 235.3 459.85 276.52 481.49 276.52 481.49 212.64 496.94 212.64 496.94 199.24"/>
    <polyline class="cls-3" points="244.5 153.9 244.5 290.94 262.02 290.94 262.02 210.58 286.74 210.58 286.74 278.58 356.81 278.58 356.81 217.79"/>
    <polyline class="cls-3" points="189.89 260.03 189.89 85.9 244.5 85.9 244.5 153.9"/>
    <polyline class="cls-3" points="83.76 205.42 83.76 225 99.22 225 99.22 136.39 161.04 136.39 161.04 273.43 189.89 273.43 189.89 260.03"/>
    <polyline class="cls-3" points="16.79 290.94 39.46 290.94 39.46 163.18 83.76 163.18 83.76 205.42"/>
  </g>
  <g class="cls-1">
    <path class="cls-3" d="M542.48,31.62s-8.24-16.49-23.7-14.43c-15.46,2.06-17.52,17.52-21.64,18.55-4.12,1.03-13.39-5.15-19.58-2.06-6.18,3.09-10.3,10.3-10.3,10.3,0,0-8.24-3.09-14.43,0-6.18,3.09-9.27,9.27-9.27,9.27h128.8s-1.03-16.49-10.3-19.58c-9.27-3.09-15.46,6.18-19.58-2.06Z"/>
    <path class="cls-3" d="M363.96,68.34s-6.09-12.19-17.52-10.66c-11.42,1.52-12.95,12.95-15.99,13.71-3.05.76-9.9-3.81-14.47-1.52-4.57,2.29-7.62,7.62-7.62,7.62,0,0-6.09-2.29-10.66,0-4.57,2.29-6.85,6.85-6.85,6.85h95.21s-.76-12.19-7.62-14.47c-6.85-2.28-11.42,4.57-14.47-1.52Z"/>
    <path class="cls-3" d="M120.41,38.19s-5.15-10.29-14.79-9c-9.65,1.29-10.93,10.93-13.51,11.58-2.57.64-8.36-3.22-12.22-1.29-3.86,1.93-6.43,6.43-6.43,6.43,0,0-5.15-1.93-9,0-3.86,1.93-5.79,5.79-5.79,5.79h80.4s-.64-10.29-6.43-12.22c-5.79-1.93-9.65,3.86-12.22-1.29Z"/>
  </g>
</svg>