<?xml version="1.0" encoding="UTF-8"?>
<svg id="Warstwa_1" data-name="Warstwa 1" xmlns="http://www.w3.org/2000/svg" viewBox="0 0 265.53 269.66">
  <defs>
    <style>
      .cls-1, .cls-2 {
        fill: #263239;
      }

      .cls-1, .cls-3 {
        stroke-width: 0px;
      }

      .cls-4 {
        stroke-width: 6px;
      }

      .cls-4, .cls-5, .cls-6, .cls-7, .cls-8, .cls-2, .cls-9 {
        stroke: #263239;
        stroke-linecap: round;
        stroke-linejoin: round;
      }

      .cls-4, .cls-6, .cls-8, .cls-9 {
        fill: none;
      }

      .cls-5 {
        fill: #ef871b;
      }

      .cls-6 {
        stroke-width: 2px;
      }

      .cls-7 {
        fill: #949494;
      }

      .cls-9 {
        stroke-width: 3px;
      }

      .cls-3 {
        fill: none;
      }
    </style>
  </defs>
  <rect class="cls-3" x="-376.97" y="-59.85" width="665.2" height="347.39"/>
  <g>
    <line class="cls-8" x1="213.08" y1="39.41" x2="76" y2="18.55"/>
    <polyline class="cls-8" points="40.14 46.14 76 18.55 13.29 46.37"/>
    <polyline class="cls-8" points="147.06 39.41 76 18.55 120.87 38.77"/>
    <g>
      <polyline class="cls-9" points="82.09 47.39 72.22 39.31 78.54 32.66 74.58 26.27"/>
      <polygon class="cls-9" points="69.77 249.47 82.09 249.47 82.09 47.39 76 18.55 69.77 47.39 69.77 249.47"/>
      <polyline class="cls-9" points="69.77 80.9 82 93.13 70.65 93.13"/>
      <polyline class="cls-9" points="69.77 69.73 82 81.96 70.65 81.96"/>
      <polyline class="cls-9" points="69.77 58.56 82 70.79 70.65 70.79"/>
      <polyline class="cls-9" points="69.77 47.39 82 59.62 70.65 59.62"/>
      <polyline class="cls-9" points="69.77 94.04 82 106.27 70.65 106.27"/>
      <polyline class="cls-9" points="69.77 107.18 82 119.41 70.65 119.41"/>
      <polyline class="cls-9" points="69.77 120.32 82 132.55 70.65 132.55"/>
      <polyline class="cls-9" points="69.77 133.46 82 145.69 70.65 145.69"/>
      <polyline class="cls-9" points="69.77 146.6 82 158.83 70.65 158.83"/>
      <polyline class="cls-9" points="69.77 159.74 82 171.97 70.65 171.97"/>
      <polyline class="cls-9" points="69.77 172.87 82 185.1 70.65 185.1"/>
      <polyline class="cls-9" points="69.77 186.01 82 198.24 70.65 198.24"/>
      <polyline class="cls-9" points="69.77 199.15 82 211.38 70.65 211.38"/>
      <polyline class="cls-9" points="69.77 212.29 82 224.52 70.65 224.52"/>
      <polyline class="cls-9" points="69.77 225.43 82 237.66 70.65 237.66"/>
    </g>
    <rect class="cls-1" x="54.23" y="247.42" width="43.45" height="6.83" transform="translate(151.91 501.66) rotate(180)"/>
    <rect class="cls-5" x="39.19" y="253.23" width="73.53" height="6.99" transform="translate(151.91 513.46) rotate(180)"/>
    <rect class="cls-5" x="68.17" y="67.73" width="15.52" height="13.52" transform="translate(151.87 148.97) rotate(180)"/>
    <g>
      <rect class="cls-5" x="65.51" y="86.96" width="20.85" height="5.53" transform="translate(151.87 179.45) rotate(180)"/>
      <polygon class="cls-5" points="65.43 86.96 86.43 86.96 83.69 81.43 68.17 81.43 65.43 86.96"/>
    </g>
    <path class="cls-5" d="M67.24,67.96h16.45v-15.24h-17.56c-.98,0-1.75.84-1.66,1.82l1.1,11.92c.08.86.8,1.51,1.66,1.51Z"/>
    <path class="cls-2" d="M81.05,56v8.85c0,.35-.26.63-.6.67l-5.86.63c-1.56.17-2.91-1.05-2.91-2.62v-7.54c0-.37.3-.68.68-.68h8.02c.37,0,.68.3.68.68Z"/>
    <polyline class="cls-6" points="34.92 48.25 200.18 48.25 193.22 39.41 91.16 39.41 86.74 47.31"/>
    <g>
      <polyline class="cls-6" points="193.22 39.41 193.22 47.94 185.01 39.72"/>
      <polyline class="cls-6" points="184.69 39.41 184.69 47.94 176.48 39.72"/>
      <polyline class="cls-6" points="176.16 39.41 176.16 47.94 167.95 39.72"/>
      <polyline class="cls-6" points="167.63 39.41 167.63 47.94 159.42 39.72"/>
      <polyline class="cls-6" points="159.1 39.41 159.1 47.94 150.88 39.72"/>
      <polyline class="cls-6" points="150.57 39.41 150.57 47.94 142.35 39.72"/>
      <polyline class="cls-6" points="142.04 39.41 142.04 47.94 133.82 39.72"/>
      <polyline class="cls-6" points="133.51 39.41 133.51 47.94 125.29 39.72"/>
      <polyline class="cls-6" points="124.97 39.41 124.97 47.94 116.76 39.72"/>
      <polyline class="cls-6" points="116.44 39.41 116.44 47.94 108.23 39.72"/>
      <polyline class="cls-6" points="107.91 39.41 107.91 47.94 99.7 39.72"/>
      <polyline class="cls-6" points="99.38 39.41 99.38 47.94 91.16 39.72"/>
    </g>
    <circle class="cls-5" cx="76" cy="18.55" r="3.16"/>
    <rect class="cls-5" x="13.29" y="46.37" width="29.64" height="3.6" transform="translate(56.22 96.33) rotate(180)"/>
    <rect class="cls-5" x="18.44" y="49.9" width="19.33" height="3.6" transform="translate(56.22 103.4) rotate(180)"/>
    <rect class="cls-7" x="27.13" y="53.5" width="8.59" height="10.79" transform="translate(62.85 117.8) rotate(180)"/>
    <polyline class="cls-8" points="66.83 47.31 66.83 37.51 14.38 37.51 14.38 46.37"/>
    <line class="cls-8" x1="42.93" y1="46.37" x2="42.93" y2="37.49"/>
    <line class="cls-8" x1="51.04" y1="47.88" x2="51.04" y2="37.49"/>
    <line class="cls-8" x1="59.36" y1="47.88" x2="59.36" y2="37.49"/>
    <line class="cls-8" x1="32.95" y1="46.37" x2="32.95" y2="37.49"/>
    <line class="cls-8" x1="22.97" y1="46.37" x2="22.97" y2="37.49"/>
    <line class="cls-8" x1="66.55" y1="42.48" x2="14.78" y2="42.48"/>
    <line class="cls-6" x1="243.39" y1="39.41" x2="144.4" y2="39.41"/>
    <line class="cls-6" x1="139.42" y1="48.25" x2="252.24" y2="48.25"/>
    <g>
      <line class="cls-6" x1="252.24" y1="48.25" x2="243.39" y2="39.41"/>
      <polyline class="cls-6" points="243.39 39.41 243.39 47.94 235.18 39.72"/>
      <polyline class="cls-6" points="234.86 39.41 234.86 47.94 226.65 39.72"/>
      <polyline class="cls-6" points="226.33 39.41 226.33 47.94 218.11 39.72"/>
      <polyline class="cls-6" points="217.8 39.41 217.8 47.94 209.58 39.72"/>
      <polyline class="cls-6" points="209.27 39.41 209.27 47.94 201.05 39.72"/>
    </g>
    <line class="cls-6" x1="200.61" y1="39.41" x2="200.61" y2="47.94"/>
    <g>
      <g>
        <line class="cls-8" x1="213.06" y1="179.3" x2="213.06" y2="60.87"/>
        <line class="cls-8" x1="205.19" y1="179.3" x2="205.19" y2="60.87"/>
      </g>
      <rect class="cls-2" x="199.13" y="47.8" width="20.47" height="10.11" transform="translate(418.72 105.71) rotate(180)"/>
      <polygon class="cls-2" points="201.17 63.83 217.55 63.83 219.59 57.91 199.13 57.91 201.17 63.83"/>
      <g>
        <rect class="cls-5" x="201.41" y="46.27" width="15.52" height="7.79" transform="translate(418.34 100.33) rotate(180)"/>
        <g>
          <polygon class="cls-1" points="214.33 46.27 216.71 46.27 208.92 54.06 206.54 54.06 214.33 46.27"/>
          <polygon class="cls-1" points="213.86 54.06 211.47 54.06 216.93 48.6 216.93 50.98 213.86 54.06"/>
          <polygon class="cls-1" points="209.39 46.27 211.78 46.27 203.99 54.06 201.61 54.06 209.39 46.27"/>
          <polygon class="cls-1" points="204.46 46.27 206.84 46.27 201.41 51.7 201.41 49.32 204.46 46.27"/>
        </g>
      </g>
      <g>
        <g>
          <path class="cls-9" d="M208.99,188.78v1.58c0,1.21,1.43,2.45,2.06,3.38,1.79,2.62.73,7.47-2.97,7.54-3.15.06-3.9-2.95-3.54-5.5"/>
          <path class="cls-4" d="M208.99,183.95v4.83"/>
        </g>
        <g>
          <rect class="cls-5" x="203.77" y="176.95" width="10.72" height="7.87" transform="translate(390.02 -28.24) rotate(90)"/>
          <g>
            <polygon class="cls-1" points="205.28 177.33 205.28 175.68 213.06 181.06 213.06 182.71 205.28 177.33"/>
            <polygon class="cls-1" points="213.06 177.65 213.06 179.3 207.61 175.53 209.99 175.53 213.06 177.65"/>
            <polygon class="cls-1" points="205.28 180.74 205.28 179.09 213.06 184.47 213.06 186.12 205.28 180.74"/>
            <polygon class="cls-1" points="205.28 184.14 205.28 182.5 210.71 186.25 208.33 186.25 205.28 184.14"/>
          </g>
        </g>
      </g>
      <path class="cls-5" d="M209.36,67.28h0c.89,0,1.6-.72,1.6-1.6v-2.59h-3.21v2.59c0,.89.72,1.6,1.6,1.6Z"/>
    </g>
  </g>
</svg>